<svg xmlns="http://www.w3.org/2000/svg" viewBox="0 0 187.91 137.12"><defs><style>.cls-3{fill:#ff9300}.cls-4{fill:#feb849}.cls-5{fill:#4e4e4d}.cls-6{fill:#fff}</style></defs><g id="Слой_2" data-name="Слой 2"><g id="Слой_1-2" data-name="Слой 1"><circle cx="168.62" cy="116.41" r="15.65" transform="rotate(-22.5 168.623 116.403)" fill="#d7d7d7"/><circle cx="23.32" cy="62.5" r="15.65" transform="rotate(-76.72 23.318 62.503)" fill="#c9c8c7"/><circle class="cls-3" cx="175.49" cy="45.74" r="10.83"/><circle class="cls-4" cx="87.37" cy="125.44" r="6.02"/><circle class="cls-4" cx="99.66" cy="101.24" r="8.43" transform="rotate(-22.5 99.647 101.246)"/><path class="cls-5" d="M3.69 57.67a.68.68 0 00.38-.12 6.21 6.21 0 011.35-.71.67.67 0 00.38-.84.66.66 0 00-.86-.38 8 8 0 00-1.63.86.66.66 0 00.38 1.21zM1.16 60.1a.54.54 0 00.3.08.65.65 0 00.59-.36 6.36 6.36 0 01.87-1.25.67.67 0 00-1-.89 7.56 7.56 0 00-1 1.53.65.65 0 00.24.89zm.17 2.67a6.51 6.51 0 01.18-1.52.66.66 0 10-1.29-.31A7.45 7.45 0 000 62.77a.65.65 0 00.67.64.69.69 0 00.66-.64zm.75 2.99a6.66 6.66 0 01-.56-1.42.66.66 0 00-.8-.49.67.67 0 00-.49.81 8.26 8.26 0 00.67 1.73.67.67 0 00.59.35.68.68 0 00.31-.08.67.67 0 00.28-.9zm10.33-7.21a6 6 0 01.87 1.25.66.66 0 00.59.36.68.68 0 00.31-.08.67.67 0 00.28-.9 7.83 7.83 0 00-1.06-1.52.67.67 0 00-1 .89zm-2.5-1.72a6.21 6.21 0 011.35.71.68.68 0 00.38.12.69.69 0 00.55-.29.67.67 0 00-.17-.93 7.3 7.3 0 00-1.64-.85.66.66 0 10-.47 1.24zm-.74-.94a.67.67 0 00-.59-.74 8.65 8.65 0 00-.92 0 7 7 0 00-.92 0 .67.67 0 00.08 1.33h.08a6.4 6.4 0 01.77 0 3.84 3.84 0 01.76 0 .68.68 0 00.74-.59zm.83 12.8a6 6 0 01-1.48.37.67.67 0 00.08 1.33h.08a7.09 7.09 0 001.8-.45.67.67 0 00.38-.86.67.67 0 00-.86-.39zM12.44 67a5.82 5.82 0 01-1.14 1 .67.67 0 00-.16.93.67.67 0 00.93.16 7.27 7.27 0 001.37-1.23.66.66 0 00-.06-.94.68.68 0 00-.94.08zm2.21-3.23a.68.68 0 00-.81.49 6.46 6.46 0 01-.53 1.43.66.66 0 00.28.9.68.68 0 00.31.08.66.66 0 00.59-.36 8.2 8.2 0 00.65-1.73.68.68 0 00-.49-.81zM7 69.07a5.88 5.88 0 01-1.49-.35A.67.67 0 005 70a8.44 8.44 0 001.8.43h.07A.67.67 0 007 69.07zM3 67a.66.66 0 00-1 0 .67.67 0 000 .94 7.66 7.66 0 001.4 1.21.63.63 0 00.37.12.67.67 0 00.55-.29.65.65 0 00-.22-.98A6.88 6.88 0 013 67zm12.12-6.09a.66.66 0 10-1.29.32 6.39 6.39 0 01.17 1.52.67.67 0 00.66.66.67.67 0 00.66-.67 7.46 7.46 0 00-.2-1.83zm37.58 64.56a.66.66 0 00.47-.19 3.66 3.66 0 011.23-.83.67.67 0 10-.51-1.23 5.11 5.11 0 00-1.67 1.12.66.66 0 000 .94.7.7 0 00.48.19zm-.65 2.53a3.88 3.88 0 01.29-1.46.67.67 0 00-.36-.87.68.68 0 00-.87.37 5.09 5.09 0 00-.39 2h.67-.67a.65.65 0 00.67.64.69.69 0 00.66-.68zm7.35-1.51a.65.65 0 00.61.41.6.6 0 00.26-.05.66.66 0 00.35-.87 5.18 5.18 0 00-1.12-1.66.66.66 0 10-.94.94 4 4 0 01.84 1.23zm-3.53-2.34a3.79 3.79 0 011.45.29.74.74 0 00.25 0 .68.68 0 00.62-.42.65.65 0 00-.36-.86 5.08 5.08 0 00-2-.39.67.67 0 100 1.33zm4.49 3.15a.68.68 0 00-.67.67 3.7 3.7 0 01-.28 1.44.67.67 0 00.37.87.74.74 0 00.25.05.68.68 0 00.62-.42A5.11 5.11 0 0061 128a.64.64 0 00-.64-.7zm-1.77 3.36a3.66 3.66 0 01-1.23.83.68.68 0 00-.35.88.66.66 0 00.61.4.75.75 0 00.26-.05 5.26 5.26 0 001.66-1.13.66.66 0 00-.95-.93zm-2.72 1.14a3.91 3.91 0 01-1.43-.28.66.66 0 00-.86.37.65.65 0 00.37.86 5.06 5.06 0 001.95.38.65.65 0 00.65-.67.68.68 0 00-.68-.66zm-3.51-2.32a.67.67 0 00-1.23.52 5.24 5.24 0 001.14 1.66.68.68 0 00.46.19.67.67 0 00.47-1.15 3.65 3.65 0 01-.84-1.22zM18.47 18.43a.67.67 0 00.47-.2 4 4 0 011.24-.83.67.67 0 00.36-.87.68.68 0 00-.88-.35A5 5 0 0018 17.3a.66.66 0 00.47 1.13zm3.18-1.32a3.79 3.79 0 011.45.29.7.7 0 00.25.05A.66.66 0 0024 17a.67.67 0 00-.36-.87 5.21 5.21 0 00-2-.38.67.67 0 00-.66.67.68.68 0 00.67.69zm-3.82 3.82a3.87 3.87 0 01.28-1.46.67.67 0 00-.36-.87.67.67 0 00-.87.36 5.31 5.31 0 00-.38 2V21a.64.64 0 00.66.64.69.69 0 00.67-.71zm7.34-1.48a.66.66 0 00.61.41.75.75 0 00.26-.05.67.67 0 00.36-.87 5.14 5.14 0 00-1.13-1.67.67.67 0 00-.94 0 .66.66 0 000 .94 4 4 0 01.84 1.24zm-.8 4.16a3.79 3.79 0 01-1.23.84.67.67 0 00.26 1.28.74.74 0 00.25-.05 5.15 5.15 0 001.66-1.13.66.66 0 10-.94-.94zm1.76-3.36a.67.67 0 00-.66.68 3.93 3.93 0 01-.28 1.44.67.67 0 00.36.87.79.79 0 00.25.05.67.67 0 00.62-.42 5.12 5.12 0 00.38-1.94.66.66 0 00-.67-.68zm-8 2.18a.66.66 0 00-1.22.52A5 5 0 0018 24.61a.66.66 0 00.47.19.67.67 0 00.53-1.14 3.85 3.85 0 01-.87-1.23zm3.52 2.32a3.83 3.83 0 01-1.43-.27.66.66 0 10-.5 1.23 5.06 5.06 0 001.93.37.64.64 0 00.64-.66.69.69 0 00-.64-.67zm50.91 101.88h-2a.67.67 0 00-.67.67.66.66 0 00.67.66h2a.66.66 0 00.67-.66.67.67 0 00-.67-.67zm4.04 0h-2a.66.66 0 00-.66.67.65.65 0 00.66.66h2a.65.65 0 00.66-.66.66.66 0 00-.66-.67zm4.03 0h-2a.67.67 0 00-.67.67.66.66 0 00.67.66h2a.66.66 0 00.67-.66.67.67 0 00-.67-.67zm4.04 0h-2a.66.66 0 00-.66.67.65.65 0 00.66.66h2a.66.66 0 00.66-.66.67.67 0 00-.66-.67zM19.22 30.9h-2a.67.67 0 000 1.33h2a.67.67 0 000-1.33zm4.03 0h-2a.67.67 0 100 1.33h2a.67.67 0 100-1.33zm8.07 0h-2a.67.67 0 000 1.33h2a.67.67 0 000-1.33zm-4.03 0h-2a.67.67 0 100 1.33h2a.67.67 0 000-1.33zm73.99-13.21h-2a.67.67 0 000 1.33h2a.67.67 0 100-1.33zm-3.37.67a.67.67 0 00-.66-.67h-2a.67.67 0 100 1.33h2a.67.67 0 00.66-.66zm7.4-.67h-2a.67.67 0 100 1.33h2a.67.67 0 100-1.33zm4.04 0h-2a.67.67 0 000 1.33h2a.67.67 0 000-1.33z"/><path class="cls-5" d="M94.74 19.37l-1.66-.83 1.46-.81a.66.66 0 00.26-.9.67.67 0 00-.91-.26l-1.76 1a.67.67 0 00-.26.91.54.54 0 00.22.23.35.35 0 000 .08.68.68 0 00.3.9l1.8.9a.82.82 0 00.3.07.66.66 0 00.59-.37.65.65 0 00-.34-.92zm2.69-4.75l-1.77 1a.67.67 0 00-.26.91.66.66 0 00.58.34.61.61 0 00.32-.08l1.77-1a.66.66 0 10-.64-1.16zm.4 6.3l-1.29-.65a.66.66 0 00-.54 1.19l1.29.65a.78.78 0 00.3.07.66.66 0 00.29-1.26zm77.76 58.37a.67.67 0 00.47-.2 4.15 4.15 0 011.24-.83.67.67 0 00-.51-1.23 5.27 5.27 0 00-1.67 1.12.67.67 0 00.47 1.14zm6.7 1.02a.68.68 0 00.61.41.75.75 0 00.26 0 .67.67 0 00.36-.87 5 5 0 00-1.13-1.67.66.66 0 00-.94 0 .67.67 0 000 .94 3.66 3.66 0 01.84 1.19zM178.77 78a4 4 0 011.45.28.56.56 0 00.25 0 .67.67 0 00.62-.41.68.68 0 00-.37-.87 5.17 5.17 0 00-1.95-.38.66.66 0 00-.65.66.67.67 0 00.65.72zM175 81.79a3.8 3.8 0 01.29-1.46.67.67 0 00-1.23-.51 5.13 5.13 0 00-.39 2 .64.64 0 00.66.64.69.69 0 00.67-.67zm.25 1.5a.65.65 0 00-.87-.35.66.66 0 00-.35.87 5.37 5.37 0 001.13 1.66.66.66 0 00.47.19.67.67 0 00.47-.2.66.66 0 000-.94 3.85 3.85 0 01-.85-1.23zm8-2.18a.68.68 0 00-.66.68 3.93 3.93 0 01-.28 1.44.67.67 0 00.36.87.79.79 0 00.25.05.66.66 0 00.62-.42 5.16 5.16 0 00.38-1.94.66.66 0 00-.67-.68zm-1.76 3.36a3.85 3.85 0 01-1.23.84.66.66 0 10.52 1.22 5.18 5.18 0 001.66-1.12.67.67 0 00-.95-.94zm-2.72 1.14a3.65 3.65 0 01-1.43-.28.68.68 0 00-.87.37.67.67 0 00.37.87 5.06 5.06 0 001.93.37.65.65 0 00.64-.66.68.68 0 00-.64-.67zM175.14 98h-2a.67.67 0 100 1.33h2a.67.67 0 100-1.33zm4.04 0h-2a.67.67 0 100 1.33h2a.67.67 0 000-1.33zm4.03 0h-2a.67.67 0 000 1.33h2a.67.67 0 100-1.33zm4.03 0h-2a.67.67 0 100 1.33h2a.67.67 0 100-1.33zm-15.93-31.86h-2a.67.67 0 00-.66.67.66.66 0 00.66.66h2a.66.66 0 00.67-.66.67.67 0 00-.67-.67zm-4.03 0h-2a.66.66 0 00-.66.67.65.65 0 00.66.66h2a.66.66 0 00.66-.66.67.67 0 00-.66-.67zm8.72.67a.67.67 0 00-.66-.67h-2a.67.67 0 00-.67.67.66.66 0 00.67.66h2a.66.66 0 00.66-.66zm-12.76-.67h-2a.67.67 0 00-.67.67.66.66 0 00.67.66h2a.66.66 0 00.67-.66.67.67 0 00-.67-.67zm9.5-1.89l1.29.65a.82.82 0 00.3.07.68.68 0 00.6-.37.66.66 0 00-.3-.89l-1.29-.65a.67.67 0 10-.6 1.19z"/><path class="cls-5" d="M178.71 66.72a.73.73 0 00-.22-.24.56.56 0 000-.08.66.66 0 00-.3-.89l-1.81-.9a.66.66 0 00-.89.29.68.68 0 00.3.9l1.66.83-1.46.8a.66.66 0 00-.26.9.67.67 0 00.58.35.72.72 0 00.32-.08l1.77-1a.66.66 0 00.31-.88zm-4.44 1.69l-1.76 1a.67.67 0 00.32 1.25.72.72 0 00.32-.08l1.76-1a.66.66 0 10-.64-1.16zm-84.88 66.04h-2.12a.67.67 0 100 1.34h2.12a.67.67 0 000-1.34zm4.25 0h-2.13a.67.67 0 000 1.34h2.13a.67.67 0 000-1.34zm8.49 0H100a.67.67 0 000 1.34h2.13a.67.67 0 000-1.34zm-4.25 0h-2.12a.67.67 0 100 1.34h2.12a.67.67 0 100-1.34zm47.86-40.69H67.11a.67.67 0 01-.67-.66V30.19a.67.67 0 01.67-.66h78.63a.66.66 0 01.66.66V93.1a.66.66 0 01-.66.66zm-78-1.33h77.29V30.86H67.78z"/><path class="cls-3" d="M68 31.11v61.07h76.79V31.11zm74.69 58.06a.9.9 0 01-.91.91H75a.9.9 0 01-.91-.91v-55a.9.9 0 01.91-.92h66.84a.9.9 0 01.91.92z"/><path class="cls-5" d="M141.81 89.83H75a.66.66 0 01-.66-.66v-55a.66.66 0 01.66-.67h66.84a.67.67 0 01.66.67v55a.67.67 0 01-.69.66zM75.64 88.5h65.5V34.79h-65.5z"/><path class="cls-5" d="M141.81 89.83h-33.55a.67.67 0 01-.67-.66V78.94a.67.67 0 01.67-.66h33.55a.67.67 0 01.66.66v10.23a.67.67 0 01-.66.66zm-32.89-1.33h32.22v-8.89h-32.22zm-1.51-29.92H94.76a.66.66 0 01-.66-.67.65.65 0 01.66-.66h12V44.62H84.29v12.63h4.18a.66.66 0 01.67.66.67.67 0 01-.67.67h-4.85a.66.66 0 01-.66-.67V44a.66.66 0 01.66-.66h23.79a.67.67 0 01.66.66v14a.67.67 0 01-.66.58zm4.85 13.95H99.48a.67.67 0 01-.67-.66V64a.67.67 0 01.67-.66.66.66 0 01.66.66v7.2h12.12a.67.67 0 010 1.33z"/><path class="cls-5" d="M131.59 72.53h-48a.66.66 0 01-.66-.66V44a.66.66 0 01.66-.66h48a.67.67 0 01.66.66v14.5a.67.67 0 11-1.33 0V44.62H84.29V71.2h46.63v-4.84a.67.67 0 011.33 0v5.51a.67.67 0 01-.66.66z"/><path class="cls-5" d="M118.55 66.45a.67.67 0 01-.67-.67v-7.2h-12.11a.66.66 0 01-.67-.66.67.67 0 01.67-.67h12.78a.67.67 0 01.66.67v7.86a.67.67 0 01-.66.67z"/><path class="cls-6" d="M125.06 89.23v34.4h33.64v-34.4zm28.26 25.9a.67.67 0 01-.67.66h-21.52a.66.66 0 01-.67-.66V97.74a.68.68 0 01.67-.67h21.52a.68.68 0 01.67.67zm4.02-27.22h-30.87l15.6-11.15 15.27 11.15z"/><path class="cls-3" d="M131.79 98.4h20.19v16.06h-20.19z"/><path class="cls-5" d="M159.37 125h-35a.66.66 0 01-.66-.67V88.57a.66.66 0 01.66-.66h35a.67.67 0 01.67.66v35.73a.67.67 0 01-.67.7zm-34.3-1.33h33.64V89.24h-33.64z"/><path class="cls-5" d="M159.39 89.24h-35a.65.65 0 01-.63-.46.66.66 0 01.24-.78l17.69-12.6a.66.66 0 01.78 0L159.68 88a.67.67 0 01.37.6.65.65 0 01-.66.64zm-32.92-1.33h30.86l-15.26-11.15zm26.18 27.89h-21.53a.67.67 0 01-.66-.67V97.74a.66.66 0 01.66-.66h21.53a.66.66 0 01.66.66v17.39a.67.67 0 01-.66.67zm-20.86-1.33H152V98.41h-20.21z"/><path class="cls-5" d="M142.08 115.8h-11a.67.67 0 01-.66-.67V97.74a.66.66 0 01.66-.66h11a.66.66 0 01.66.66v17.39a.67.67 0 01-.66.67zm-10.29-1.33h9.62V98.41h-9.62zM169.7 125h-8.06a.67.67 0 110-1.33H169V89.24h-7.41a.67.67 0 010-1.33h8.08a.66.66 0 01.66.66v35.73a.66.66 0 01-.63.7z"/><path class="cls-5" d="M171.51 126.55a.64.64 0 01-.43-.16l-3.63-3.16a.67.67 0 11.87-1l3.63 3.16a.67.67 0 01.07.94.69.69 0 01-.51.22zm0-35.73a.65.65 0 01-.43-.17l-3.63-3.15a.67.67 0 11.87-1l3.68 3.15a.67.67 0 01.07.94.69.69 0 01-.56.23zm-49.43 25.03H114a.67.67 0 01-.66-.67V97.7a.67.67 0 01.66-.7h8.08a.67.67 0 110 1.33h-7.41v16.16h7.39a.66.66 0 01.67.66.67.67 0 01-.65.7z"/><path class="cls-5" d="M115.6 117.66a.67.67 0 01-.5-.23l-3.16-3.62a.67.67 0 01.07-.94.66.66 0 01.94.06l3.15 3.63a.66.66 0 01-.06.94.66.66 0 01-.44.16zm0-17.48a.67.67 0 01-.5-.23l-3.16-3.63a.67.67 0 111-.87l3.15 3.62a.66.66 0 01-.06.94.67.67 0 01-.43.17zm43.79 35.12h-35a.66.66 0 01-.66-.66v-8.06a.67.67 0 111.33 0V134h33.66v-7.41a.65.65 0 01.66-.66.66.66 0 01.67.66v8.08a.66.66 0 01-.66.63z"/><path class="cls-5" d="M122.86 137.12a.62.62 0 01-.43-.16.67.67 0 01-.08-.94l3.09-3.63a.67.67 0 01.94-.07.68.68 0 01.08.94l-3.1 3.63a.67.67 0 01-.5.23zm34.99 0a.66.66 0 01-.51-1.1l3.09-3.63a.67.67 0 111 .87l-3.09 3.63a.67.67 0 01-.49.23z"/><path class="cls-6" d="M131.48 24.13L121.3 53h-2.42l11.84-33.61a5.05 5.05 0 01.76 4.74zM147.44 53H145l-10-28.52-.13-.35a5 5 0 01.76-4.73zM134.68 2.33l-1 7h-.95l-1.05-7a1 1 0 011.05-1h.95a1 1 0 011 1zm-.95 28.46V34a.57.57 0 11-1.14 0v-3.21a.57.57 0 111.14 0zm23.54-15.88a.7.7 0 000 .16.88.88 0 000 .16v8.13a.69.69 0 000 .33V47.5a.65.65 0 000 .32V56a.7.7 0 000 .16.78.78 0 000 .16v1.39h-5.6V13.52h5.6zm20.5 20.68a19.86 19.86 0 01-19.17 19.84v-7.12a12.73 12.73 0 000-25.43v-7.13a19.86 19.86 0 0119.17 19.84z"/><path class="cls-5" d="M133.16 25.46a7.59 7.59 0 01-1.29-.1.68.68 0 01-.52-.88l.13-.35a5 5 0 00-.76-4.74l-1.45 4.09a.67.67 0 01-.43.42.68.68 0 01-.6-.11 8.08 8.08 0 119.84 0 .68.68 0 01-.6.11.69.69 0 01-.43-.42l-1.44-4.09a5 5 0 00-.76 4.74l.13.35a.68.68 0 01-.52.88 7.71 7.71 0 01-1.3.1zm-.29-1.33h.59a6.36 6.36 0 011.92-6.43.79.79 0 01.64-.17.67.67 0 01.48.4l1.5 4.18a6.76 6.76 0 10-9.63 0l1.47-4.19a.68.68 0 01.48-.42.66.66 0 01.62.17 6.39 6.39 0 011.93 6.46z"/><path class="cls-5" d="M121.76 54.39h-.12l-.15-.05h-3.55a.66.66 0 01-.63-.88l12.51-35.53a.68.68 0 01.48-.42.66.66 0 01.62.17 6.37 6.37 0 011.81 6.9l-10.35 29.36a.65.65 0 01-.62.45zM118.88 53h2.43l10.17-28.87a5 5 0 00-.76-4.74z"/><path class="cls-5" d="M119.85 60.2a.67.67 0 01-.63-.46l-1.91-5.88a.65.65 0 01.09-.59.69.69 0 01.54-.28h3.83a.66.66 0 01.54.28.64.64 0 01.09.6l-1.92 5.87a.67.67 0 01-.63.46zm-1-5.88l1 3.07 1-3.07zm25.7.04a.62.62 0 01-.61-.42L133.6 24.57a6.34 6.34 0 011.78-6.87.79.79 0 01.64-.17.67.67 0 01.48.4L149 53.31a.64.64 0 01.11.36.67.67 0 01-.67.66h-3.73zM145 53h2.43l-11.82-33.61a5 5 0 00-.76 4.74z"/><path class="cls-5" d="M146.48 60.2a.68.68 0 01-.64-.46l-1.92-5.87a.67.67 0 01.09-.6.69.69 0 01.54-.28h3.84a.68.68 0 01.63.87l-1.91 5.88a.68.68 0 01-.63.46zm-1-5.88l1 3.07 1-3.07zm-11.27-43.68h-2.09a.67.67 0 01-.66-.56l-1.14-7.61a.28.28 0 010-.09A2.39 2.39 0 01132.69 0h.95A2.38 2.38 0 01136 2.38v.09l-1.14 7.61a.67.67 0 01-.65.56zm-1.52-1.33h.94l1.05-7a1 1 0 00-1-1h-.95a1.06 1.06 0 00-1.05 1zm11.5 23.95h-22a.67.67 0 110-1.33h22a.67.67 0 010 1.33z"/><path class="cls-5" d="M133.16 35.92a1.9 1.9 0 01-1.9-1.9v-3.23a1.91 1.91 0 013.81 0V34a1.91 1.91 0 01-1.91 1.92zm0-5.7a.58.58 0 00-.57.57V34a.58.58 0 00.57.57.57.57 0 00.57-.57v-3.21a.57.57 0 00-.57-.57zM157.93 59H151a.66.66 0 01-.66-.66V12.86a.67.67 0 01.66-.67h6.93a.67.67 0 01.67.67v45.47a.66.66 0 01-.67.67zm-6.26-1.33h5.6V13.52h-5.6z"/><path class="cls-5" d="M154.68 16.6H151a.67.67 0 010-1.33h3.68a.67.67 0 110 1.33zm0 3.08H151a.67.67 0 010-1.33h3.68a.67.67 0 110 1.33zm0 6.16H151a.67.67 0 01-.66-.67.66.66 0 01.66-.66h3.68a.66.66 0 01.67.66.67.67 0 01-.67.67zm1.54 3.07H151a.66.66 0 01-.66-.66.67.67 0 01.66-.67h5.22a.67.67 0 01.67.67.66.66 0 01-.67.66zm0 15.4H151a.67.67 0 010-1.31h5.22a.67.67 0 110 1.33zm-1.54-21.55H151a.67.67 0 01-.66-.67.66.66 0 01.66-.66h3.68a.66.66 0 01.67.66.67.67 0 01-.67.67zm0 9.24H151a.66.66 0 01-.66-.66.67.67 0 01.66-.67h3.68a.67.67 0 01.67.67.66.66 0 01-.67.66zm0 3.07H151a.67.67 0 010-1.33h3.68a.67.67 0 110 1.33zm0 6.16H151a.67.67 0 010-1.33h3.68a.67.67 0 110 1.33zm0-3.08H151a.67.67 0 010-1.33h3.68a.67.67 0 110 1.33zm0 9.57H151a.67.67 0 010-1.33h3.68a.67.67 0 110 1.33zm0 3.08H151a.67.67 0 010-1.33h3.68a.67.67 0 110 1.33zm0 6.2H151a.67.67 0 01-.66-.67.66.66 0 01.66-.66h3.68a.66.66 0 01.67.66.67.67 0 01-.67.67zm0-3.12H151a.67.67 0 010-1.33h3.68a.67.67 0 110 1.33zm3.24 2.9a.66.66 0 01-.67-.66.67.67 0 01.67-.67 19.86 19.86 0 100-39.72.67.67 0 110-1.33 21.19 21.19 0 110 42.38z"/><path class="cls-5" d="M157.92 48.33a.67.67 0 01-.67-.67.66.66 0 01.67-.66 11.41 11.41 0 000-22.81.67.67 0 110-1.33 12.74 12.74 0 010 25.47zm20.52-12.07h-5.23a.67.67 0 010-1.33h5.23a.67.67 0 110 1.33zm-7.24-7.66a.68.68 0 01-.58-.33.67.67 0 01.25-.91l4.52-2.62a.67.67 0 01.91.25.66.66 0 01-.24.91l-4.53 2.61a.66.66 0 01-.33.09zm-5.58-5.6a.68.68 0 01-.33-.09.67.67 0 01-.24-.91l2.61-4.52a.66.66 0 01.91-.24.65.65 0 01.24.9l-2.61 4.53a.67.67 0 01-.58.33zm2.5 31a.67.67 0 01-.58-.33l-2.61-4.53a.66.66 0 01.24-.91.67.67 0 01.91.24l2.61 4.53a.66.66 0 01-.24.91.68.68 0 01-.33.09zm7.53-7.49a.68.68 0 01-.33-.09l-4.52-2.61a.67.67 0 01-.25-.91.66.66 0 01.91-.24l4.54 2.61a.66.66 0 01.24.91.67.67 0 01-.59.33z"/><path class="cls-6" transform="rotate(-45.02 60.593 22)" d="M53.13 19.92h14.94v4.17H53.13z"/><path class="cls-6" transform="rotate(-45.02 64.342 25.746)" d="M56.87 23.66h14.94v4.17H56.87z"/><path class="cls-6" transform="rotate(-44.97 43.52 39.082)" d="M37.46 37h12.12v4.17H37.46z"/><path class="cls-6" transform="rotate(-45 47.259 42.825)" d="M41.2 40.74h12.12v4.17H41.2z"/><path class="cls-3" d="M40.26 52.78l-2.18 2.16a4.08 4.08 0 01-2.92 1.22 4.14 4.14 0 01-2.93-1.22l-.83-.83a4.14 4.14 0 010-5.87l2.17-2.16zm35.28-42.07l-1.37 3.63-2.22-2.22 3.59-1.41z"/><path class="cls-6" d="M37.16 10.71l-5.93 5.93 39.28 39.28L76.44 50zm34.16 40.86A1.89 1.89 0 0170 48.35a1.93 1.93 0 012.68 0 1.9 1.9 0 010 2.67 1.93 1.93 0 01-1.36.55z"/><path class="cls-5" d="M56.79 30.22a.63.63 0 01-.47-.2l-3.74-3.74a.66.66 0 010-.94L63.93 14a.69.69 0 01.94 0l3.74 3.75a.66.66 0 010 .94L57.26 30a.67.67 0 01-.47.22zM54 25.81l2.8 2.8L67.2 18.2l-2.8-2.8z"/><path class="cls-5" d="M60.53 34a.67.67 0 01-.47-.19L56.32 30a.66.66 0 010-.94l11.35-11.33a.68.68 0 01.94 0l3.74 3.74a.66.66 0 010 .94L61 33.77a.68.68 0 01-.47.23zm-2.8-4.41l2.8 2.8 10.41-10.45-2.8-2.8zM40.7 46.3a.7.7 0 01-.47-.19l-3.74-3.75a.66.66 0 010-.94l9.37-9.36a.66.66 0 01.94 0l3.74 3.74a.68.68 0 010 1l-9.37 9.36a.67.67 0 01-.47.14zm-2.8-4.41l2.8 2.81 8.43-8.42-2.8-2.81z"/><path class="cls-5" d="M44.44 50.05a.67.67 0 01-.47-.2l-3.74-3.74a.66.66 0 010-.94l9.37-9.37a.7.7 0 01.94 0l3.74 3.75a.66.66 0 010 .94l-9.37 9.36a.63.63 0 01-.47.2zm-2.8-4.41l2.8 2.8L52.87 40l-2.8-2.8z"/><path class="cls-5" d="M35.16 57.38a5.33 5.33 0 01-3.79-1.57l-.84-.81a5.39 5.39 0 010-7.6l6-6a.71.71 0 01.47-.2.67.67 0 01.47.2l7.48 7.49a.65.65 0 010 .94l-6 6a5.33 5.33 0 01-3.79 1.55zM37 42.83l-5.49 5.49a4.06 4.06 0 000 5.72l.84.83a4 4 0 005.7 0l5.49-5.49z"/><path class="cls-5" d="M41.05 53.44a.67.67 0 01-.47-.19l-7.49-7.49a.67.67 0 010-.94l3.39-3.4a.71.71 0 01.47-.2.67.67 0 01.47.2l7.48 7.49a.66.66 0 010 .94l-3.39 3.4a.7.7 0 01-.46.19zm-6.54-8.15l6.54 6.55 2.45-2.46-6.5-6.55zM74.38 16a.67.67 0 01-.47-.2l-3.43-3.44a.63.63 0 01-.18-.6.68.68 0 01.41-.49l5.56-2.17a.67.67 0 01.87.86L75 15.58a.68.68 0 01-.49.41zm-2.24-3.86l2 2 1.23-3.24z"/><path class="cls-5" d="M71.89 22.6a.67.67 0 01-.47-.19l-7.48-7.48a.68.68 0 01-.17-.61.63.63 0 01.4-.48l6.55-2.55a.65.65 0 01.71.15l3.44 3.43a.69.69 0 01.15.71l-2.5 6.59a.67.67 0 01-.63.43zm-6.29-7.89l6 6 2-5.23-2.82-2.82zm4.91 42.67a.67.67 0 01-.47-.2L30 17.11a.66.66 0 010-.94l6.72-6.72a.68.68 0 01.94 0L77.7 49.52a.7.7 0 01.19.47.67.67 0 01-.19.47L71 57.18a.67.67 0 01-.49.2zM31.37 16.64l39.14 39.13L76.29 50 37.15 10.86z"/><path class="cls-5" d="M33.42 20.29a.66.66 0 01-.42-1.13l3.57-3.57a.66.66 0 01.94.94l-3.62 3.57a.66.66 0 01-.47.19zm2.99 2.99a.67.67 0 01-.47-1.14l3.56-3.57a.68.68 0 01.94 0 .66.66 0 010 .95l-3.56 3.56a.67.67 0 01-.47.2zm5.97 5.97a.66.66 0 01-.47-1.13l3.57-3.57a.66.66 0 11.94.94l-3.57 3.57a.66.66 0 01-.47.19zm2.99 2.99a.67.67 0 01-.47-1.14L50 26a.66.66 0 11.94.94L45.84 32a.67.67 0 01-.47.24zM60.3 47.17a.66.66 0 01-.47-1.17l5.06-5a.66.66 0 01.94.94L60.77 47a.66.66 0 01-.47.17zm-20.91-20.9a.67.67 0 01-.47-1.14l3.57-3.57a.66.66 0 01.94.94l-3.57 3.57a.67.67 0 01-.47.2zm8.96 8.96a.67.67 0 01-.47-1.14l3.57-3.57a.66.66 0 01.94.94L48.82 35a.65.65 0 01-.47.23zm2.99 2.98a.66.66 0 01-.47-1.13l3.57-3.57a.66.66 0 01.94.94L51.81 38a.66.66 0 01-.47.21zm5.98 5.98a.65.65 0 01-.47-.2.66.66 0 010-.94l3.56-3.57a.66.66 0 01.94.94L57.79 44a.67.67 0 01-.47.19zm-2.99-2.99a.66.66 0 01-.47-.19.68.68 0 010-.95l3.57-3.56a.66.66 0 01.94.94L54.8 41a.66.66 0 01-.47.2zm16.99 10.48a2 2 0 01-1.41-3.41 2 2 0 012.82 0 2 2 0 01.58 1.41 1.94 1.94 0 01-.58 1.41 2 2 0 01-1.41.59zm0-2.66a.66.66 0 00-.47 1.13.67.67 0 00.94 0 .67.67 0 00.19-.47.68.68 0 00-.19-.47.7.7 0 00-.47-.21z"/><path class="cls-6" d="M75.5 75.55a4.64 4.64 0 01-4.61 4.5h-4.75a.66.66 0 00-.67.66v34.17H26.55A2.52 2.52 0 0124 112.3a4.62 4.62 0 014.62-4.61h4.75a.66.66 0 00.67-.66V73.2H73a2.47 2.47 0 012.5 2.35z"/><path class="cls-6" d="M32.75 65.45v40.91h-4.09a4.58 4.58 0 00-.53 0H28l-.52.08a3.59 3.59 0 00-.47.12l-.14.05a1.64 1.64 0 00-.39.14 3.79 3.79 0 00-.78.39 1.43 1.43 0 00-.27.15l-.23.16-.3.23a6.29 6.29 0 00-.47.43 4.89 4.89 0 00-.37.41V70.07a4.62 4.62 0 014.62-4.62zm42.76 13.7v38.52a4.62 4.62 0 01-4.62 4.61H66.8v-40.9h4.09a4.71 4.71 0 00.53 0 4.41 4.41 0 00.54-.07l.28-.06.38-.1c.17-.06.33-.11.49-.18h.08a4.66 4.66 0 00.45-.22 5.72 5.72 0 001.77-1.43.52.52 0 00.1-.17z"/><path class="cls-5" d="M66.14 116.21H26.55a3.83 3.83 0 01-3.84-3.82 6 6 0 015.95-6h4.09V72.53a.65.65 0 01.66-.66H73a3.8 3.8 0 013.82 3.68 6 6 0 01-5.94 5.83H66.8v34.17a.65.65 0 01-.66.66zm-37.48-8.52A4.62 4.62 0 0024 112.3a2.53 2.53 0 002.51 2.58h38.96V80.71a.67.67 0 01.67-.66h4.75a4.64 4.64 0 004.61-4.49A2.47 2.47 0 0073 73.2H34.08V107a.67.67 0 01-.67.66z"/><path class="cls-5" d="M23.38 113a.66.66 0 01-.67-.66V70.07a6 6 0 015.95-5.95h4.75a.67.67 0 01.67.67V107a.67.67 0 01-.67.66h-4.75A4.62 4.62 0 0024 112.3a.65.65 0 01-.62.7zm5.28-47.51A4.62 4.62 0 0024 70.07v38.49a6 6 0 014.62-2.2h4.09V65.45zm42.23 58.12h-4.75a.67.67 0 01-.67-.67V80.71a.67.67 0 01.67-.66h4.75a4.64 4.64 0 004.61-4.49.67.67 0 01.59-.65.68.68 0 01.72.5 1.13 1.13 0 010 .29v42a6 6 0 01-5.92 5.91zm-4.09-1.33h4.09a4.62 4.62 0 004.62-4.61V79.16a6 6 0 01-4.62 2.22H66.8zM49.2 93a2.91 2.91 0 112.91-2.91A2.91 2.91 0 0149.2 93zm0-4.49a1.58 1.58 0 101.58 1.58 1.58 1.58 0 00-1.58-1.55z"/><path class="cls-5" d="M45.08 99.83a2.2 2.2 0 01-1.08-.29 2.17 2.17 0 01-1-1.32 2.12 2.12 0 01.22-1.65l.69-1.21a.85.85 0 00-.1-1A7 7 0 0143 93a.85.85 0 00-.77-.52h-1.5a2.18 2.18 0 110-4.35H42a.88.88 0 00.8-.57 6.81 6.81 0 01.81-1.5.85.85 0 00.07-.93L43 84a2.18 2.18 0 01.79-3 2.25 2.25 0 013 .8l.62 1.07a.86.86 0 00.86.41 6.62 6.62 0 011.72 0 .87.87 0 00.87-.41l.67-1.16a2.23 2.23 0 013-.79 2.17 2.17 0 01.79 3L54.63 85a.87.87 0 00.08 1 6.3 6.3 0 01.81 1.4.86.86 0 00.79.54h1.45a2.18 2.18 0 010 4.36h-1.45a.86.86 0 00-.79.55 7.35 7.35 0 01-.74 1.31.85.85 0 00-.08 1l.78 1.35a2.18 2.18 0 01-.8 3 2.23 2.23 0 01-3-.79L51 97.35a.86.86 0 00-.87-.4 6.74 6.74 0 01-1.49 0h-.09a.85.85 0 00-.77.41L47 98.74a2.17 2.17 0 01-1.92 1.09zm-4.35-10.34a.85.85 0 100 1.69h1.46a2.2 2.2 0 012 1.28 5.85 5.85 0 00.68 1.09A2.2 2.2 0 0145 96l-.69 1.21a.81.81 0 00-.09.64.87.87 0 00.4.52.88.88 0 00.42.11.84.84 0 00.73-.42l.78-1.35a2.21 2.21 0 012.14-1.07 6 6 0 001.2 0 2.21 2.21 0 012.19 1.06l.78 1.3a.87.87 0 001.16.31.86.86 0 00.31-1.16l-.78-1.34a2.21 2.21 0 01.15-2.4 5.26 5.26 0 00.6-1.06 2.2 2.2 0 012-1.35h1.45a.85.85 0 000-1.7h-1.44a2.2 2.2 0 01-2-1.35 5.38 5.38 0 00-.66-1.13 2.2 2.2 0 01-.16-2.42l.66-1.15a.89.89 0 00.09-.64.82.82 0 00-.4-.51.87.87 0 00-1.16.31L52 83.53a2.18 2.18 0 01-2.17 1.07 5.88 5.88 0 00-1.39 0 2.21 2.21 0 01-2.2-1.06l-.61-1.06a.87.87 0 00-1.16-.31.85.85 0 00-.31 1.15l.67 1.16a2.19 2.19 0 01-.14 2.38 5.69 5.69 0 00-.69 1.22 2.18 2.18 0 01-2 1.41z"/><path class="cls-5" d="M59.4 103.61H39.23a.66.66 0 01-.66-.66v-8.06a.66.66 0 01.66-.67.67.67 0 01.67.67v7.39h18.83v-7.41a.67.67 0 111.33 0V103a.67.67 0 01-.66.61z"/><path class="cls-5" d="M37.69 105.43a.72.72 0 01-.44-.16.67.67 0 01-.07-.94l3.09-3.63a.67.67 0 011 .86l-3.1 3.63a.65.65 0 01-.48.24zm20.16 0a.69.69 0 01-.43-.16.68.68 0 01-.08-.94l3.1-3.63a.66.66 0 011 .86l-3.09 3.63a.65.65 0 01-.5.24z"/></g></g></svg>