<svg xmlns="http://www.w3.org/2000/svg" viewBox="0 0 38.24 39.42"><defs><style>.cls-1{fill:#c9c8c7}</style></defs><g id="Слой_2" data-name="Слой 2"><g id="Слой_1-2" data-name="Слой 1"><path class="cls-1" d="M38.24 24.26a15.16 15.16 0 11-27.64-8.59.49.49 0 11.81.54 14.19 14.19 0 103.8-3.75l.77.92-3.37.62 1.16-3.2.79.94a15.15 15.15 0 0123.68 12.52z"/><path class="cls-1" d="M23.08 36.48a12.22 12.22 0 10-12.22-12.22 12.24 12.24 0 0012.22 12.22zm0-23.46a11.25 11.25 0 11-11.24 11.24A11.25 11.25 0 0123.08 13z"/><path class="cls-1" d="M23.08 15a.49.49 0 00.49-.49V14a.48.48 0 00-.49-.48.47.47 0 00-.48.48v.49a.48.48 0 00.48.51zm0 18.55a.48.48 0 00-.48.49v.49a.48.48 0 00.48.49.49.49 0 00.49-.49V34a.49.49 0 00-.49-.45zm9.78-8.8h.49a.49.49 0 000-1h-.49a.49.49 0 000 1zm-20.04 0h.49a.49.49 0 100-1h-.49a.49.49 0 100 1zM30 17.84a.49.49 0 00.34-.15l.35-.34a.49.49 0 000-.69.48.48 0 00-.69 0l-.35.34a.49.49 0 000 .69.53.53 0 00.35.15zM15.82 32a.5.5 0 00.35-.14l.35-.35a.49.49 0 000-.69.5.5 0 00-.7 0l-.34.35a.49.49 0 000 .69.49.49 0 00.34.14zm14.52-1.17a.49.49 0 10-.69.69l.35.35a.49.49 0 00.69-.69zM15.82 17.69a.5.5 0 00.7 0 .49.49 0 000-.69l-.35-.34a.48.48 0 00-.69 0 .49.49 0 000 .69zm.04 8.17L20.05 30a.47.47 0 00.69 0l9.57-9.56a.49.49 0 000-.69l-1-1a.49.49 0 00-.69 0l-8.22 8.18-2.81-2.8a.49.49 0 00-.69 0l-1 1a.49.49 0 000 .69zm1.39-.69l2.8 2.8a.49.49 0 00.69 0l8.18-8.18.35.35L20.4 29l-3.5-3.5z"/><text transform="translate(.5 27.31)" font-size="31.34" fill="#fff" stroke="#ff9300" stroke-miterlimit="10" font-family="RobotoCondensed-Bold,Roboto Condensed" font-weight="700">1</text></g></g></svg>