<svg xmlns="http://www.w3.org/2000/svg" viewBox="0 0 39.3 39.42"><defs><style>.cls-1{fill:#c9c8c7}</style></defs><g id="Слой_2" data-name="Слой 2"><g id="Слой_1-2" data-name="Слой 1"><path class="cls-1" d="M19.26 27.68h-2a.49.49 0 00-.49.49v2a.49.49 0 00.49.49h2a.49.49 0 00.49-.49v-2a.49.49 0 00-.49-.49zm-.49 2h-1v-1h1zm-2.93-2h-2a.49.49 0 00-.49.49v2a.49.49 0 00.49.49h2a.49.49 0 00.49-.49v-2a.49.49 0 00-.49-.49zm-.49 2h-1v-1h1zm3.91 1.43h-2a.48.48 0 00-.49.48v2a.49.49 0 00.49.49h2a.49.49 0 00.49-.49v-2a.48.48 0 00-.49-.48zm-.49 2h-1v-1h1zm-2.93-2h-2a.48.48 0 00-.49.48v2a.49.49 0 00.49.49h2a.49.49 0 00.49-.49v-2a.48.48 0 00-.49-.48zm-.49 2h-1v-1h1zm3.91 1.42h-2a.49.49 0 00-.49.49V37a.49.49 0 00.49.49h2a.49.49 0 00.49-.49v-2a.49.49 0 00-.49-.47zm-.49 1.95h-1v-1h1zm-2.93-1.95h-2a.49.49 0 00-.49.49V37a.49.49 0 00.49.49h2a.49.49 0 00.49-.49v-2a.49.49 0 00-.49-.47zm-.49 1.95h-1v-1h1zm7.33-8.8h-1.95a.49.49 0 00-.49.49v5.38a.49.49 0 00.49.49h1.95a.49.49 0 00.49-.49v-5.38a.49.49 0 00-.49-.49zm-.49 5.38h-1v-4.4h1zm.49-10.27h-8.8a.49.49 0 00-.49.49v2.94a.49.49 0 00.49.49h8.8a.49.49 0 00.49-.49v-2.94a.49.49 0 00-.49-.49zm-.49 2.94h-7.82v-2h7.82z"/><path class="cls-1" d="M39.16 12.18l-2.93-2.93a.51.51 0 00-.35-.15H19.26a.49.49 0 00-.49.49v11.25h-5.13a1.7 1.7 0 00-1.71 1.71v15.16a1.71 1.71 0 001.71 1.71h9.29a1.72 1.72 0 001.71-1.71v-2.2h14.18a.48.48 0 00.48-.51V12.53a.5.5 0 00-.14-.35zm-2.79-1.41L37.64 12h-1.27zM23.66 37.71a.73.73 0 01-.73.73h-9.29a.74.74 0 01-.74-.73V22.55a.73.73 0 01.74-.73h9.29a.73.73 0 01.73.73zm14.67-3.18H24.64v-12a1.71 1.71 0 00-1.71-1.71h-3.18V10.08h15.64v2.45a.49.49 0 00.49.49h2.45z"/><path class="cls-1" d="M36.37 14H21.7a.49.49 0 000 1h14.67a.49.49 0 100-1zm0 1.46H21.7a.49.49 0 000 1h14.67a.49.49 0 100-1zm-2.44 1.96a.49.49 0 00-.49-.49H21.7a.48.48 0 00-.48.49.47.47 0 00.48.48h11.74a.48.48 0 00.49-.48zm1.46.48a.48.48 0 00.49-.48.49.49 0 00-.49-.49h-.49a.48.48 0 00-.48.49.47.47 0 00.48.48zm.98 2.94h-9.78a.49.49 0 100 1h9.78a.49.49 0 100-1zm0 1.46h-9.78a.49.49 0 000 1h9.78a.49.49 0 100-1zm-9.78 2.45h6.85a.49.49 0 100-1h-6.85a.49.49 0 000 1zm8.8 0a.49.49 0 100-1h-.49a.49.49 0 000 1zm.98 2.93h-9.78a.49.49 0 000 1h9.78a.49.49 0 100-1zm0 1.47h-9.78a.49.49 0 000 1h9.78a.49.49 0 100-1zm-2.93 1.47h-6.85a.49.49 0 00-.49.49.48.48 0 00.49.48h6.85a.48.48 0 00.49-.48.49.49 0 00-.49-.49zm1.95 0h-.49a.48.48 0 00-.48.49.47.47 0 00.48.48h.49a.48.48 0 00.49-.48.49.49 0 00-.49-.49z"/><text transform="translate(.5 27.31)" font-size="31.34" fill="#fff" stroke="#ff9300" stroke-miterlimit="10" font-family="RobotoCondensed-Bold,Roboto Condensed" font-weight="700">2</text></g></g></svg>