<svg xmlns="http://www.w3.org/2000/svg" viewBox="0 0 38.11 39.91"><g data-name="Слой 2"><g data-name="Слой 1"><path d="M10 39.91a.47.47 0 01-.46-.46v-1.78a.46.46 0 01.46-.46.45.45 0 01.46.46V39h12.68a2 2 0 01-.29-1V23.49a1.95 1.95 0 011.94-1.94h2.69v-8.62a.46.46 0 11.91 0v8.62h7.78a1.95 1.95 0 011.94 1.94V38a1.95 1.95 0 01-1.94 1.94zm15-4.56h2.44a.46.46 0 01.46.45v1.81a.47.47 0 01-.46.46H25a.47.47 0 01-.46-.46V35.8a.46.46 0 01.46-.45zm2 .91h-1.5v.89H27v-.89zm6.46-.91h2.44a.45.45 0 01.45.45v1.81a.46.46 0 01-.45.46h-2.42a.46.46 0 01-.46-.46V35.8a.45.45 0 01.46-.45zm2 .91h-1.52v.89h1.52zm-6.2-.91h2.44a.45.45 0 01.45.45v1.81a.46.46 0 01-.45.46h-2.44a.46.46 0 01-.46-.46V35.8a.45.45 0 01.46-.45zm2 .91h-1.54v.89h1.52zM25 31.76h2.44a.46.46 0 01.46.46V34a.46.46 0 01-.46.46H25a.46.46 0 01-.46-.46v-1.8a.46.46 0 01.46-.44zm2 .92h-1.5v.89H27v-.89zm6.46-.92h2.44a.45.45 0 01.45.46V34a.45.45 0 01-.45.46h-2.42A.45.45 0 0133 34v-1.8a.45.45 0 01.48-.44zm2 .92h-1.52v.89h1.52zm-6.2-.92h2.44a.45.45 0 01.45.46V34a.45.45 0 01-.45.46h-2.44a.45.45 0 01-.46-.46v-1.8a.45.45 0 01.46-.44zm2 .92h-1.54v.89h1.52zM25 28.17h2.44a.47.47 0 01.46.46v1.81a.47.47 0 01-.46.46H25a.47.47 0 01-.46-.46v-1.81a.47.47 0 01.46-.46zm2 .92h-1.5V30H27v-.89zm6.46-.92h2.44a.46.46 0 01.45.46v1.81a.46.46 0 01-.45.46h-2.42a.46.46 0 01-.46-.46v-1.81a.46.46 0 01.46-.46zm2 .92h-1.52V30h1.52zm-6.2-.92h2.44a.46.46 0 01.45.46v1.81a.46.46 0 01-.45.46h-2.44a.46.46 0 01-.46-.46v-1.81a.46.46 0 01.46-.46zm2 .92h-1.54V30h1.52zm-1.8-2.7a.47.47 0 01.46.46.46.46 0 01-.46.46H25a.46.46 0 01-.46-.46v-3a.47.47 0 01.46-.46h10.92a.46.46 0 01.45.46v3a.45.45 0 01-.45.46h-4.4a.45.45 0 01-.46-.46.46.46 0 01.46-.46h3.94v-2.12h-10v2.12zm-12 8.5a.46.46 0 110-.91h3.8a.46.46 0 110 .91zm0-4.15a.46.46 0 010-.92h3.8a.46.46 0 110 .92zm0-4.15a.46.46 0 010-.92h3.8a.46.46 0 110 .92zm0-4.16a.46.46 0 110-.91h3.8a.46.46 0 110 .91zM12 34.76a.46.46 0 010-.65.45.45 0 01.64 0l.66.65 1.63-1.63a.46.46 0 11.65.65l-2 2a.46.46 0 01-.65 0zm0-4.16a.45.45 0 11.64-.64l.66.65L14.9 29a.46.46 0 11.65.65l-2 1.95a.46.46 0 01-.65 0zm0-4.15a.46.46 0 010-.65.47.47 0 01.64 0l.66.66 1.63-1.63a.46.46 0 01.65 0 .45.45 0 010 .64l-2 2a.46.46 0 01-.65 0zm0-4.15a.46.46 0 010-.65.45.45 0 01.64 0l.66.66 1.63-1.64a.46.46 0 11.65.65l-2 2a.46.46 0 01-.65 0zm8.87-11a3.27 3.27 0 012.32 1 3.28 3.28 0 010 4.64 3.27 3.27 0 01-2.32 1 3.21 3.21 0 01-1.88-.6 2.76 2.76 0 01-.72.38 3.19 3.19 0 01-1.16.22 3.28 3.28 0 010-6.56 3.14 3.14 0 011.15.22 2.82 2.82 0 01.73.38 3.21 3.21 0 011.85-.73zm-2.56 5.32a3.29 3.29 0 010-4.08l-.37-.17a2.23 2.23 0 00-.83-.15 2.36 2.36 0 00-1.67 4 2.35 2.35 0 001.67.69 2.32 2.32 0 00.84-.15zm4.23-3.71a2.37 2.37 0 00-1.67-.69 2.35 2.35 0 00-1.66 4 2.31 2.31 0 001.66.69 2.36 2.36 0 001.67-4zM24.79 39h11.38a1 1 0 001-1V23.49a1 1 0 00-.3-.72 1 1 0 00-.72-.3H24.79a1 1 0 00-.72.3 1 1 0 00-.31.72V38a1 1 0 00.31.72 1 1 0 00.72.28zm-14.34-3.4a.45.45 0 01-.46.46.47.47 0 01-.46-.46V9.07a.46.46 0 01.47-.45h17.93a.45.45 0 01.46.45v1.78a.46.46 0 11-.91 0V9.53h-17z" fill="#c9c8c7"/><text transform="translate(.5 27.31)" font-size="31.34" fill="#fff" stroke="#ff9300" stroke-miterlimit="10" font-family="RobotoCondensed-Bold,Roboto Condensed" font-weight="700">3</text></g></g></svg>