<svg xmlns="http://www.w3.org/2000/svg" viewBox="0 0 36.83 44.64"><defs><style>.cls-1{fill:#c9c8c7}</style></defs><g id="Слой_2" data-name="Слой 2"><g id="Слой_1-2" data-name="Слой 1"><path class="cls-1" d="M33.9 35.84h-1.47V35a2.92 2.92 0 001.47-2.54V30a3 3 0 00-.85-2A2.91 2.91 0 0031 27V16.78a.49.49 0 00-.49-.49h-7.96a6.82 6.82 0 00-4.79-2 .49.49 0 00-.49.49v1.47h-.49a.48.48 0 00-.49-.49 6.63 6.63 0 00-2.53.49h-1.87a.48.48 0 00-.48.49v1.08a6.83 6.83 0 000 9.57v16.77a.47.47 0 00.48.48h24.45a.48.48 0 00.49-.48v-5.38a2.94 2.94 0 00-2.93-2.94zm-1-3.42a2 2 0 11-3.91 0V31h.38a9.05 9.05 0 003.53-.78zm-1.47 2.89v1a.49.49 0 11-1 0v-1a2.69 2.69 0 001.02 0zM31 28a2 2 0 011.78 1.18 9.14 9.14 0 01-2.86.78A6.31 6.31 0 0129 30a2 2 0 012-2zM18.25 15.33a5.88 5.88 0 015.36 5.36h-5.36zm-7.82 7.31a5.86 5.86 0 015.38-5.84v5.84a.48.48 0 00.48.49h5.85a5.87 5.87 0 01-11.71-.49zM25.1 38.78v4.89H12.38V28.26a6.84 6.84 0 0010.76-5.62.49.49 0 00-.49-.49h-5.87v-4.88h.49v3.91a.49.49 0 00.49.49h6.36a.49.49 0 00.49-.49 6.82 6.82 0 00-1.23-3.91H30v9.94A2.94 2.94 0 0028 30v2.44A2.92 2.92 0 0029.5 35v.88H28a2.94 2.94 0 00-2.9 2.9zm10.75 4.89h-1v-4.4a.49.49 0 00-.49-.49.48.48 0 00-.48.49v4.4H28v-4.4a.49.49 0 00-1 0v4.4h-1v-4.89a2 2 0 012-2h1.55a1.46 1.46 0 001.87.9 1.45 1.45 0 00.89-.9h1.59a2 2 0 012 2z"/><path class="cls-1" d="M16.29 37.31h-1.95a.49.49 0 00-.49.49v4.4a.49.49 0 00.49.49h1.95a.48.48 0 00.49-.49v-4.4a.48.48 0 00-.49-.49zm-.48 4.4h-1v-3.42h1zm3.91-5.87h-2a.49.49 0 00-.49.49v5.87a.49.49 0 00.49.49h2a.49.49 0 00.49-.49v-5.87a.49.49 0 00-.49-.49zm-.49 5.87h-1v-4.89h1zm3.91-7.33h-2a.48.48 0 00-.48.49v7.33a.48.48 0 00.48.49h2a.49.49 0 00.49-.49v-7.33a.49.49 0 00-.49-.49zm-.49 7.33h-1v-6.35h1zm2.85-12.5a.49.49 0 00-.68-.12L20.7 32v-1.5a.49.49 0 00-.49-.49.48.48 0 00-.26.07L13.59 34a.49.49 0 00.51.84l5.61-3.45v1.57a.49.49 0 00.77.4l4.89-3.42a.49.49 0 00.12-.68z"/><text transform="translate(.5 27.31)" font-size="31.34" fill="#fff" stroke="#ff9300" stroke-miterlimit="10" font-family="RobotoCondensed-Bold,Roboto Condensed" font-weight="700">4</text></g></g></svg>