<svg xmlns="http://www.w3.org/2000/svg" viewBox="0 0 40.83 41.22"><defs><style>.cls-1{fill:#c9c8c7}</style></defs><g id="Слой_2" data-name="Слой 2"><g id="Слой_1-2" data-name="Слой 1"><path class="cls-1" d="M36.43 31.44h-2a.49.49 0 100 1h2a.49.49 0 000-1z"/><path class="cls-1" d="M40.34 26.55h-2a1.47 1.47 0 00-.89-1.87 1.67 1.67 0 00-.49-.08h-.09a1.5 1.5 0 000-1h.57a.49.49 0 00.49-.49v-1.93a.49.49 0 00-.49-.49h-5.9a1.46 1.46 0 00-1.47 1.46 1.33 1.33 0 00.09.49h-.58a.49.49 0 00-.49.49v2a.49.49 0 00.49.49h1v1H24.1l-.25-1h2.55a1.23 1.23 0 001.23-1.23V19a1.23 1.23 0 00-1.23-1.23h-9.28A1.23 1.23 0 0015.89 19v5.37a1.23 1.23 0 001.23 1.23h2.55l-.25 1h-5v-2.49a.49.49 0 00-.49-.49H12a.49.49 0 00-.49.49v2.44H11a.49.49 0 00-.49.49v13.69a.49.49 0 00.49.49h1.47a.49.49 0 00.49-.49V30.47h17.11v10.26a.49.49 0 00.49.49h9.78a.49.49 0 00.49-.49V27a.49.49 0 00-.49-.45zm-3.42-1a.48.48 0 01.48.49.47.47 0 01-.48.48h-5.38v-1zm-5.38-3.92h5.38v1h-5.38a.49.49 0 010-1zm-1.47 2.97v-1h5.38a.49.49 0 010 1zM16.87 19a.25.25 0 01.25-.25h9.28a.25.25 0 01.25.25v4.15h-9.78zm.25 5.62a.25.25 0 01-.25-.25v-.24h9.78v.24a.25.25 0 01-.25.25zm6 1.95h-2.69l.24-1h2.17zM12.47 24.6h1v1.95h-1zM12 40.24h-.49v-9.77H12zm19.56 0h-.49v-9.77h.49zm6.84 0h-5.88v-9.77h5.86zm1.47 0h-.49v-9.77h.49zm0-10.75H11.49v-2h28.36z"/><text transform="translate(.5 27.31)" font-size="31.34" fill="#fff" stroke="#ff9300" stroke-miterlimit="10" font-family="RobotoCondensed-Bold,Roboto Condensed" font-weight="700">5</text></g></g></svg>