<svg xmlns="http://www.w3.org/2000/svg" viewBox="0 0 37.57 44.64"><g data-name="Слой 2"><g data-name="Слой 1"><path d="M19 30h-1.48v-.89A2.92 2.92 0 0019 26.55v-2.48a3 3 0 00-.86-2 2.86 2.86 0 00-2.08-.89 2.93 2.93 0 00-2.93 2.93v2.44a2.92 2.92 0 001.47 2.54V30h-1.48a2.93 2.93 0 00-2.93 2.93v4.4a.49.49 0 00.49.49h10.75a.49.49 0 00.49-.49v-4.4A2.93 2.93 0 0019 30zm-4.9-5.89a2 2 0 012-2 2 2 0 011.78 1.19 8.8 8.8 0 01-2.86.77 6.31 6.31 0 01-.87 0zm0 2.44v-1.46h.39a9 9 0 003.51-.77v2.23a2 2 0 11-3.91 0zm2.44 2.9v1a.48.48 0 01-.49.48.47.47 0 01-.48-.48v-1a3.16 3.16 0 00.97 0zm4.4 7.37H20V33.4a.49.49 0 00-1 0v3.42h-5.88V33.4a.49.49 0 00-1 0v3.42h-1v-3.91a2 2 0 011.95-2h1.55a1.46 1.46 0 001.87.9 1.49 1.49 0 00.9-.9H19a2 2 0 012 2zM32.19 20.2h4.89a.49.49 0 00.49-.49v-4.89a.49.49 0 00-.49-.49h-4.89a.49.49 0 00-.49.49v2h-3.42a.49.49 0 00-.49.49V29h-5.38a.49.49 0 100 1h5.38v11.71a.49.49 0 00.49.49h3.42v2a.48.48 0 00.49.48h4.89a.48.48 0 00.49-.48v-4.93a.49.49 0 00-.49-.49h-4.89a.49.49 0 00-.49.49v1.95h-2.93V30h2.93v1.95a.49.49 0 00.49.49h4.89a.49.49 0 00.49-.49V27a.49.49 0 00-.49-.49h-4.89a.49.49 0 00-.49.49v2h-2.93V17.75h2.93v2a.49.49 0 00.49.45zm.49 19.56h3.91v3.91h-3.91zm0-12.23h3.91v3.91h-3.91zm0-12.22h3.91v3.91h-3.91z" fill="#c9c8c7"/><text transform="translate(.5 27.31)" font-size="31.34" fill="#fff" stroke="#ff9300" stroke-miterlimit="10" font-family="RobotoCondensed-Bold,Roboto Condensed" font-weight="700">6</text></g></g></svg>