<svg xmlns="http://www.w3.org/2000/svg" viewBox="0 0 29.91 34.11"><defs><style>.cls-1{fill:#ff9300;}</style></defs><g id="Слой_2" data-name="Слой 2"><g id="Слой_1-2" data-name="Слой 1"><path class="cls-1" d="M28.69,26.83a6,6,0,0,0-4.05-4.74L19.9,20.51v-.7H18.8v1L18,24.12l-2.22-2.66H14.15l-2.23,2.66-.82-3.28v-1H10v.7L5.27,22.09a6,6,0,0,0-4.06,4.74L0,34.11H29.91ZM5.1,33H1.3L1.48,32l3.68.46Zm7.18,0H6.21l.49-4.9L5.6,28l-.33,3.31-3.61-.45L2.3,27a4.93,4.93,0,0,1,3.32-3.88l4.54-1.51,1.22,4.87L12.62,25l.66,1Zm4.24,0H13.39l1-7.28-1.07-1.61,1.3-1.56h.59l1.3,1.56-1.07,1.61Zm7.78-5-1.09.11L23.7,33H17.63l-1-7,.65-1,1.25,1.49,1.21-4.87,4.55,1.51A4.93,4.93,0,0,1,27.61,27l.64,3.85-3.62.45Zm.5,5-.06-.6L28.43,32,28.61,33Z"/><path class="cls-1" d="M6.23,10.38A2.69,2.69,0,0,0,5.6,12.1,2.74,2.74,0,0,0,8,14.82,6.08,6.08,0,0,0,9.57,17.4l2.15,2.15a2.73,2.73,0,0,0,1.94.81h2.58a2.74,2.74,0,0,0,2-.81l2.14-2.15a6,6,0,0,0,1.53-2.58,2.71,2.71,0,0,0,1.82-4.44,1.65,1.65,0,0,0-.47-3.23h-.08a8.29,8.29,0,0,0-6-6.84V0h-4.4V.31a8.29,8.29,0,0,0-6,6.84H6.7a1.65,1.65,0,0,0-.47,3.23ZM6.7,12.1a1.66,1.66,0,0,1,1.1-1.55v2.58a4.71,4.71,0,0,0,0,.53A1.65,1.65,0,0,1,6.7,12.1Zm14.3,1a4.87,4.87,0,0,1-1.45,3.5l-2.14,2.14a1.66,1.66,0,0,1-1.17.49H13.66a1.64,1.64,0,0,1-1.16-.49l-2.15-2.14a5,5,0,0,1-1.45-3.5V10.45H21Zm1.08.53c0-.18,0-.35,0-.53V10.55a1.67,1.67,0,0,1,1.1,1.55A1.65,1.65,0,0,1,22.08,13.66ZM12.75,1.46V6.05h1.1V1.1h2.2V6.05h1.1V1.46A7.17,7.17,0,0,1,22,7.15H7.89A7.16,7.16,0,0,1,12.75,1.46Zm-6,6.79H23.21a.55.55,0,0,1,.55.55.55.55,0,0,1-.55.55H6.7a.55.55,0,0,1-.55-.55A.55.55,0,0,1,6.7,8.25Z"/><rect class="cls-1" x="18.25" y="4.95" width="1.1" height="1.1"/><rect class="cls-1" x="10.55" y="4.95" width="1.1" height="1.1"/></g></g></svg>