<svg xmlns="http://www.w3.org/2000/svg" viewBox="0 0 32.22 33.91"><defs><style>.cls-1{fill:#ff9300;}</style></defs><g id="Слой_2" data-name="Слой 2"><g id="Слой_1-2" data-name="Слой 1"><path class="cls-1" d="M11.54,21.09h-2A1.12,1.12,0,0,1,8.43,20V18.86a.16.16,0,0,0-.12-.14,8.29,8.29,0,0,1-2-.82.13.13,0,0,0-.17,0l-.79.79a1.11,1.11,0,0,1-.79.33,1.14,1.14,0,0,1-.8-.33L2.39,17.3a1.07,1.07,0,0,1-.33-.79,1.09,1.09,0,0,1,.33-.8l.79-.79a.12.12,0,0,0,0-.16,9,9,0,0,1-.82-2,.15.15,0,0,0-.14-.12H1.12A1.12,1.12,0,0,1,0,11.54v-2A1.12,1.12,0,0,1,1.12,8.43H2.23a.15.15,0,0,0,.14-.12,8.72,8.72,0,0,1,.82-2,.13.13,0,0,0,0-.17l-.79-.79a1.07,1.07,0,0,1-.33-.79,1.09,1.09,0,0,1,.33-.8l1.4-1.4a1.09,1.09,0,0,1,.8-.33,1.07,1.07,0,0,1,.79.33l.79.79a.13.13,0,0,0,.17,0,8.72,8.72,0,0,1,2-.82.15.15,0,0,0,.12-.14V1.12A1.12,1.12,0,0,1,9.55,0h2a1.12,1.12,0,0,1,1.12,1.12V2.23a.15.15,0,0,0,.12.14,9,9,0,0,1,2,.82.12.12,0,0,0,.16,0l.79-.79a1.12,1.12,0,0,1,1.59,0l.15.14a.5.5,0,0,1-.7.71c-.09-.08-.21-.27-.33-.15l-.8.79a1.13,1.13,0,0,1-1.36.18,7.38,7.38,0,0,0-1.74-.73,1.14,1.14,0,0,1-.85-1.1V1.12A.13.13,0,0,0,11.54,1h-2a.13.13,0,0,0-.13.13V2.23a1.15,1.15,0,0,1-.84,1.1,7.45,7.45,0,0,0-1.75.73,1.14,1.14,0,0,1-1.36-.18l-.79-.79a.14.14,0,0,0-.09,0,.12.12,0,0,0-.09,0L3.09,4.5a.12.12,0,0,0,0,.09.14.14,0,0,0,0,.09l.79.79a1.14,1.14,0,0,1,.18,1.36,7.45,7.45,0,0,0-.73,1.75,1.15,1.15,0,0,1-1.1.84H1.12A.13.13,0,0,0,1,9.55v2a.13.13,0,0,0,.13.13H2.23a1.14,1.14,0,0,1,1.1.85,7.38,7.38,0,0,0,.73,1.74,1.13,1.13,0,0,1-.18,1.36l-.79.8a.12.12,0,0,0,0,.09.14.14,0,0,0,0,.09L4.5,18a.13.13,0,0,0,.18,0l.79-.8A1.13,1.13,0,0,1,6.83,17a7.42,7.42,0,0,0,1.75.72,1.16,1.16,0,0,1,.84,1.1V20a.13.13,0,0,0,.13.13h2a.13.13,0,0,0,.13-.13V18.86a1.15,1.15,0,0,1,.85-1.1.5.5,0,0,1,.26,1,.16.16,0,0,0-.12.14V20A1.12,1.12,0,0,1,11.54,21.09Z"/><path class="cls-1" d="M5.86,10.55a4.69,4.69,0,0,1,6.35-4.38.5.5,0,0,1-.35.93,3.69,3.69,0,1,0-1.09,7.13.5.5,0,0,1,.06,1A4.69,4.69,0,0,1,5.86,10.55Z"/><path class="cls-1" d="M27.49,22.06l-5-1V19.84A5.25,5.25,0,0,0,24.8,16a1.42,1.42,0,0,0,1.32-1.42v-1A1.36,1.36,0,0,0,25.89,11v-.39a6.42,6.42,0,0,0-6.42-6.42h-.54a6.41,6.41,0,0,0-6.41,6.42V11a1.35,1.35,0,0,0-.23,2.56v1A1.42,1.42,0,0,0,13.6,16a5.26,5.26,0,0,0,1.76,3.42c.19.16.39.31.59.45v1.24l-5,1c-2.65.52-4.72,2-4.72,4.78v5.05a2,2,0,0,0,2,2h22a2,2,0,0,0,2-2V26.84C32.22,24.08,30.16,22.58,27.49,22.06Zm-4.13.21-1.51,2.19a.73.73,0,0,1-.85.29l-.78-.47a4.76,4.76,0,0,0,2.14-2.2ZM19.2,23.7c-.75-.38-2.26-1.32-2.26-2.2h0v-1.1a5.72,5.72,0,0,0,4.52,0v1.1C21.46,22.38,20,23.32,19.2,23.7ZM13.51,10.58a5.44,5.44,0,0,1,2.8-4.75v.63a.5.5,0,0,0,1,0v-1a5.49,5.49,0,0,1,1.41-.25V7.62a.5.5,0,0,0,1,0V5.16a5.33,5.33,0,0,1,1.4.25v1a.5.5,0,0,0,1,0V5.83a5.45,5.45,0,0,1,2.79,4.75v.36H13.51Zm-.69,1.35H25.58a.36.36,0,0,1,0,.72H12.82A.36.36,0,0,1,12.82,11.93Zm1.74,3.54a.48.48,0,0,0-.49-.48c-.09,0-.79.12-.79-.44v-.91H25.12v.91c0,.56-.72.42-.78.44a.5.5,0,0,0-.5.48,4.25,4.25,0,0,1-1.45,3.17,4.77,4.77,0,0,1-6.38,0A4.33,4.33,0,0,1,14.56,15.47ZM16,22.08a4.73,4.73,0,0,0,2.15,2.2c-.79.42-.73.55-1.09.51a.79.79,0,0,1-.55-.34l-1.5-2.18ZM10.31,32.92H8.21a1,1,0,0,1-1-1V26.84a3.33,3.33,0,0,1,2.16-3.23,20.37,20.37,0,0,1,1,6.19Zm8.4,0H11.3V29.8a21.1,21.1,0,0,0-1-6.56A34.64,34.64,0,0,1,14,22.48c1,1.49,2.94,4.27,4.07,5.87a3.56,3.56,0,0,1,.66,2.07Zm.49-4.58a4.65,4.65,0,0,0-.34-.56l-1.39-2a1.28,1.28,0,0,0,.44-.18l1.29-.77,1.29.77a1.28,1.28,0,0,0,.44.18c-.51.75-1,1.46-1.39,2A4.65,4.65,0,0,0,19.2,28.34Zm12,3.55a1,1,0,0,1-1,1h-2.1V31.05a.5.5,0,1,0-1,0v1.87H19.7v-2.5a3.63,3.63,0,0,1,.65-2.07c.65-.91,3.29-4.72,4.07-5.87a34.63,34.63,0,0,1,3.72.76,21.81,21.81,0,0,0-1,5.8.5.5,0,0,0,1,0,20,20,0,0,1,.95-5.47,3.32,3.32,0,0,1,2.16,3.23Z"/></g></g></svg>