<svg xmlns="http://www.w3.org/2000/svg" viewBox="0 0 53.09 53.21"><defs><style>.cls-1{fill:#686867}</style></defs><g id="Слой_2" data-name="Слой 2"><g id="Слой_1-2" data-name="Слой 1"><path class="cls-1" d="M14 22.51a7 7 0 01-1.14-.09.57.57 0 01-.4-.29.56.56 0 01-.05-.49l.11-.31a4.48 4.48 0 00-.67-4.19l-1.28 3.62a.59.59 0 01-.39.36.57.57 0 01-.48-.12 7.15 7.15 0 118.69 0 .57.57 0 01-.52.09.58.58 0 01-.39-.37l-1.27-3.61a4.45 4.45 0 00-.67 4.19l.11.31a.56.56 0 01-.05.49.61.61 0 01-.41.29 7 7 0 01-1.19.12zm-.25-1.18h.52A5.61 5.61 0 0116 15.65a.63.63 0 01.56-.15.57.57 0 01.43.35l1.3 3.69A5.85 5.85 0 0020 15.37a6 6 0 10-11.93 0 5.91 5.91 0 001.71 4.17l1.31-3.7a.59.59 0 011-.21 5.62 5.62 0 011.7 5.7z"/><path class="cls-1" d="M4 48.08H.59a.61.61 0 01-.48-.25.61.61 0 01-.11-.59l11.1-31.4a.59.59 0 011-.21 5.61 5.61 0 011.6 6.09l-.11.31-9 25.66a.59.59 0 01-.59.39zm-2.58-1.23h2.15l9-25.52a4.48 4.48 0 00-.67-4.19z"/><path class="cls-1" d="M2.28 53.21a.58.58 0 01-.56-.4L0 47.61a.55.55 0 01.09-.52.59.59 0 01.47-.25H4a.59.59 0 01.47.25.56.56 0 01.09.53l-1.7 5.19a.59.59 0 01-.58.4zM1.4 48l.88 2.71.89-2.71zm22.71.05a.55.55 0 01-.54-.36l-9.14-26A5.6 5.6 0 0116 15.65a.63.63 0 01.56-.15.57.57 0 01.43.35L28 47.12a.58.58 0 01-.5.91h-3.4zm.41-1.2h2.15L16.21 17.14a4.45 4.45 0 00-.67 4.19z"/><path class="cls-1" d="M25.82 53.21a.58.58 0 01-.56-.4l-1.7-5.19a.59.59 0 01.08-.53.61.61 0 01.48-.25h3.38a.61.61 0 01.48.25.57.57 0 01.08.52l-1.69 5.2a.57.57 0 01-.55.4zM24.93 48l.88 2.71.88-2.71zM15 9.41h-1.88a.59.59 0 01-.58-.5l-1-6.72V2.1A2.1 2.1 0 0113.63 0h.84a2.1 2.1 0 012.1 2.1.28.28 0 010 .09l-1 6.72a.58.58 0 01-.57.5zm-1.37-1.18h.84l.92-6.17a.92.92 0 00-.92-.88h-.84a.93.93 0 00-.93.88zM23.79 29.4H4.3a.58.58 0 01-.58-.59.59.59 0 01.58-.59h19.49a.59.59 0 01.59.59.58.58 0 01-.59.59z"/><path class="cls-1" d="M14.05 31.75a1.68 1.68 0 01-1.68-1.68v-2.85a1.68 1.68 0 013.36 0v2.85a1.68 1.68 0 01-1.68 1.68zm0-5a.51.51 0 00-.51.51v2.85a.51.51 0 00.51.51.5.5 0 00.5-.51v-2.89a.5.5 0 00-.5-.51zm20.32 16.76h-6.12a.58.58 0 01-.59-.58V2.73a.58.58 0 01.59-.59h6.12a.58.58 0 01.59.59v40.2a.58.58 0 01-.59.58zm-5.53-1.17h4.94v-39h-4.94z"/><path class="cls-1" d="M31.5 6h-3.25a.59.59 0 01-.59-.59.58.58 0 01.59-.59h3.25a.59.59 0 01.59.59.6.6 0 01-.59.59zm0 2.76h-3.25a.58.58 0 01-.59-.59.59.59 0 01.59-.59h3.25a.6.6 0 01.59.59.59.59 0 01-.59.59zm0 5.44h-3.25a.59.59 0 110-1.17h3.25a.59.59 0 110 1.17zm1.36 2.72h-4.61a.59.59 0 110-1.17h4.61a.59.59 0 110 1.17zm0 13.61h-4.61a.59.59 0 110-1.17h4.61a.59.59 0 110 1.17zM31.5 11.48h-3.25a.58.58 0 01-.59-.59.59.59 0 01.59-.59h3.25a.6.6 0 01.59.59.59.59 0 01-.59.59zm0 8.17h-3.25a.59.59 0 01-.59-.59.58.58 0 01.59-.59h3.25a.59.59 0 01.59.59.6.6 0 01-.59.59zm0 2.72h-3.25a.59.59 0 01-.59-.59.58.58 0 01.59-.59h3.25a.59.59 0 01.59.59.6.6 0 01-.59.59zm0 5.44h-3.25a.58.58 0 01-.59-.59.59.59 0 01.59-.59h3.25a.6.6 0 01.59.59.59.59 0 01-.59.59zm0-2.72h-3.25a.58.58 0 01-.59-.59.59.59 0 01.59-.59h3.25a.6.6 0 01.59.59.59.59 0 01-.59.59zm0 8.46h-3.25a.59.59 0 01-.59-.59.58.58 0 01.59-.59h3.25a.59.59 0 01.59.59.6.6 0 01-.59.59zm0 2.72h-3.25a.58.58 0 01-.59-.59.59.59 0 01.59-.59h3.25a.6.6 0 01.59.59.59.59 0 01-.59.59zm0 5.44h-3.25a.59.59 0 110-1.17h3.25a.59.59 0 110 1.17zm0-2.71h-3.25a.58.58 0 01-.59-.59.59.59 0 01.59-.59h3.25a.6.6 0 01.59.59.59.59 0 01-.59.59zm2.86 2.56a.58.58 0 01-.59-.59.59.59 0 01.59-.59 17.56 17.56 0 000-35.11.58.58 0 01-.59-.59.59.59 0 01.59-.59 18.74 18.74 0 010 37.47z"/><path class="cls-1" d="M34.36 34.08a.59.59 0 110-1.17 10.08 10.08 0 000-20.16.59.59 0 01-.59-.59.58.58 0 01.59-.59 11.26 11.26 0 010 22.51zM52.5 23.42h-4.62a.6.6 0 01-.59-.59.59.59 0 01.59-.59h4.62a.58.58 0 01.59.59.59.59 0 01-.59.59zm-6.4-6.78a.58.58 0 01-.29-1.09l4-2.31a.59.59 0 01.8.21.6.6 0 01-.21.81l-4 2.31a.66.66 0 01-.3.07zm-4.93-4.97a.51.51 0 01-.29-.08.58.58 0 01-.21-.8l2.31-4a.58.58 0 111 .59l-2.31 4a.57.57 0 01-.5.29zm2.21 27.43a.58.58 0 01-.51-.3l-2.31-4a.58.58 0 01.21-.8.6.6 0 01.81.21l2.31 4a.6.6 0 01-.51.89zM50 32.48a.6.6 0 01-.29-.08l-4-2.31a.59.59 0 01.59-1l4 2.31a.58.58 0 01.22.8.6.6 0 01-.52.28z"/></g></g></svg>