<svg xmlns="http://www.w3.org/2000/svg" viewBox="0 0 53.39 54.67"><defs><style>.cls-1{fill:#686867}</style></defs><g id="Слой_2" data-name="Слой 2"><g id="Слой_1-2" data-name="Слой 1"><path class="cls-1" d="M42.07 43.93H11.16a.59.59 0 01-.59-.59V11.76a.58.58 0 01.59-.59h30.91a.59.59 0 01.59.59v31.58a.6.6 0 01-.59.59zm-30.32-1.18h29.73V12.34H11.75z"/><path class="cls-1" d="M42.09 12.35H11.16a.59.59 0 01-.56-.41.6.6 0 01.21-.66L26.44.11a.59.59 0 01.69 0l15.21 11.12a.59.59 0 01-.25 1.12zM13 11.17h27.27L26.78 1.31zm23.13 24.65h-19a.59.59 0 01-.59-.59V19.86a.6.6 0 01.59-.59h19a.59.59 0 01.58.59v15.37a.58.58 0 01-.58.59zm-18.44-1.18h17.85V20.45H17.69z"/><path class="cls-1" d="M26.78 35.82H17.1a.59.59 0 01-.59-.59V19.86a.6.6 0 01.59-.59h9.68a.59.59 0 01.59.59v15.37a.58.58 0 01-.59.59zm-9.09-1.18h8.5V20.45h-8.5zm33.51 9.29h-7.13a.58.58 0 01-.58-.59.59.59 0 01.58-.59h6.54V12.34h-6.55a.59.59 0 110-1.17h7.14a.58.58 0 01.59.59v31.58a.58.58 0 01-.59.59z"/><path class="cls-1" d="M52.8 45.33a.57.57 0 01-.38-.15l-3.21-2.79a.6.6 0 01-.06-.83.59.59 0 01.85-.06l3.21 2.79a.59.59 0 01-.39 1zm0-31.59a.62.62 0 01-.38-.14l-3.21-2.8a.6.6 0 01-.06-.83.59.59 0 01.85-.05l3.21 2.79a.59.59 0 01.06.83.61.61 0 01-.47.2zM9.11 35.87H2a.59.59 0 01-.58-.59V19.82a.59.59 0 01.58-.59h7.12a.59.59 0 010 1.18H2.57v14.28h6.54a.59.59 0 01.59.59.6.6 0 01-.59.59z"/><path class="cls-1" d="M3.38 37.47a.59.59 0 01-.44-.2l-2.8-3.21a.6.6 0 01.06-.83.59.59 0 01.83.06l2.79 3.2a.59.59 0 010 .83.6.6 0 01-.44.15zm0-15.47a.59.59 0 01-.44-.2l-2.8-3.2a.6.6 0 01.06-.83.6.6 0 01.83.06L3.82 21a.59.59 0 010 .83.64.64 0 01-.44.17zm38.71 31.06H11.16a.58.58 0 01-.59-.58v-7.13a.59.59 0 01.59-.59.6.6 0 01.59.59v6.54H41.5v-6.55a.58.58 0 01.59-.59.59.59 0 01.59.59v7.14a.59.59 0 01-.59.58z"/><path class="cls-1" d="M9.79 54.67a.62.62 0 01-.38-.14.59.59 0 01-.07-.83l2.74-3.21a.59.59 0 01.89.76l-2.73 3.21a.58.58 0 01-.45.21zm30.93 0a.62.62 0 01-.38-.14.59.59 0 01-.07-.83L43 50.49a.59.59 0 01.89.76l-2.73 3.21a.58.58 0 01-.44.21z"/></g></g></svg>