<svg xmlns="http://www.w3.org/2000/svg" viewBox="0 0 41.5 68.02"><defs><style>.cls-1{fill:#686867}</style></defs><g id="Слой_2" data-name="Слой 2"><g id="Слой_1-2" data-name="Слой 1"><path class="cls-1" d="M2.52 56.3V34.8a.58.58 0 01.59-.59h6.55a.59.59 0 01.59.59v21.5a.59.59 0 01-.59.59H3.11a.58.58 0 01-.59-.59zM3.7 35.39v20.32h5.37V35.39z"/><path class="cls-1" d="M0 58.82V8.42a.59.59 0 01.59-.59h13a.58.58 0 01.41.27.58.58 0 01.05.56l-.43 1h6.77l-.44-1a.56.56 0 010-.56.58.58 0 01.49-.27h20.4a.6.6 0 01.59.59v50.4a.59.59 0 01-.59.59h-5.12a.58.58 0 01-.59-.59V56.3a.59.59 0 01.59-.59h2.08V14.05H21.32a.58.58 0 01-.59-.59v-2.64h-7.39v2.64a.58.58 0 01-.59.59h-9v41.66h23.39a.59.59 0 01.59.59v2.52a.58.58 0 01-.59.59H.59a.58.58 0 01-.59-.59zM1.18 9v49.23h25.37v-1.34H3.11a.58.58 0 01-.59-.59V13.46a.59.59 0 01.59-.59h9.05v-2.63a.69.69 0 01.05-.24l.43-1zm39.14 0h-18.9l.44 1a.56.56 0 01.05.34v2.54h16.48a.6.6 0 01.59.59V56.3a.59.59 0 01-.59.59h-2.08v1.34h4z"/><path class="cls-1" d="M2.52 56.3V13.46a.59.59 0 01.59-.59h9.64a.59.59 0 01.59.59v35.05a3.22 3.22 0 003.22 3.21h1a3.22 3.22 0 003.22-3.21v-35a.59.59 0 01.59-.59h17.02a.6.6 0 01.59.59V56.3a.59.59 0 01-.59.59h-2.67a.58.58 0 01-.59-.59V16.9h-7.4v39.4a.58.58 0 01-.59.59h-24a.58.58 0 01-.62-.59zM3.7 14.05v41.66h22.85v-39.4a.59.59 0 01.59-.59h8.58a.59.59 0 01.59.59v39.4h1.49V14.05H21.91v34.46a4.4 4.4 0 01-4.4 4.39h-1a4.4 4.4 0 01-4.4-4.39V14.05z"/><path class="cls-1" d="M26.56 67.43V16.31a.58.58 0 01.58-.59h8.58a.59.59 0 01.59.59v51.12a.59.59 0 01-.59.59h-8.58a.58.58 0 01-.58-.59zm1.17-50.54v50h7.4v-50z"/><path class="cls-1" d="M26.56 20.12a.58.58 0 01.58-.59h4.56a.59.59 0 010 1.17h-4.56a.58.58 0 01-.58-.58zm0 3.81a.58.58 0 01.58-.59h4.56a.58.58 0 01.58.59.59.59 0 01-.58.59h-4.56a.59.59 0 01-.58-.59zm0 7.62a.58.58 0 01.58-.59h4.56a.58.58 0 01.58.59.59.59 0 01-.58.59h-4.56a.59.59 0 01-.58-.59zm0 3.81a.58.58 0 01.58-.59h6.46a.58.58 0 01.59.59.59.59 0 01-.59.59h-6.46a.59.59 0 01-.58-.59zm0 19.05a.59.59 0 01.58-.59h6.46a.59.59 0 01.59.59.58.58 0 01-.59.59h-6.46a.58.58 0 01-.58-.59zm0-26.67a.58.58 0 01.58-.59h4.56a.58.58 0 01.58.59.59.59 0 01-.58.59h-4.56a.59.59 0 01-.58-.59zm0 11.43a.59.59 0 01.58-.59h4.56a.59.59 0 010 1.18h-4.56a.59.59 0 01-.58-.59zm0 3.83a.59.59 0 01.58-.59h4.56a.59.59 0 01.58.59.58.58 0 01-.58.59h-4.56a.58.58 0 01-.58-.59zm0 7.6a.59.59 0 01.58-.59h4.56a.59.59 0 01.58.59.58.58 0 01-.58.59h-4.56a.58.58 0 01-.58-.59zm0-3.81a.59.59 0 01.58-.59h4.56a.59.59 0 01.58.59.58.58 0 01-.58.59h-4.56a.58.58 0 01-.58-.59zm3.8 16.67a1.79 1.79 0 111.79 1.79 1.79 1.79 0 01-1.79-1.79zm2.4 0a.62.62 0 10-.61.62.62.62 0 00.61-.62zM12.16 48.5V10.24a.58.58 0 01.59-.59h8.57a.58.58 0 01.59.59V48.5a4.4 4.4 0 01-4.4 4.4h-1a4.4 4.4 0 01-4.35-4.4zm1.18-37.68V48.5a3.23 3.23 0 003.22 3.23h1a3.23 3.23 0 003.22-3.23V10.82z"/><path class="cls-1" d="M12.16 45.57v-3.89a.58.58 0 01.59-.59h8.57a.58.58 0 01.59.59v3.89a.58.58 0 01-.59.58h-8.57a.58.58 0 01-.59-.58zm1.18-3.31V45h7.39v-2.74z"/><path class="cls-1" d="M16.45 41.68V10.24a.59.59 0 111.17 0v31.44a.59.59 0 01-1.17 0zM14.45 5a.59.59 0 01.05-.23L16.44.35a.59.59 0 011.08 0l2 4.43a.59.59 0 010 .56.58.58 0 01-.49.27H15a.57.57 0 01-.49-.27.53.53 0 01-.06-.34zM17 2l-1 2.39h2.13z"/><path class="cls-1" d="M12.16 10.23a.69.69 0 01.05-.24l2.29-5.2a.59.59 0 01.5-.36h4a.58.58 0 01.53.35L21.86 10a.59.59 0 010 .56.58.58 0 01-.49.27h-8.62a.58.58 0 01-.49-.27.63.63 0 01-.1-.33zm3.26-4.62l-1.77 4h6.77l-1.82-4z"/></g></g></svg>