<svg xmlns="http://www.w3.org/2000/svg" viewBox="0 0 47.85 52.58"><defs><style>.cls-1{fill:#686867}</style></defs><g id="Слой_2" data-name="Слой 2"><g id="Слой_1-2" data-name="Слой 1"><path class="cls-1" d="M38.39 46.05h-35A3.39 3.39 0 010 42.66a5.27 5.27 0 015.26-5.32h3.61V7.43a.58.58 0 01.59-.58h35a3.36 3.36 0 013.38 3.25 5.28 5.28 0 01-5.25 5.15H39v30.21a.59.59 0 01-.61.59zM5.26 38.51a4.08 4.08 0 00-4.08 4.08 2.23 2.23 0 002.21 2.28H37.8v-30.2a.58.58 0 01.59-.59h4.2a4.09 4.09 0 004.07-4A2.18 2.18 0 0044.46 8H10.05v29.93a.59.59 0 01-.59.58z"/><path class="cls-1" d="M.59 43.18a.59.59 0 01-.59-.59V5.26A5.27 5.27 0 015.26 0h4.2a.59.59 0 01.59.59v37.34a.59.59 0 01-.59.58h-4.2a4.08 4.08 0 00-4.08 4.08.6.6 0 01-.59.59zm4.67-42a4.08 4.08 0 00-4.08 4.08v34a5.25 5.25 0 014.08-1.94h3.61V1.18zm37.33 51.4h-4.2a.58.58 0 01-.59-.58V14.67a.58.58 0 01.59-.59h4.2a4.09 4.09 0 004.07-4 .58.58 0 01.53-.57.57.57 0 01.63.44.87.87 0 010 .25v37.1a5.26 5.26 0 01-5.23 5.28zM39 51.41h3.61a4.08 4.08 0 004.08-4.08v-34a5.25 5.25 0 01-4.08 2H39zM23.41 25.56A2.58 2.58 0 1126 23a2.58 2.58 0 01-2.59 2.56zm0-4a1.4 1.4 0 101.4 1.4 1.4 1.4 0 00-1.4-1.38z"/><path class="cls-1" d="M19.77 31.57a1.93 1.93 0 01-1.66-2.89l.61-1.07a.76.76 0 00-.09-.87 6 6 0 01-.73-1.19.75.75 0 00-.68-.45h-1.29a1.93 1.93 0 110-3.85h1.12a.76.76 0 00.7-.51 6.32 6.32 0 01.73-1.32.74.74 0 00.05-.82l-.59-1a1.93 1.93 0 01.71-2.63 2 2 0 012.62.71l.55.94a.76.76 0 00.77.36 6.44 6.44 0 011.52 0 .77.77 0 00.77-.36l.59-1a2 2 0 012.63-.71 1.94 1.94 0 01.7 2.63l-.59 1a.75.75 0 00.08.84 6.19 6.19 0 01.71 1.2.78.78 0 00.7.48H31a1.93 1.93 0 010 3.85h-1.3a.78.78 0 00-.7.48 6.15 6.15 0 01-.66 1.17.76.76 0 00-.06.83l.72 1.19a2 2 0 01.16 1.42 1.9 1.9 0 01-.9 1.17 2 2 0 01-2.63-.7L25 29.38a.76.76 0 00-.77-.36 6.38 6.38 0 01-1.31 0h-.09a.77.77 0 00-.68.37l-.69 1.19a1.92 1.92 0 01-1.69.99zm-3.84-9.15a.75.75 0 000 1.5h1.29A2 2 0 0119 25.05a4.55 4.55 0 00.6 1 2 2 0 01.18 2.19l-.62 1.07a.75.75 0 00.28 1 .77.77 0 001-.27l.69-1.2a2 2 0 011.87-.96 4.7 4.7 0 001.06 0 2 2 0 011.94.94l.65 1.13a.75.75 0 001 .27.69.69 0 00.35-.45.76.76 0 00-.07-.57l-.67-1.2a1.93 1.93 0 01.13-2.11 4.83 4.83 0 00.53-.94 1.94 1.94 0 011.78-1.2H31a.75.75 0 000-1.5h-1.3A2 2 0 0127.92 21a4.57 4.57 0 00-.58-1 1.94 1.94 0 01-.14-2.14l.58-1a.75.75 0 00-.27-1 .77.77 0 00-1 .28l-.59 1a1.9 1.9 0 01-1.92.96 5 5 0 00-1.22 0 2 2 0 01-1.95-.93l-.54-.95a.78.78 0 00-1-.27.79.79 0 00-.35.45.75.75 0 00.06.6l.59 1a1.93 1.93 0 01-.12 2.1 4.82 4.82 0 00-.58 1.07 2 2 0 01-1.8 1.24z"/><path class="cls-1" d="M32.43 34.91H14.6a.59.59 0 01-.58-.59v-7.13a.59.59 0 011.17 0v6.54h16.65v-6.55a.58.58 0 01.59-.59.59.59 0 01.59.59v7.14a.6.6 0 01-.59.59z"/><path class="cls-1" d="M13.24 36.51a.59.59 0 01-.38-.14.59.59 0 01-.07-.83l2.73-3.21a.6.6 0 01.83-.06.59.59 0 01.07.83l-2.74 3.2a.56.56 0 01-.44.21zm17.82 0a.62.62 0 01-.38-.14.59.59 0 01-.07-.83l2.74-3.21a.59.59 0 11.89.77l-2.73 3.2a.58.58 0 01-.45.21z"/></g></g></svg>