<svg xmlns="http://www.w3.org/2000/svg" viewBox="0 0 53.59 59"><defs><style>.cls-1{fill:#686867}</style></defs><g id="Слой_2" data-name="Слой 2"><g id="Слой_1-2" data-name="Слой 1"><path class="cls-1" d="M26.69 31.56c-6.93 0-12.57-6.35-12.57-14.15a15.58 15.58 0 01.77-4.88.58.58 0 01.36-.37L28.6 7.41a.6.6 0 01.68.21l1.83 2.6 1.49-1.48a.58.58 0 01.73-.08l4.74 3.05a.55.55 0 01.23.29 15.72 15.72 0 011 5.41c-.05 7.8-5.68 14.15-12.61 14.15zM15.92 13.17a14.6 14.6 0 00-.62 4.24c0 7.15 5.11 13 11.39 13s11.39-5.82 11.39-13a14.53 14.53 0 00-.82-4.82l-4.17-2.68-1.64 1.64a.59.59 0 01-.47.17.62.62 0 01-.43-.25l-2-2.8z"/><path class="cls-1" d="M19.36 21.5c-2.89 0-5.24-1.84-5.24-4.1s2.35-4.1 5.24-4.1 5.25 1.84 5.25 4.1-2.36 4.1-5.25 4.1zm0-7c-2.24 0-4.06 1.31-4.06 2.92s1.82 2.93 4.06 2.93 4.07-1.35 4.07-2.95-1.82-2.92-4.07-2.92zm14.64 7c-2.89 0-5.24-1.84-5.24-4.1s2.35-4.1 5.24-4.1 5.24 1.84 5.24 4.1-2.34 4.1-5.24 4.1zm0-7c-2.24 0-4.07 1.31-4.07 2.92s1.83 2.93 4.07 2.93 4.07-1.35 4.07-2.95-1.82-2.92-4.07-2.92z"/><path class="cls-1" d="M29.39 18.33a.59.59 0 01-.59-.59 2.12 2.12 0 10-4.23 0 .59.59 0 11-1.17 0 3.29 3.29 0 116.58 0 .6.6 0 01-.59.59zm-15.3-4.55a.6.6 0 01-.34-.11.58.58 0 01-.25-.48A13.19 13.19 0 0139.87 13a.76.76 0 010 .15.6.6 0 01-.59.59.63.63 0 01-.33-.1l-5.86-3.73-1.64 1.64a.59.59 0 01-.47.17.62.62 0 01-.43-.25l-2-2.8-14.27 5.07a.65.65 0 01-.19.04zm12.6-12.6a12 12 0 00-12 11.17l.55-.19L28.6 7.41a.6.6 0 01.68.21l1.83 2.6 1.49-1.48a.58.58 0 01.73-.08l5.31 3.42a12 12 0 00-11.95-10.9zM52.2 47.31a.57.57 0 01-.43-.2 4.26 4.26 0 00-.39-.36 1.22 1.22 0 00-.19-.12L51 46.5h-.19a1.45 1.45 0 00-.32-.09h-.23a1.52 1.52 0 00-.34 0H28.35a.59.59 0 01-.57-.44l-1.09-4.37-1.13 4.22a.59.59 0 01-.57.44H10.55a.59.59 0 01-.59-.59v-7H5.34l-.44.07a.61.61 0 01-.63-.28.59.59 0 01.07-.68A15.42 15.42 0 0116 32.46h3.07v-4.08a.59.59 0 01.34-.53.58.58 0 01.62.08 10.32 10.32 0 0013.33 0 .58.58 0 011 .45v4.08h3a15.57 15.57 0 0115.43 14.2.6.6 0 01-.35.6.69.69 0 01-.24.05zm-.79-1.9a14.41 14.41 0 00-14.09-11.8h-3.59a.58.58 0 01-.59-.58v-3.5a11.42 11.42 0 01-12.9 0v3.49a.59.59 0 01-.59.58H16a14.28 14.28 0 00-9.73 3.84h4.29a.59.59 0 01.59.59v7h13.4l1.6-5.94a.58.58 0 01.56-.43.58.58 0 01.56.44l1.54 5.93h21.07a2.84 2.84 0 01.54.05h.28a2.19 2.19 0 01.47.14l.24.09z"/><path class="cls-1" d="M28.37 46.26H25a.59.59 0 01-.56-.74l1.71-6.37a.59.59 0 01.57-.44.59.59 0 01.57.44l1.61 6.24a.68.68 0 01.07.28.6.6 0 01-.6.59zm-2.61-1.18h1.83l-.89-3.47z"/><path class="cls-1" d="M53 59H10.55a.59.59 0 01-.59-.59V45.67a.6.6 0 01.59-.59h39.33a2.84 2.84 0 01.54.05h.28a2.19 2.19 0 01.47.14l.24.09h.07a2.19 2.19 0 01.3.16 2.58 2.58 0 01.3.2 3.6 3.6 0 011.5 2.8 1.21 1.21 0 010 .19v9.61A.58.58 0 0153 59zm-41.86-1.17h41.28v-9a.49.49 0 010-.12 2.47 2.47 0 00-.64-1.57 2.13 2.13 0 00-.38-.35 1.13 1.13 0 00-.2-.13l-.2-.16h-.19a1.45 1.45 0 00-.32-.09h-.23a1.52 1.52 0 00-.34 0H11.14z"/><path class="cls-1" d="M10.55 59H.59a.58.58 0 01-.59-.59V43.25a5.79 5.79 0 015.22-5.75h5.33a.59.59 0 01.59.59v20.32a.58.58 0 01-.59.59zm-9.37-1.17H10V38.65H5.34a4.6 4.6 0 00-4.16 4.58zM53 59H43a.58.58 0 01-.59-.59v-4.7a.58.58 0 01.59-.58h4.71a4.65 4.65 0 004.65-4.48.34.34 0 010-.1.59.59 0 01.59-.59.58.58 0 01.58.55v9.89a.58.58 0 01-.53.6zm-9.37-1.18h8.78V52a5.88 5.88 0 01-4.66 2.32h-4.11zM17 43.1a.54.54 0 01-.35-.11.59.59 0 01-.24-.47v-9.43a.58.58 0 01.59-.59h2.67a.58.58 0 01.39.15l7 6.3a.59.59 0 01.19.56.6.6 0 01-.4.43l-9.7 3.14a.55.55 0 01-.15.02zm.59-9.43v8l8-2.57-6.11-5.47z"/><path class="cls-1" d="M36.4 43.1a.58.58 0 01-.19 0l-9.7-3.14a.57.57 0 01-.39-.43.56.56 0 01.18-.53l7-6.3a.58.58 0 01.39-.15h2.71a.58.58 0 01.58.59v9.43a.59.59 0 01-.24.47.53.53 0 01-.34.06zm-8.55-4l8 2.57v-8H34z"/></g></g></svg>