<svg xmlns="http://www.w3.org/2000/svg" viewBox="0 0 70.87 70.87"><defs><style>.cls-1{fill:none}</style></defs><g id="Layer_2" data-name="Layer 2"><g id="Слой_1" data-name="Слой 1"><path d="M25.51 0h2.83v2.83h-2.83zm8.51 0h2.83v2.83h-2.83zm2.83 0h2.83v2.83h-2.83zm2.84 0h2.83v2.83h-2.83zM22.68 2.83h2.83v2.83h-2.83zm22.67 0h2.83v2.83h-2.83zM22.68 5.67h2.83V8.5h-2.83zm2.83 0h2.83V8.5h-2.83zm5.67 0h2.83V8.5h-2.83zm8.51 0h2.83V8.5h-2.83zm2.83 0h2.83V8.5h-2.83zm2.83 0h2.83V8.5h-2.83zM22.68 8.5h2.83v2.83h-2.83zm5.67 0h2.83v2.83h-2.83zm8.5 0h2.83v2.83h-2.83zm2.84 0h2.83v2.83h-2.83zm-8.51 2.84h2.83v2.83h-2.83zm2.84 0h2.83v2.83h-2.83zm2.83 0h2.83v2.83h-2.83zm8.5 0h2.83v2.83h-2.83zm-17 2.83h2.83V17h-2.83zm8.5 0h2.83V17h-2.83zm2.84 0h2.83V17h-2.83zm-17.01 2.84h2.83v2.83h-2.83zm5.67 0h2.83v2.83h-2.83zm5.67 0h2.83v2.83h-2.83zm5.67 0h2.83v2.83h-2.83zm5.66 0h2.83v2.83h-2.83zm-22.67 2.83h2.83v2.83h-2.83zm5.67 0h2.83v2.83h-2.83zm11.34 0h2.83v2.83h-2.83zm2.83 0h2.83v2.83h-2.83zm2.83 0h2.83v2.83h-2.83zM0 22.68h2.83v2.83H0zm17.01 0h2.83v2.83h-2.83zm5.67 0h2.83v2.83h-2.83zm2.83 0h2.83v2.83h-2.83zm22.68 0h2.83v2.83h-2.83zm2.83 0h2.83v2.83h-2.83zm8.51 0h2.83v2.83h-2.83zm2.83 0h2.83v2.83h-2.83zm2.84 0h2.83v2.83H65.2zM5.67 25.51H8.5v2.83H5.67zm5.67 0h2.83v2.83h-2.83zm25.51 0h2.83v2.83h-2.83zm2.84 0h2.83v2.83h-2.83zm2.83 0h2.83v2.83h-2.83zm2.83 0h2.83v2.83h-2.83zm2.84 0h2.83v2.83h-2.83zm5.67 0h2.83v2.83h-2.83zm2.83 0h2.83v2.83h-2.83zm2.84 0h2.83v2.83h-2.83zm2.83 0h2.83v2.83h-2.83zm2.84 0h2.83v2.83H65.2zM2.83 28.35h2.83v2.83H2.83zm2.84 0H8.5v2.83H5.67zm2.83 0h2.83v2.83H8.5zm8.51 0h2.83v2.83h-2.83zm2.83 0h2.83v2.83h-2.83zm2.84 0h2.83v2.83h-2.83zm2.83 0h2.83v2.83h-2.83zm2.84 0h2.83v2.83h-2.83zm2.83 0h2.83v2.83h-2.83zm2.84 0h2.83v2.83h-2.83zm2.83 0h2.83v2.83h-2.83zm2.84 0h2.83v2.83h-2.83zm2.83 0h2.83v2.83h-2.83zm2.83 0h2.83v2.83h-2.83zm5.67 0h2.83v2.83h-2.83zm2.84 0h2.83v2.83h-2.83zm5.67 0h2.83v2.83h-2.83zm5.67 0h2.83v2.83H65.2zm2.83 0h2.83v2.83h-2.83zM0 31.18h2.83v2.83H0zm2.83 0h2.83v2.83H2.83zm8.51 0h2.83v2.83h-2.83zm2.83 0H17v2.83h-2.83zm14.18 0h2.83v2.83h-2.83zm2.83 0h2.83v2.83h-2.83zm5.67 0h2.83v2.83h-2.83zm5.67 0h2.83v2.83h-2.83zm17.01 0h2.83v2.83h-2.83zm8.5 0h2.83v2.83h-2.83zm-65.2 2.84h2.83v2.83H2.83zm2.84 0H8.5v2.83H5.67zm2.83 0h2.83v2.83H8.5zm5.67 0H17v2.83h-2.83zm2.84 0h2.83v2.83h-2.83zm2.83 0h2.83v2.83h-2.83zm8.51 0h2.83v2.83h-2.83zm5.67 0h2.83v2.83h-2.83zm2.83 0h2.83v2.83h-2.83zm5.67 0h2.83v2.83h-2.83zm8.5 0h2.83v2.83h-2.83zm2.84 0h2.83v2.83h-2.83zm14.17 0h2.83v2.83h-2.83zM0 36.85h2.83v2.83H0zm2.83 0h2.83v2.83H2.83zm5.67 0h2.83v2.83H8.5zm2.84 0h2.83v2.83h-2.83zm2.83 0H17v2.83h-2.83zm8.51 0h2.83v2.83h-2.83zm5.67 0h2.83v2.83h-2.83zm14.17 0h2.83v2.83h-2.83zm2.83 0h2.83v2.83h-2.83zm8.51 0h2.83v2.83h-2.83zm11.34 0h2.83v2.83H65.2zM0 39.69h2.83v2.83H0zm5.67 0H8.5v2.83H5.67zm5.67 0h2.83v2.83h-2.83zm5.67 0h2.83v2.83h-2.83zm2.83 0h2.83v2.83h-2.83zm5.67 0h2.83v2.83h-2.83zm2.84 0h2.83v2.83h-2.83zm2.83 0h2.83v2.83h-2.83zm2.84 0h2.83v2.83h-2.83zm8.5 0h2.83v2.83h-2.83zm2.83 0h2.83v2.83h-2.83zm2.84 0h2.83v2.83h-2.83zm5.67 0h2.83v2.83h-2.83zm2.83 0h2.83v2.83h-2.83zm2.84 0h2.83v2.83h-2.83zm5.67 0h2.83v2.83H65.2zm2.83 0h2.83v2.83h-2.83zM0 42.52h2.83v2.83H0zm22.68 0h2.83v2.83h-2.83zm5.67 0h2.83v2.83h-2.83zm2.83 0h2.83v2.83h-2.83zm11.34 0h2.83v2.83h-2.83zm2.83 0h2.83v2.83h-2.83zm2.84 0h2.83v2.83h-2.83zm2.83 0h2.83v2.83h-2.83zm2.84 0h2.83v2.83h-2.83zm5.67 0h2.83v2.83h-2.83zm2.83 0h2.83v2.83h-2.83zm5.67 0h2.83v2.83h-2.83zM0 45.35h2.83v2.83H0zm8.5 0h2.83v2.83H8.5zm5.67 0H17v2.83h-2.83zm2.84 0h2.83v2.83h-2.83zm2.83 0h2.83v2.83h-2.83zm8.51 0h2.83v2.83h-2.83zm2.83 0h2.83v2.83h-2.83zm14.17 0h2.83v2.83h-2.83zm2.84 0h2.83v2.83h-2.83zm2.83 0h2.83v2.83h-2.83zm2.84 0h2.83v2.83h-2.83zm2.83 0h2.83v2.83h-2.83zm5.67 0h2.83v2.83h-2.83zm-39.68 2.84h2.83v2.83h-2.83zm2.83 0h2.83v2.83h-2.83zm8.51 0h2.83v2.83h-2.83zm2.83 0h2.83v2.83h-2.83zm2.84 0h2.83v2.83h-2.83zm5.66 0h2.83v2.83h-2.83zm11.34 0h2.83v2.83h-2.83zm-25.51 2.83h2.83v2.83h-2.83zm14.17 0h2.83v2.83h-2.83zm5.67 0h2.83v2.83h-2.83zm5.67 0h2.83v2.83h-2.83zm11.34 0h2.83v2.83h-2.83zm-34.01 2.84h2.83v2.83h-2.83zm2.83 0h2.83v2.83h-2.83zm5.67 0h2.83v2.83h-2.83zm2.83 0h2.83v2.83h-2.83zm11.34 0h2.83v2.83h-2.83zm8.51 0h2.83v2.83H65.2zm-39.69 2.83h2.83v2.83h-2.83zm2.84 0h2.83v2.83h-2.83zm5.67 0h2.83v2.83h-2.83zm5.67 0h2.83v2.83h-2.83zm2.83 0h2.83v2.83h-2.83zm2.83 0h2.83v2.83h-2.83zm2.84 0h2.83v2.83h-2.83zm2.83 0h2.83v2.83h-2.83zm2.84 0h2.83v2.83h-2.83zm2.83 0h2.83v2.83h-2.83zm5.67 0h2.83v2.83h-2.83zm5.67 0h2.83v2.83h-2.83zm-42.52 2.84h2.83v2.83h-2.83zm2.84 0h2.83v2.83h-2.83zm11.34 0h2.83v2.83h-2.83zm8.5 0h2.83v2.83h-2.83zm2.83 0h2.83v2.83h-2.83zm14.18 0h2.83v2.83H65.2zm2.83 0h2.83v2.83h-2.83zm-36.85 2.83h2.83v2.83h-2.83zm2.84 0h2.83v2.83h-2.83zm11.33 0h2.83v2.83h-2.83zm14.18 0h2.83v2.83h-2.83zm2.83 0h2.83v2.83h-2.83zm5.67 0h2.83v2.83h-2.83zM25.51 65.2h2.83v2.83h-2.83zm2.84 0h2.83v2.83h-2.83zm2.83 0h2.83v2.83h-2.83zm8.51 0h2.83v2.83h-2.83zm5.66 0h2.83v2.83h-2.83zm5.67 0h2.83v2.83h-2.83zm2.84 0h2.83v2.83h-2.83zm2.83 0h2.83v2.83h-2.83zm11.34 0h2.83v2.83h-2.83zm-45.35 2.83h2.83v2.83h-2.83zm5.67 0h2.83v2.83h-2.83zm8.5 0h2.83v2.83h-2.83zm2.84 0h2.83v2.83h-2.83zm2.83 0h2.83v2.83h-2.83zm2.83 0h2.83v2.83h-2.83zm5.67 0h2.83v2.83h-2.83zm8.51 0h2.83v2.83h-2.83zm8.5 0h2.83v2.83h-2.83z"/><path class="cls-1" d="M2.98 2.98h13.89v13.89H2.98z"/><path d="M16.87 0H0v19.84h19.84V0zm0 16.87H3V3h13.87z"/><path class="cls-1" d="M54 2.98h13.89v13.89H54z"/><path d="M67.89 0H51v19.84h19.87V0zm0 16.87H54V3h13.89z"/><path class="cls-1" d="M2.98 54h13.89v13.89H2.98z"/><path d="M16.87 51H0v19.87h19.84V51zm0 16.87H3V54h13.87zM5.67 5.67h8.5v8.5h-8.5zm51.02 0h8.5v8.5h-8.5z"/><path d="M5.67 56.69h8.5v8.5h-8.5z"/></g></g></svg>