<svg xmlns="http://www.w3.org/2000/svg" viewBox="0 0 34.31 24.31"><defs><style>.cls-1{fill:#ff9300}</style></defs><g id="Layer_2" data-name="Layer 2"><g id="Слой_1" data-name="Слой 1"><path class="cls-1" d="M34.3 13.43c-.51-2.57-5.18-2.83-7.89-3-.47-2.79 1.7-9.07-2.87-9.68-4.87-1-16-2.28-14 5.7C-6.53 5-.25 29.83 13.21 20.92a20.3 20.3 0 004.4.48c1.27 3.49 15 4.34 16.7-.29-.04-.19.03-7.49-.01-7.68zM25 6.91c-3.2 2.43-10.54 2.27-14-.06l-.05-1.94A19.59 19.59 0 0025 4.83v1.8a.36.36 0 000 .28zM12.62 2.09c3.11-.91 10-1.19 12.34 1-2.71 2.3-11.39 2.35-14.11 0 .01-.09.32-.56 1.77-1zm0 17.52c-6.47 6.08-15.86-4.25-9.2-10.14 6.48-6.07 15.9 4.26 9.22 10.14zm1.75.15a8.27 8.27 0 001.32-2.26c.58.05 1.19.08 1.82.09v2.45a21.23 21.23 0 01-3.12-.28zm1.84-6h1.24v2.43q-.72 0-1.41-.06a8.91 8.91 0 00.19-2.41zm1.69-1.32c-.68 0-1.35 0-2-.07a8.25 8.25 0 00-1.23-2.55c3.45.39 7.37.28 10.3-1.12v1.8c-2.89.05-5.97.67-7.05 1.9zm.9 1.1c2.77-2.35 11.37-2.27 14.11 0-2.69 2.26-11.38 2.33-14.09-.04zm12.35 8.64c-2.8.79-13.53 1.89-12.24-3a19.48 19.48 0 0014-.09v2.06c.03.06-.29.53-1.74.99zm1.85-5.1c-1.61 2.92-12.92 2-14 .38V15.3a19.59 19.59 0 0014-.05z"/><path class="cls-1" d="M9.69 14.18h1.48v-1h-.88c1-3-3.3-4.06-4.84-1.94l.92 1c.91-1.29 3.13-.42 1.76.9-.67 0-2.62 0-3.26.08v.89h1.9a4.18 4.18 0 00-.67.66c-.17 0-1 .07-1.23.08v.9h.78c-.71 2.92 3.37 3.9 5.31 2l-.79-1.24c-1 1.15-3.5 1-2.49-.72h3.49v-1H8.89a6.09 6.09 0 00.8-.61z"/></g></g></svg>