<svg xmlns="http://www.w3.org/2000/svg" viewBox="0 0 84.38 43.28"><defs><clipPath id="clip-path"><path class="cls-1" d="M42.83 2V.42a.28.28 0 01.3-.18 7.23 7.23 0 013 .85.36.36 0 01.15.19c0 .47.07.75.08 1v.69l.08 1.15v.74l1 15c0 .6.13 1.19-.53 1.2-5.88.27-11.3.23-17 0-.7 0-.56-.7-.54-1.21 5.5-1.62 13.1-4 13.15-12 0-.23.11-5.31.14-5.88V2z"/></clipPath><clipPath id="clip-path-2"><path class="cls-1" d="M43.13.24a.28.28 0 00-.29.18V2c0 .57-.14 5.65-.14 5.88 0 8.05-7.65 10.39-13.14 12 0 .51-.17 1.22.53 1.21 5.67.26 11.09.3 17 0 .66 0 .56-.6.53-1.2l-1-15v-.74L46.54 3v-.68c0-.23 0-.51-.08-1a.36.36 0 00-.15-.19 7.23 7.23 0 00-3-.85z"/></clipPath><clipPath id="clip-path-3"><path class="cls-1" d="M46.82 9.56l.08 1.22A12 12 0 0042.63 9c0-.36.06-.75.06-1.14a11.92 11.92 0 014.13 1.7z"/></clipPath><clipPath id="clip-path-4"><path class="cls-1" d="M42.63 9a12 12 0 014.27 1.78l-.08-1.22a11.92 11.92 0 00-4.13-1.7c0 .39 0 .78-.06 1.14"/></clipPath><clipPath id="clip-path-5"><path class="cls-1" d="M34.28.4v.44-.33a.36.36 0 000-.11zm1.31 7.23c-.39.07-.78.14-1.15.23 0-.5-.11-5.3-.14-5.85V2a.27.27 0 00.27.27h.9c.03.94.11 4.38.12 5.36z"/></clipPath><clipPath id="clip-path-6"><path class="cls-1" d="M34.3 2c0 .55.13 5.35.14 5.85.37-.09.76-.16 1.16-.23 0-1-.1-4.42-.13-5.41h-.9A.27.27 0 0134.3 2zm0-1.58v.44-.35a.36.36 0 000-.11z"/></clipPath><style>.cls-1{fill:none}.cls-3,.cls-4,.cls-6{fill-rule:evenodd}.cls-3{fill:#ff9300}.cls-4{fill:#1b1918}.cls-6{fill:#b1b3b4}</style></defs><g id="Layer_2" data-name="Layer 2"><g id="Слой_1" data-name="Слой 1"><path d="M38.56 21.77c7.21 0 13-.52 13-1.16s-5.83-1.15-13-1.15-13 .51-13 1.15 5.8 1.16 13 1.16z" fill-rule="evenodd" fill="#d9dadb"/><path class="cls-3" d="M36.77 13.33l-.16-.23-.16-.23-.14-.24-.14-.25-.13-.24-.13-.26-.12-.26-.11-.27-.1-.27-.1-.28-.08-.29-.09-.3-.07-.3-.06-.31-.05-.31-.05-.33-.04-.33-.02-.28.11-.02.13-.02.13-.02.13-.03.13-.02.13-.02.14-.01.13-.02.14-.02.13-.02.14-.01.13-.02.14-.01.14-.02.28-.02.13-.01.14-.01.15-.01.14-.01.14-.01.14-.01h.14l.15-.01h.14l.12-.01.12.01h.15l.14.01h.14l.14.01.15.01.14.01.14.01.14.01.14.01.28.02.13.02.14.01.14.02.13.01.14.02.13.02.14.02.13.01.13.02.13.02.13.03.13.02.13.02.12.02-.02.28-.04.33-.04.33-.06.31-.06.31-.07.3-.08.3-.09.29-.09.28-.1.27-.11.27-.12.26-.12.26-.13.25-.14.24-.15.24-.15.23-.16.23-.16.22-.17.22-.18.21-.18.21-.19.2-.19.2-.2.19-.2.19-.21.18-.1.08-.09-.08-.21-.18-.21-.19-.2-.2-.19-.19-.19-.21-.19-.2-.18-.21-.17-.22-.16-.22z"/><path class="cls-4" d="M38.91 11.46l.17.79c0 .32.08.29-.25.29h-.49c-.33 0-.3 0-.25-.29l.17-.79c0-.1-.08-.11-.16-.15a1 1 0 01-.51-.87 1 1 0 012 0 1 1 0 01-.51.87c-.08.04-.18.05-.17.15z"/><path d="M38.91 11.46l.17.79c0 .32.08.29-.25.29h-.49c-.33 0-.3 0-.25-.29l.17-.79c0-.1-.08-.11-.16-.15a1 1 0 01-.51-.87 1 1 0 012 0 1 1 0 01-.51.87c-.08.04-.18.05-.17.15z" stroke="#1b1918" stroke-width=".22" fill="none"/><path class="cls-6" d="M34.3 2V.46a.29.29 0 00-.3-.19 7.07 7.07 0 00-3 .86.34.34 0 00-.15.18c-.05.47-.07.75-.08 1v.78l-.17 1.15c0 .25 0 .5-.05.75l-1 15.28c3.26-1.42 6-2.47 8.58-4.6a9.89 9.89 0 01-3.67-7.78c0-.23-.11-5.31-.14-5.88V2z"/><path class="cls-6" d="M34 .27c.17 0 .3.07.3.24V.46a.29.29 0 00-.3-.19zm-3.76 9.34l.56-8.11c0-.2 0-.25.18-.38a.34.34 0 00-.15.18c-.05.47-.07.75-.08 1v.78l-.15 1.16c0 .25 0 .5-.05.75l-.31 4.62zM38.56 0h1.59a.31.31 0 01.29.29V2a.27.27 0 00.27.27h1.84a.27.27 0 00.28-.27V.51a.27.27 0 01.31-.27 7.23 7.23 0 013 .85.44.44 0 01.18.42l.56 8.11C45 8.25 42 7.45 38.56 7.36a21.12 21.12 0 00-4.12.5c0-.5-.11-5.3-.14-5.85V2a.27.27 0 00.27.27h1.84a.28.28 0 00.28-.27V.33A.31.31 0 0137 0h1.56z"/><path class="cls-3" d="M52.65 16.14h-1.89L52 11.36l-1.23-4.13H53l.71 3.54.73-3.54h1.89l-1.24 4.41 1.24 4.5h-2.17l-.71-3.57zm8.37 0h-4.3V7.23H61v1.35h-2.2v1.95H61v1.35h-2.2v2.9H61zm2.43 0h-2.08V7.23h2.54a4 4 0 012 .37 1.66 1.66 0 01.74 1.54v1.63a1.68 1.68 0 01-.74 1.46 2.85 2.85 0 01-1.68.46h-.76zm0-7.64v2.92h.33a.65.65 0 00.66-.33 3.55 3.55 0 00.11-1.09 4.82 4.82 0 000-.92.65.65 0 00-.72-.55zm6.92 4.17h2.07v1.18q0 2.46-2.64 2.46a2.79 2.79 0 01-1.8-.52 2.55 2.55 0 01-.79-2.08V9.65A2.5 2.5 0 0168 7.59a2.77 2.77 0 011.83-.54 3.13 3.13 0 011.89.46 2.26 2.26 0 01.75 1.92v1h-2.1V9.18a1 1 0 00-.12-.51.51.51 0 00-.45-.19.44.44 0 00-.41.19.88.88 0 00-.13.51v5a1 1 0 00.12.52.47.47 0 00.42.18.51.51 0 00.45-.19 1 1 0 00.12-.51zm7.87-3v4.06a2.53 2.53 0 01-.78 2.06 2.86 2.86 0 01-1.84.54 2.83 2.83 0 01-1.83-.52 2.55 2.55 0 01-.8-2.08V9.65a2.5 2.5 0 01.79-2.06 3.4 3.4 0 013.66 0 2.48 2.48 0 01.8 2.06zm-3.17-.47v5a1.09 1.09 0 00.11.52.49.49 0 00.44.18.45.45 0 00.42-.19.88.88 0 00.13-.51v-5a1 1 0 00-.1-.49.49.49 0 00-.45-.21.47.47 0 00-.43.19 1 1 0 00-.12.49zm5.8 7H78.8V7.23h2.07v3.3H82v-3.3h2.08v8.91H82v-4.26h-1.1z"/><path class="cls-4" d="M2.09 7.23H5l1.1 8.91H4L3.8 14H2.67l-.34 2.19H.58zm.8 5.36h.76l-.37-4zm5.74 3.55H6.55V7.23h2.54a4 4 0 012 .37 1.66 1.66 0 01.74 1.54v1.63a1.68 1.68 0 01-.74 1.46 2.85 2.85 0 01-1.68.46h-.78zm0-7.64v2.92H9a.66.66 0 00.67-.33A3.55 3.55 0 009.73 10a5.86 5.86 0 00-.05-.92A.66.66 0 009 8.5zM14 16.14h-1.66V7.23h3.06l.88 6.33.9-6.33h3v8.91h-1.89V8.63l-1.23 7.51h-1.82L14 8.63zm8-8.91h2.85L26 16.14h-2L23.76 14h-1.13l-.34 2.19h-1.75zm.8 5.36h.75l-.36-4z"/><path fill="#1b1918" d="M.58 23.6h83.47v.58H.58z"/><path class="cls-4" d="M83.33 30.16v-1.65h-.62a1.17 1.17 0 00-.7.15.79.79 0 00-.24.67.85.85 0 00.21.61.78.78 0 00.6.22zm.72 2.84h-.72v-2.25h-.55a1 1 0 00-.73.2.94.94 0 00-.22.72v.53c0 .2 0 .37-.06.51a1.59 1.59 0 01-.09.3h-.78V33a.29.29 0 00.1-.13 2.12 2.12 0 00.11-.54v-.71a1.57 1.57 0 01.14-.75.77.77 0 01.53-.37.89.89 0 01-.56-.44 1.59 1.59 0 01-.18-.77 1.2 1.2 0 01.43-1 2 2 0 011.17-.29h1.4zm-4.26 0h-.7v-4.76c0 .17-.07.31-.1.41-.08.31-.14.52-.17.62L77.57 33h-1.06v-5.1h.71v4.61a2.66 2.66 0 01.08-.33c0-.1.07-.23.13-.41l1.32-3.87h1.08zm-4.6 0h-.73v-2.4h-1.79V33h-.73v-5.1h.73V30h1.79v-2.1h.73zm-5.08-1.69h.67a2.12 2.12 0 01-.36 1.29 1.38 1.38 0 01-1.18.54 1.34 1.34 0 01-1.18-.58 3.76 3.76 0 01-.47-2.12 4.31 4.31 0 01.3-1.74 1.39 1.39 0 011.34-.93 1.34 1.34 0 011.41.92 6.28 6.28 0 01.18 1.83h-2.47v.35a3.56 3.56 0 00.13 1.13.78.78 0 00.79.57.7.7 0 00.67-.4 1.75 1.75 0 00.17-.85zm-1.76-1.39h1.72a3.34 3.34 0 00-.1-1 .72.72 0 00-.73-.55.75.75 0 00-.76.54 3.14 3.14 0 00-.13 1.02zm-2.54 2.49v-3.9h-1.53v2.6a5.26 5.26 0 010 .76 1.28 1.28 0 01-.22.55zm1 1.58h-.7V33h-2.48v1h-.7v-1.56h.31a.65.65 0 00.27-.45 4.42 4.42 0 00.07-.94v-3.14h3v4.51h.32zm-4.11-1h-.84l-1.26-2.54-.55.73V33h-.73v-1.8l-.55-.73L57.56 33h-.84l1.63-3.12-1.58-2h.86l1.74 2.37v-2.34h.73v2.38l1.74-2.38h.86l-1.58 2zm-7.14-2.49a3.8 3.8 0 00-.25-1.64.83.83 0 00-.81-.49.85.85 0 00-.82.49 4 4 0 00-.25 1.64 3.85 3.85 0 00.27 1.5.93.93 0 001.7 0 3.78 3.78 0 00.21-1.48zm.76-.23a4 4 0 01-.48 2.26 1.79 1.79 0 01-2.67 0 4 4 0 01-.5-2.26 3.24 3.24 0 01.45-1.85 1.76 1.76 0 012.76 0 3.27 3.27 0 01.49 1.87zm-5.24 1.23a.73.73 0 00-.35-.69 1.88 1.88 0 00-.87-.15h-.45v1.76h.52a1.55 1.55 0 00.87-.2.86.86 0 00.28-.72zm-.14-2.26a.62.62 0 00-.33-.61 1.88 1.88 0 00-.79-.12h-.41v1.56h.44a1.57 1.57 0 00.8-.15.75.75 0 00.29-.68zm.86 2.31a1.29 1.29 0 01-.55 1.19 2.77 2.77 0 01-1.39.27h-1.18v-5.1h1.48a2.83 2.83 0 01.62.06 1 1 0 01.45.22 1.17 1.17 0 01.44 1 1.32 1.32 0 01-.17.7 1 1 0 01-.54.44 1.22 1.22 0 01.63.45 1.36 1.36 0 01.21.77zm-5-1a4 4 0 00-.24-1.64.85.85 0 00-.82-.49.83.83 0 00-.81.49 3.83 3.83 0 00-.25 1.64 3.89 3.89 0 00.19 1.45.88.88 0 00.85.56.87.87 0 00.85-.56 3.78 3.78 0 00.21-1.48zm.77-.23a4 4 0 01-.49 2.26 1.55 1.55 0 01-1.34.6 1.52 1.52 0 01-1.32-.6 3.91 3.91 0 01-.51-2.26 3.24 3.24 0 01.46-1.85 1.55 1.55 0 011.37-.66 1.59 1.59 0 011.39.67 3.27 3.27 0 01.42 1.81zm-7.33 2.19v2.26h-.74v-6.86h.7v.57a1.34 1.34 0 01.46-.53 1.1 1.1 0 01.61-.17 1.41 1.41 0 011.32.77 3.23 3.23 0 01.35 1.57 5.78 5.78 0 01-.29 2.06 1.37 1.37 0 01-1.34 1 1.08 1.08 0 01-.62-.16 2 2 0 01-.47-.54zm2-2.11a4.1 4.1 0 00-.24-1.27c-.16-.49-.44-.74-.85-.74s-.78.36-.89 1.08a6.93 6.93 0 00-.07 1 5.74 5.74 0 00.11 1.31c.14.52.43.78.86.78A.81.81 0 0042 32a4.51 4.51 0 00.18-1.63zm-4 2.64h-.73v-4.5h-1.86V33h-.73v-5.1h3.25zM33 30.52a4 4 0 00-.24-1.64.93.93 0 00-1.64 0 4 4 0 00-.25 1.64 3.85 3.85 0 00.24 1.48.93.93 0 001.7 0 3.78 3.78 0 00.19-1.48zm.76-.23a4 4 0 01-.48 2.26 1.56 1.56 0 01-1.34.6 1.52 1.52 0 01-1.32-.6 3.91 3.91 0 01-.51-2.26 3.16 3.16 0 01.46-1.85 1.75 1.75 0 012.75 0 3.19 3.19 0 01.46 1.85zm-4.6-2.09h-.76a1.9 1.9 0 00-.26-1.07 1.12 1.12 0 00-1-.45c-.58 0-1 .35-1.17 1.06a6.83 6.83 0 00-.17 1.73 8.3 8.3 0 00.2 1.86c.19.77.59 1.16 1.19 1.16a1 1 0 00.9-.46 2.49 2.49 0 00.29-1l.05-.47h.76v.42a3.56 3.56 0 01-.08.79 2.26 2.26 0 01-.32.67 2 2 0 01-.64.57 1.82 1.82 0 01-.86.2 1.91 1.91 0 01-1.5-.59 2.7 2.7 0 01-.59-1.41 10.65 10.65 0 01-.1-1.69 7.82 7.82 0 01.13-1.59 2.92 2.92 0 01.61-1.35 1.88 1.88 0 011.39-.58 1.77 1.77 0 011.46.63 2.38 2.38 0 01.49 1.57zm-10.09 4.28v2.26h-.73v-6.83H19v.57a1.42 1.42 0 01.5-.48 1.1 1.1 0 01.61-.17 1.43 1.43 0 011.33.77 3.23 3.23 0 01.34 1.57 5.56 5.56 0 01-.29 2.06 1.36 1.36 0 01-1.34 1 1 1 0 01-.61-.16 1.81 1.81 0 01-.47-.59zM21 30.37a4.5 4.5 0 00-.14-1.24c-.16-.49-.44-.74-.85-.74s-.79.36-.9 1.08a7.05 7.05 0 00-.06 1 5.21 5.21 0 00.11 1.31c.14.52.42.78.86.78a.8.8 0 00.77-.56 4.51 4.51 0 00.21-1.63zm-3.5-1.86h-1.23V33h-.72v-4.5H14.3v-.6h3.22zM13.45 33h-.72v-2.4h-1.8V33h-.72v-5.1h.72V30h1.8v-2.1h.72zm-5.08-1.68h.68a2.06 2.06 0 01-.37 1.29 1.37 1.37 0 01-1.17.54 1.35 1.35 0 01-1.19-.58 3.77 3.77 0 01-.46-2.12 4.31 4.31 0 01.3-1.74 1.39 1.39 0 011.33-.93 1.34 1.34 0 011.41.92 5.86 5.86 0 01.19 1.83H6.62v.35A3.27 3.27 0 006.75 32a.78.78 0 00.78.57.71.71 0 00.68-.4 1.76 1.76 0 00.16-.85zm-1.75-1.39h1.71a3.34 3.34 0 00-.1-1 .71.71 0 00-.73-.55.74.74 0 00-.75.54 2.87 2.87 0 00-.13 1.01zm-1.88 2.4h.42V34h-.73v-1H.58v-6.87h.76v6.2H4v-6.2h.76zM84.38 41v.52h-.16a1.39 1.39 0 01-.67-.11.82.82 0 01-.25-.62 1.49 1.49 0 01-.47.59 1.16 1.16 0 01-.69.24 1.21 1.21 0 01-1-.38 1.82 1.82 0 01-.29-1.11 1.47 1.47 0 01.18-.76 1.23 1.23 0 01.55-.48l1.12-.45a2 2 0 00.42-.19.28.28 0 00.12-.19 3 3 0 000-.39.88.88 0 00-.18-.62.91.91 0 00-.63-.18.7.7 0 00-.6.2 1.23 1.23 0 00-.15.7H81a1.31 1.31 0 011.52-1.51 1.33 1.33 0 011.19.5 1.4 1.4 0 01.2.77v3a1.47 1.47 0 000 .25.2.2 0 00.11.13h.15zm-1.2-1v-1.18l-.53.27-.58.27a.74.74 0 00-.38.36 1.27 1.27 0 00-.11.52 1 1 0 00.16.63.65.65 0 00.56.21.79.79 0 00.54-.2 1 1 0 00.34-.83zm-6.35 0a.7.7 0 00-.35-.68 1.81 1.81 0 00-.88-.16h-.45V41h.53a1.47 1.47 0 00.87-.2.83.83 0 00.28-.75zm-.14-2.25a.62.62 0 00-.33-.61 1.91 1.91 0 00-.79-.12h-.42v1.55h.44a1.56 1.56 0 00.8-.14.73.73 0 00.3-.63zm.86 2.3a1.26 1.26 0 01-.55 1.23 2.67 2.67 0 01-1.4.28h-1.18v-5.08h1.49a2.73 2.73 0 01.61.05 1 1 0 01.46.22 1.18 1.18 0 01.45 1 1.33 1.33 0 01-.18.7 1 1 0 01-.54.44 1.16 1.16 0 01.63.44 1.36 1.36 0 01.21.77zm-6.5-3H69.8v4.49h-.73v-4.47h-1.25v-.59h3.23zM63.18 37c-.45 0-.75.29-.89.87a6.77 6.77 0 00-.11 1.42 3.65 3.65 0 00.14 1.17.84.84 0 00.83.67.76.76 0 00.75-.41 2 2 0 00.16-.88h.69a2.37 2.37 0 01-.34 1.32 1.37 1.37 0 01-1.2.59 1.52 1.52 0 01-1.48-.82 4.1 4.1 0 01-.31-1.8 3.6 3.6 0 01.52-2.2 1.52 1.52 0 011.25-.54 1.37 1.37 0 011.14.51 1.94 1.94 0 01.38 1.23H64a1.45 1.45 0 00-.16-.77.74.74 0 00-.66-.36zm-6.83 2.26h-.56V41h.34a2.2 2.2 0 00.92-.13.8.8 0 00.36-.77.75.75 0 00-.28-.69 1.42 1.42 0 00-.78-.2zm1.79.83a1.35 1.35 0 01-.48 1.18 1.39 1.39 0 01-.56.26 3 3 0 01-.62.08h-1.41v-5.13h.72v2.14h.5a2.48 2.48 0 011.37.28 1.28 1.28 0 01.48 1.1zm-7 1.52h-.73v-4.54h-1.49v2.63a2.7 2.7 0 01-.35 1.64 1.15 1.15 0 01-.94.36V41a.49.49 0 00.52-.37 4.94 4.94 0 00.07-1.1v-3.05h3zm-7.47-1.69h.68a2.14 2.14 0 01-.35 1.24 1.39 1.39 0 01-1.18.54 1.38 1.38 0 01-1.19-.58A3.74 3.74 0 0141.2 39a4.14 4.14 0 01.31-1.74 1.38 1.38 0 011.33-.93 1.36 1.36 0 011.42.92 6.24 6.24 0 01.18 1.82H42v.35a3.63 3.63 0 00.12 1.09.8.8 0 00.8.56.72.72 0 00.68-.39 1.76 1.76 0 00.12-.81zM42 38.49h1.73a3.72 3.72 0 00-.1-1 .73.73 0 00-.74-.55.76.76 0 00-.77.54 3.19 3.19 0 00-.12 1.01zm-3.9-1.42h-1.25v4.49h-.73v-4.49h-1.25v-.59h3.23zm-6.6 4.49h-.7v-4.75c0 .18-.07.31-.1.41-.08.31-.14.51-.17.62l-1.29 3.72h-1.03v-5.08h.71v4.59c0-.12.05-.23.08-.33s.07-.24.13-.41l1.33-3.85h1.04zm-7.71-2.49a3.94 3.94 0 00-.24-1.63.95.95 0 00-1.66 0 3.81 3.81 0 00-.25 1.63 3.66 3.66 0 00.22 1.46.95.95 0 001.72 0 3.78 3.78 0 00.21-1.46zm.76-.23a3.86 3.86 0 01-.49 2.25 1.77 1.77 0 01-2.67 0 3.86 3.86 0 01-.5-2.25 3.23 3.23 0 01.45-1.84 1.77 1.77 0 012.77 0 3.2 3.2 0 01.44 1.84zM14.67 41v2.25h-.73v-6.8h.7V37a1.38 1.38 0 01.46-.52 1.12 1.12 0 01.62-.18 1.43 1.43 0 011.32.78 3.16 3.16 0 01.35 1.56 5.76 5.76 0 01-.29 2 1.4 1.4 0 01-1.35 1 1.13 1.13 0 01-.61-.16 1.81 1.81 0 01-.47-.48zm2-2.1a4.05 4.05 0 00-.15-1.24c-.16-.49-.45-.74-.86-.74s-.79.36-.9 1.08a6.85 6.85 0 00-.06 1 5.12 5.12 0 00.11 1.3c.14.51.43.77.86.77a.8.8 0 00.78-.55 4.23 4.23 0 00.19-1.59zm-6.07-1.86H9.32v4.49h-.73v-4.46H7.34v-.59h3.23zm-6.43-.31h-.79a1.86 1.86 0 00-.26-1.06 1.12 1.12 0 00-1-.45q-.87 0-1.17 1A6.33 6.33 0 00.79 38a8.2 8.2 0 00.15 1.85c.19.77.59 1.16 1.2 1.16a1 1 0 00.9-.46 2.49 2.49 0 00.29-1v-.47h.76v.42a3 3 0 01-.09.79 2.13 2.13 0 01-.3.71 1.91 1.91 0 01-.64.57 1.84 1.84 0 01-.86.19 1.92 1.92 0 01-1.51-.58 2.79 2.79 0 01-.59-1.45 10.6 10.6 0 01-.1-1.68 7.65 7.65 0 01.13-1.58 2.74 2.74 0 01.62-1.35 1.88 1.88 0 011.44-.55 1.77 1.77 0 011.46.63 2.33 2.33 0 01.49 1.56z"/></g></g></svg>