<svg xmlns="http://www.w3.org/2000/svg" viewBox="0 0 12.14 12.14"><g data-name="Layer 2"><g data-name="Слой 1"><path d="M9 5.16a2 2 0 00-.54-1.9 2 2 0 00-1.9-.54l.16.69A1.32 1.32 0 018.3 5z"/><path d="M9.05 2.66a2.92 2.92 0 01.78 2.74l.69.16A3.65 3.65 0 008 1.22a3.66 3.66 0 00-1.8 0l.16.69a2.92 2.92 0 012.69.75zM8.88 6.7L7.55 8a12.13 12.13 0 01-1.87-1.51 12 12 0 01-1.57-1.91l1.33-1.33L2.19 0 .52 1.67c-.63.68-.68 1.84-.13 3.25A12.47 12.47 0 003.17 9a12.09 12.09 0 004.08 2.8 5 5 0 001.75.34 2.08 2.08 0 001.52-.56L12.14 10zm2.25 3.3l-.73.73-2.25-2.29.73-.74zm-6.7-6.7l-.72.7-2.25-2.27.73-.73zm3.07 7.81a11.79 11.79 0 01-3.83-2.64A11.71 11.71 0 011 4.67a2.65 2.65 0 010-2.43l2.21 2.24.15.24A13.13 13.13 0 005.17 7a12.82 12.82 0 002.24 1.8l.24.15 2.23 2.24a2.67 2.67 0 01-2.38-.08z"/></g></g></svg>