<svg xmlns="http://www.w3.org/2000/svg" viewBox="0 0 12.16 12.16"><g data-name="Layer 2"><path d="M10.38 1.78a6.08 6.08 0 00-8.6 8.6 6.08 6.08 0 008.6-8.6zm-8.31.74a5.42 5.42 0 001.11.77 10.4 10.4 0 00-.34 2.43H.72a5.39 5.39 0 011.35-3.2zm6.69.08a7 7 0 00-.32-.73A5.12 5.12 0 007.92 1a5.24 5.24 0 011.66 1 4.29 4.29 0 01-.69.5zm-3 .65a5.4 5.4 0 01-1.71-.35 6.58 6.58 0 01.3-.71A2.67 2.67 0 015.72.77zm0 .72v1.75H3.55a9.7 9.7 0 01.29-2.14A6.31 6.31 0 005.72 4zm0 2.47v1.75a6.65 6.65 0 00-1.88.38 9.52 9.52 0 01-.29-2.13zm0 2.47v2.48A2.67 2.67 0 014.35 10a6.58 6.58 0 01-.3-.71 5.3 5.3 0 011.67-.38zm.72 0a5.4 5.4 0 011.67.35 6.58 6.58 0 01-.3.71 2.67 2.67 0 01-1.37 1.42zm0-.72V6.44h2.13a9.52 9.52 0 01-.29 2.13 6.65 6.65 0 00-1.88-.38zm0-2.47V4a6.31 6.31 0 001.88-.39 9.7 9.7 0 01.29 2.14zm0-2.47V.77a2.67 2.67 0 011.33 1.42 6.58 6.58 0 01.3.71 5.4 5.4 0 01-1.67.35zM3.72 1.87a7 7 0 00-.32.73l-.13-.08A3.88 3.88 0 012.58 2a5.24 5.24 0 011.66-1 5.12 5.12 0 00-.52.87zm-.88 4.57a10.48 10.48 0 00.34 2.43 5.42 5.42 0 00-1.11.77 5.39 5.39 0 01-1.35-3.2zm.56 3.12a7 7 0 00.32.73 5.12 5.12 0 00.52.83 5.24 5.24 0 01-1.66-1 4.8 4.8 0 01.82-.56zm5 .73a7 7 0 00.32-.73l.13.08a4.29 4.29 0 01.69.5 5.24 5.24 0 01-1.66 1 5.12 5.12 0 00.56-.85zm1.65-.65A5.42 5.42 0 009 8.87a10.48 10.48 0 00.34-2.43h2.11a5.32 5.32 0 01-1.36 3.2zm-.73-3.92A10.4 10.4 0 009 3.29a5.42 5.42 0 001.11-.77 5.32 5.32 0 011.34 3.2z" data-name="Слой 1"/></g></svg>