<svg xmlns="http://www.w3.org/2000/svg" viewBox="0 0 38.11 39.91"><defs><style>.cls-1{fill:#c9c8c7;}.cls-2{font-size:31.34px;fill:#fff;stroke:#ff9300;stroke-miterlimit:10;font-family:RobotoCondensed-Bold, Roboto Condensed;font-weight:700;}</style></defs><g id="Слой_2" data-name="Слой 2"><g id="Слой_1-2" data-name="Слой 1"><path class="cls-1" d="M10,39.91a.47.47,0,0,1-.46-.46V37.67a.46.46,0,0,1,.46-.46.45.45,0,0,1,.46.46V39H23.14a2,2,0,0,1-.29-1V23.49a1.95,1.95,0,0,1,1.94-1.94h2.69V12.93a.46.46,0,1,1,.91,0v8.62h7.78a1.95,1.95,0,0,1,1.94,1.94V38a1.95,1.95,0,0,1-1.94,1.94ZM25,35.35h2.44a.46.46,0,0,1,.46.45v1.81a.47.47,0,0,1-.46.46H25a.47.47,0,0,1-.46-.46V35.8A.46.46,0,0,1,25,35.35Zm2,.91H25.5v.89H27v-.89Zm6.46-.91h2.44a.45.45,0,0,1,.45.45v1.81a.46.46,0,0,1-.45.46H33.48a.46.46,0,0,1-.46-.46V35.8A.45.45,0,0,1,33.48,35.35Zm2,.91H33.94v.89h1.52Zm-6.2-.91H31.7a.45.45,0,0,1,.45.45v1.81a.46.46,0,0,1-.45.46H29.26a.46.46,0,0,1-.46-.46V35.8A.45.45,0,0,1,29.26,35.35Zm2,.91H29.72v.89h1.52ZM25,31.76h2.44a.46.46,0,0,1,.46.46V34a.46.46,0,0,1-.46.46H25a.46.46,0,0,1-.46-.46v-1.8A.46.46,0,0,1,25,31.76Zm2,.92H25.5v.89H27v-.89Zm6.46-.92h2.44a.45.45,0,0,1,.45.46V34a.45.45,0,0,1-.45.46H33.48A.45.45,0,0,1,33,34v-1.8A.45.45,0,0,1,33.48,31.76Zm2,.92H33.94v.89h1.52Zm-6.2-.92H31.7a.45.45,0,0,1,.45.46V34a.45.45,0,0,1-.45.46H29.26A.45.45,0,0,1,28.8,34v-1.8A.45.45,0,0,1,29.26,31.76Zm2,.92H29.72v.89h1.52ZM25,28.17h2.44a.47.47,0,0,1,.46.46v1.81a.47.47,0,0,1-.46.46H25a.47.47,0,0,1-.46-.46V28.63A.47.47,0,0,1,25,28.17Zm2,.92H25.5V30H27v-.89Zm6.46-.92h2.44a.46.46,0,0,1,.45.46v1.81a.46.46,0,0,1-.45.46H33.48a.46.46,0,0,1-.46-.46V28.63A.46.46,0,0,1,33.48,28.17Zm2,.92H33.94V30h1.52Zm-6.2-.92H31.7a.46.46,0,0,1,.45.46v1.81a.46.46,0,0,1-.45.46H29.26a.46.46,0,0,1-.46-.46V28.63A.46.46,0,0,1,29.26,28.17Zm2,.92H29.72V30h1.52Zm-1.8-2.7a.47.47,0,0,1,.46.46.46.46,0,0,1-.46.46H25a.46.46,0,0,1-.46-.46v-3a.47.47,0,0,1,.46-.46H35.92a.46.46,0,0,1,.45.46v3a.45.45,0,0,1-.45.46h-4.4a.45.45,0,0,1-.46-.46.46.46,0,0,1,.46-.46h3.94V24.27h-10v2.12Zm-12,8.5a.46.46,0,1,1,0-.91h3.8a.46.46,0,1,1,0,.91Zm0-4.15a.46.46,0,0,1,0-.92h3.8a.46.46,0,1,1,0,.92Zm0-4.15a.46.46,0,0,1,0-.92h3.8a.46.46,0,1,1,0,.92Zm0-4.16a.46.46,0,1,1,0-.91h3.8a.46.46,0,1,1,0,.91ZM12,34.76a.46.46,0,0,1,0-.65.45.45,0,0,1,.64,0l.66.65,1.63-1.63a.46.46,0,1,1,.65.65l-2,2a.46.46,0,0,1-.65,0Zm0-4.16a.45.45,0,1,1,.64-.64l.66.65L14.9,29a.46.46,0,1,1,.65.65l-2,1.95a.46.46,0,0,1-.65,0Zm0-4.15a.46.46,0,0,1,0-.65.47.47,0,0,1,.64,0l.66.66,1.63-1.63a.46.46,0,0,1,.65,0,.45.45,0,0,1,0,.64l-2,2a.46.46,0,0,1-.65,0Zm0-4.15a.46.46,0,0,1,0-.65.45.45,0,0,1,.64,0l.66.66,1.63-1.64a.46.46,0,1,1,.65.65l-2,2a.46.46,0,0,1-.65,0Zm8.87-11a3.27,3.27,0,0,1,2.32,1,3.28,3.28,0,0,1,0,4.64,3.27,3.27,0,0,1-2.32,1,3.21,3.21,0,0,1-1.88-.6,2.76,2.76,0,0,1-.72.38,3.19,3.19,0,0,1-1.16.22,3.28,3.28,0,0,1,0-6.56,3.14,3.14,0,0,1,1.15.22,2.82,2.82,0,0,1,.73.38A3.21,3.21,0,0,1,20.84,11.25Zm-2.56,5.32a3.29,3.29,0,0,1,0-4.08l-.37-.17a2.23,2.23,0,0,0-.83-.15,2.36,2.36,0,0,0-1.67,4,2.35,2.35,0,0,0,1.67.69,2.32,2.32,0,0,0,.84-.15Zm4.23-3.71a2.37,2.37,0,0,0-1.67-.69,2.35,2.35,0,0,0-1.66,4,2.31,2.31,0,0,0,1.66.69,2.36,2.36,0,0,0,1.67-4ZM24.79,39H36.17a1,1,0,0,0,1-1V23.49a1,1,0,0,0-.3-.72,1,1,0,0,0-.72-.3H24.79a1,1,0,0,0-.72.3,1,1,0,0,0-.31.72V38a1,1,0,0,0,.31.72A1,1,0,0,0,24.79,39Zm-14.34-3.4a.45.45,0,0,1-.46.46.47.47,0,0,1-.46-.46V9.07A.46.46,0,0,1,10,8.62H27.93a.45.45,0,0,1,.46.45v1.78a.46.46,0,1,1-.91,0V9.53h-17Z"/><text class="cls-2" transform="translate(0.5 27.31)">3</text></g></g></svg>