<svg xmlns="http://www.w3.org/2000/svg" viewBox="0 0 36.83 44.64"><defs><style>.cls-1{fill:#c9c8c7;}.cls-2{font-size:31.34px;fill:#fff;stroke:#ff9300;stroke-miterlimit:10;font-family:RobotoCondensed-Bold, Roboto Condensed;font-weight:700;}</style></defs><g id="Слой_2" data-name="Слой 2"><g id="Слой_1-2" data-name="Слой 1"><path class="cls-1" d="M33.9,35.84H32.43V35a2.92,2.92,0,0,0,1.47-2.54V30s0,0,0,0a3,3,0,0,0-.85-2A2.91,2.91,0,0,0,31,27V16.78a.49.49,0,0,0-.49-.49H22.55a6.82,6.82,0,0,0-4.79-2,.49.49,0,0,0-.49.49v1.47h-.49a.48.48,0,0,0-.49-.49,6.63,6.63,0,0,0-2.53.49H11.89a.48.48,0,0,0-.48.49v1.08a6.83,6.83,0,0,0,0,9.57V44.16a.47.47,0,0,0,.48.48H36.34a.48.48,0,0,0,.49-.48V38.78A2.94,2.94,0,0,0,33.9,35.84Zm-1-3.42a2,2,0,1,1-3.91,0V31h.38a9.05,9.05,0,0,0,3.53-.78Zm-1.47,2.89v1a.49.49,0,1,1-1,0v-1A2.69,2.69,0,0,0,31.45,35.31ZM31,28a2,2,0,0,1,1.78,1.18,9.14,9.14,0,0,1-2.86.78A6.31,6.31,0,0,1,29,30h0A2,2,0,0,1,31,28ZM18.25,15.33a5.88,5.88,0,0,1,5.36,5.36H18.25Zm-7.82,7.31a5.86,5.86,0,0,1,5.38-5.84v5.84a.48.48,0,0,0,.48.49h5.85a5.87,5.87,0,0,1-11.71-.49ZM25.1,38.78v4.89H12.38V28.26a6.84,6.84,0,0,0,10.76-5.62.49.49,0,0,0-.49-.49H16.78V17.27h.49v3.91a.49.49,0,0,0,.49.49h6.36a.49.49,0,0,0,.49-.49,6.82,6.82,0,0,0-1.23-3.91H30v9.94A2.94,2.94,0,0,0,28,30v2.44A2.92,2.92,0,0,0,29.5,35v.88H28A2.94,2.94,0,0,0,25.1,38.78Zm10.75,4.89h-1v-4.4a.49.49,0,0,0-.49-.49.48.48,0,0,0-.48.49v4.4H28v-4.4a.49.49,0,0,0-1,0v4.4h-1V38.78a2,2,0,0,1,2-2h1.55a1.46,1.46,0,0,0,1.87.9,1.45,1.45,0,0,0,.89-.9H33.9a2,2,0,0,1,2,2Z"/><path class="cls-1" d="M16.29,37.31H14.34a.49.49,0,0,0-.49.49v4.4a.49.49,0,0,0,.49.49h1.95a.48.48,0,0,0,.49-.49V37.8A.48.48,0,0,0,16.29,37.31Zm-.48,4.4h-1V38.29h1Z"/><path class="cls-1" d="M19.72,35.84h-2a.49.49,0,0,0-.49.49V42.2a.49.49,0,0,0,.49.49h2a.49.49,0,0,0,.49-.49V36.33A.49.49,0,0,0,19.72,35.84Zm-.49,5.87h-1V36.82h1Z"/><path class="cls-1" d="M23.14,34.38h-2a.48.48,0,0,0-.48.49V42.2a.48.48,0,0,0,.48.49h2a.49.49,0,0,0,.49-.49V34.87A.49.49,0,0,0,23.14,34.38Zm-.49,7.33h-1V35.36h1Z"/><path class="cls-1" d="M25.5,29.21a.49.49,0,0,0-.68-.12h0L20.7,32v-1.5a.49.49,0,0,0-.49-.49.48.48,0,0,0-.26.07L13.59,34a.49.49,0,0,0,.51.84h0l5.61-3.45v1.57a.49.49,0,0,0,.77.4l4.89-3.42a.49.49,0,0,0,.12-.68Z"/><text class="cls-2" transform="translate(0.5 27.31)">4</text></g></g></svg>