<svg xmlns="http://www.w3.org/2000/svg" viewBox="0 0 37.57 44.64"><defs><style>.cls-1{fill:#c9c8c7;}.cls-2{font-size:31.34px;fill:#fff;stroke:#ff9300;stroke-miterlimit:10;font-family:RobotoCondensed-Bold, Roboto Condensed;font-weight:700;}</style></defs><g id="Слой_2" data-name="Слой 2"><g id="Слой_1-2" data-name="Слой 1"><path class="cls-1" d="M19,30H17.52v-.89A2.92,2.92,0,0,0,19,26.55V24.07a3,3,0,0,0-.86-2,2.86,2.86,0,0,0-2.08-.89,2.93,2.93,0,0,0-2.93,2.93v2.44a2.92,2.92,0,0,0,1.47,2.54V30H13.12a2.93,2.93,0,0,0-2.93,2.93v4.4a.49.49,0,0,0,.49.49H21.43a.49.49,0,0,0,.49-.49v-4.4A2.93,2.93,0,0,0,19,30ZM14.1,24.11a2,2,0,0,1,2-2,2,2,0,0,1,1.78,1.19,8.8,8.8,0,0,1-2.86.77,6.31,6.31,0,0,1-.87,0Zm0,2.44V25.09h.39A9,9,0,0,0,18,24.32v2.23a2,2,0,1,1-3.91,0Zm2.44,2.9v1a.48.48,0,0,1-.49.48.47.47,0,0,1-.48-.48v-1A3.16,3.16,0,0,0,16.54,29.45Zm4.4,7.37H20V33.4a.49.49,0,0,0-1,0v3.42H13.12V33.4a.49.49,0,0,0-1,0v3.42h-1V32.91a2,2,0,0,1,1.95-2h1.55a1.46,1.46,0,0,0,1.87.9,1.49,1.49,0,0,0,.9-.9H19a2,2,0,0,1,2,2Z"/><path class="cls-1" d="M32.19,20.2h4.89a.49.49,0,0,0,.49-.49V14.82a.49.49,0,0,0-.49-.49H32.19a.49.49,0,0,0-.49.49v2H28.28a.49.49,0,0,0-.49.49V29H22.41a.49.49,0,1,0,0,1h5.38V41.71a.49.49,0,0,0,.49.49H31.7v2a.48.48,0,0,0,.49.48h4.89a.48.48,0,0,0,.49-.48V39.27a.49.49,0,0,0-.49-.49H32.19a.49.49,0,0,0-.49.49v1.95H28.77V30H31.7v1.95a.49.49,0,0,0,.49.49h4.89a.49.49,0,0,0,.49-.49V27a.49.49,0,0,0-.49-.49H32.19a.49.49,0,0,0-.49.49v2H28.77V17.75H31.7v2A.49.49,0,0,0,32.19,20.2Zm.49,19.56h3.91v3.91H32.68Zm0-12.23h3.91v3.91H32.68Zm0-12.22h3.91v3.91H32.68Z"/><text class="cls-2" transform="translate(0.5 27.31)">6</text></g></g></svg>