<svg xmlns="http://www.w3.org/2000/svg" viewBox="0 0 18.56 17.11"><defs><style>.cls-1{fill:#f38118;}</style></defs><g id="Слой_2" data-name="Слой 2"><g id="Слой_1-2" data-name="Слой 1"><path class="cls-1" d="M9.28,7.62a2.64,2.64,0,1,0,2.64,2.64A2.64,2.64,0,0,0,9.28,7.62Zm0,4.11a1.47,1.47,0,1,1,1.47-1.47A1.47,1.47,0,0,1,9.28,11.73Z"/><path class="cls-1" d="M9.28,11.71a3.94,3.94,0,0,0-3.93,3.94v.88a.59.59,0,0,0,1.17,0v-.88a2.76,2.76,0,0,1,5.52,0v.88a.59.59,0,0,0,1.18,0v-.88A4,4,0,0,0,9.28,11.71Z"/><path class="cls-1" d="M9.28,0a2.65,2.65,0,1,0,2.64,2.64A2.64,2.64,0,0,0,9.28,0Zm0,4.11a1.47,1.47,0,1,1,1.47-1.47A1.47,1.47,0,0,1,9.28,4.11Z"/><path class="cls-1" d="M9.28,4.09A3.94,3.94,0,0,0,5.35,8v.88a.59.59,0,1,0,1.17,0V8A2.76,2.76,0,0,1,12,8v.88a.59.59,0,0,0,1.18,0V8A4,4,0,0,0,9.28,4.09Z"/><path class="cls-1" d="M14.63,5.84a2.64,2.64,0,1,0,2.64,2.64A2.65,2.65,0,0,0,14.63,5.84Zm0,4.11A1.47,1.47,0,1,1,16.1,8.48,1.47,1.47,0,0,1,14.63,10Z"/><path class="cls-1" d="M14.63,9.93a4,4,0,0,0-3.82,3,.59.59,0,0,0,.42.71.6.6,0,0,0,.72-.42,2.76,2.76,0,0,1,5.44.67v.89a.59.59,0,0,0,1.17,0v-.89A3.93,3.93,0,0,0,14.63,9.93Z"/><path class="cls-1" d="M3.94,5.84A2.64,2.64,0,1,0,6.58,8.48,2.65,2.65,0,0,0,3.94,5.84Zm0,4.11A1.47,1.47,0,1,1,5.4,8.48,1.47,1.47,0,0,1,3.94,10Z"/><path class="cls-1" d="M7.74,12.88a3.93,3.93,0,0,0-7.74,1v.89a.58.58,0,0,0,.59.58.58.58,0,0,0,.58-.58v-.89a2.76,2.76,0,0,1,5.43-.69.59.59,0,0,0,1.14-.29Z"/></g></g></svg>