<svg xmlns="http://www.w3.org/2000/svg" viewBox="0 0 14.07 14.09"><defs><style>.cls-1{fill:#f99d31;}</style></defs><g id="Слой_2" data-name="Слой 2"><g id="Слой_1-2" data-name="Слой 1"><path class="cls-1" d="M13.9,12.06,13,10.41V7.53a.55.55,0,1,0-1.09,0V10H2.22V3.52H4.89A.55.55,0,0,0,5.44,3a.55.55,0,0,0-.55-.55H1.67A.55.55,0,0,0,1.12,3v7.34L.17,12.06a1.38,1.38,0,0,0,0,1.35,1.4,1.4,0,0,0,1.21.68H12.69a1.36,1.36,0,0,0,1.18-.67A1.37,1.37,0,0,0,13.9,12.06Zm-1,.8a.28.28,0,0,1-.24.14H8.93a.56.56,0,0,0-.55-.52H5.66a.55.55,0,0,0-.55.52H1.4a.29.29,0,0,1-.26-.16.23.23,0,0,1,0-.25L2,11.07H12.1l.83,1.52A.25.25,0,0,1,12.93,12.86Zm-5-7h4.8a1.37,1.37,0,0,0,1.37-1.37V1.37A1.37,1.37,0,0,0,12.7,0H7.9A1.36,1.36,0,0,0,6.54,1.37V4.51A1.36,1.36,0,0,0,7.9,5.88Zm4.8-1.1H7.9a.27.27,0,0,1-.26-.27V2.13L9.58,3.34a1.34,1.34,0,0,0,1.44,0l2-1.21V4.51A.27.27,0,0,1,12.7,4.78ZM8.06,1.1h4.48l-2.1,1.3a.24.24,0,0,1-.28,0Z"/></g></g></svg>