<svg xmlns="http://www.w3.org/2000/svg" viewBox="0 0 13.69 13.69"><defs><style>.cls-1{fill:#f99d31;}</style></defs><g id="Слой_2" data-name="Слой 2"><g id="Слой_1-2" data-name="Слой 1"><path class="cls-1" d="M10,13.69h0A7.77,7.77,0,0,1,6.9,13a.53.53,0,0,1-.28-.7.52.52,0,0,1,.7-.28,7,7,0,0,0,2.64.62h0a3.28,3.28,0,0,0,2.38-.87h0a1,1,0,0,0,0-1.34C10.89,9,10.21,9.13,9.58,9.74l-1,1a.56.56,0,0,1-.6.11A11.29,11.29,0,0,1,5.07,8.69L5,8.62A11.1,11.1,0,0,1,2.85,5.7.56.56,0,0,1,3,5.1l1-1c.62-.63.72-1.31-.67-2.75a1,1,0,0,0-1.34,0h0a3.26,3.26,0,0,0-.87,2.41A9.11,9.11,0,0,0,4,9.7H4a12.26,12.26,0,0,0,1.18,1,.54.54,0,0,1,.09.75.55.55,0,0,1-.75.1,14.08,14.08,0,0,1-1.27-1.12h0A10.16,10.16,0,0,1,0,3.73,4.36,4.36,0,0,1,1.19.55l0,0h0a2,2,0,0,1,2.82.1,5,5,0,0,1,1.31,2,2.22,2.22,0,0,1-.64,2.27h0L4,5.58A10.66,10.66,0,0,0,5.76,7.86l.07.07A11.07,11.07,0,0,0,8.11,9.7L8.83,9h0a2.2,2.2,0,0,1,2.26-.64,5,5,0,0,1,2,1.31,2,2,0,0,1,.1,2.82v0l0,0A4.33,4.33,0,0,1,10,13.69Zm0-8.23h0A.53.53,0,0,0,9.49,6h0a.53.53,0,0,0,.54.53h0A.53.53,0,0,0,10.56,6h0A.53.53,0,0,0,10,5.46Zm.56-1.18v0a.43.43,0,0,1,.25-.39A2,2,0,0,0,12.06,2V2a2,2,0,0,0-4,0A.54.54,0,0,0,9.12,2,.94.94,0,1,1,11,2h0a1,1,0,0,1-.57.85,1.48,1.48,0,0,0-.9,1.37v0a.54.54,0,0,0,1.07,0Z"/></g></g></svg>