<svg xmlns="http://www.w3.org/2000/svg" viewBox="0 0 16.18 13.53"><defs><style>.cls-1{fill:#ff9300;}</style></defs><g id="Слой_2" data-name="Слой 2"><g id="Слой_1-2" data-name="Слой 1"><path class="cls-1" d="M16.12,5.14,13.24.23A.47.47,0,0,0,12.6.06l-1.73,1L9.32.49A1.76,1.76,0,0,0,7.85.61L5.49,2,3.4.77A.48.48,0,0,0,3,.72.49.49,0,0,0,2.75,1L.06,6a.48.48,0,0,0,.18.64l1.06.61-.53.93a1.42,1.42,0,0,0,1.52,2.1,1.46,1.46,0,0,0,.64.79,1.44,1.44,0,0,0,1,.16,1.4,1.4,0,0,0,.63.79,1.45,1.45,0,0,0,1,.16,1.42,1.42,0,0,0,2.58.27l.06-.11,1.78,1a1.42,1.42,0,0,0,1.94-.52,1.36,1.36,0,0,0,.18-.51,1.42,1.42,0,0,0,1.59-.66A1.32,1.32,0,0,0,13.9,11a1.42,1.42,0,0,0,1.31-.71,1.45,1.45,0,0,0,0-1.49,1.33,1.33,0,0,0,.44-.47,1.42,1.42,0,0,0-.47-1.91L16,5.74a.46.46,0,0,0,.11-.6ZM8.32,1.43A.83.83,0,0,1,9,1.38L10.75,2a.51.51,0,0,0,.4,0l1.51-.87,2.43,4.15L14.27,6,8.57,2.66a.44.44,0,0,0-.47,0L5.48,4.17A.48.48,0,0,1,5,3.35ZM1.76,9.27a.48.48,0,0,1-.17-.65l.79-1.37a.48.48,0,0,1,.82.48L2.41,9.1A.48.48,0,0,1,1.76,9.27Zm1.65,1a.48.48,0,0,1-.18-.65L4.34,7.66A.48.48,0,0,1,5,7.48a.48.48,0,0,1,.17.65L4.05,10.05A.47.47,0,0,1,3.41,10.22Zm1.64.95a.46.46,0,0,1-.17-.65l.79-1.37A.46.46,0,0,1,6.31,9a.48.48,0,0,1,.18.65L5.7,11A.48.48,0,0,1,5.05,11.17Zm1.64.95a.48.48,0,0,1-.17-.65L7,10.65a.47.47,0,1,1,.82.47l-.47.82A.48.48,0,0,1,6.69,12.12Zm7.7-2.27a.48.48,0,0,1-.65.17L11.28,8.6a.48.48,0,0,0-.65.17.47.47,0,0,0,.17.65l1.92,1.11a.48.48,0,0,1-.48.82l-1.91-1.11a.48.48,0,0,0-.48.82l1.1.63a.49.49,0,0,1,.17.65.48.48,0,0,1-.65.18l-1.78-1a1.42,1.42,0,0,0-.58-1.84,1.5,1.5,0,0,0-.61-.19,1.42,1.42,0,0,0-.71-1.3A1.32,1.32,0,0,0,6.17,8,1.42,1.42,0,0,0,4,6.7a1.33,1.33,0,0,0-.47-.44,1.4,1.4,0,0,0-1.66.18L1.11,6,3.35,1.83l1.19.69h0a1.42,1.42,0,0,0-.66.86A1.41,1.41,0,0,0,4,4.47a1.44,1.44,0,0,0,.86.67A1.45,1.45,0,0,0,6,5L8.34,3.62l6.27,3.62a.47.47,0,1,1-.47.82L12.22,7a.46.46,0,0,0-.64.17.47.47,0,0,0,.17.65L14.21,9.2a.48.48,0,0,1,.18.65Z"/></g></g></svg>