<svg xmlns="http://www.w3.org/2000/svg" viewBox="0 0 36.3 36.3"><defs><style>.cls-1{fill:#ff9300;}</style></defs><g id="Слой_2" data-name="Слой 2"><g id="Слой_1-2" data-name="Слой 1"><path class="cls-1" d="M25.06,17.45,32.51,10l.09-.15L36,.88,35.41.34l-9,3.35-.15.1-7.45,7.45L7.6,0,0,7.6,11.24,18.84,1.05,29a2.53,2.53,0,0,0,0,3.57l2.64,2.64A2.53,2.53,0,0,0,5.48,36a2.56,2.56,0,0,0,1.79-.74L17.45,25.06,28.69,36.3l7.61-7.61Zm-1.81-1.8,6.84-6.84,1.45,1-7.08,7.08ZM28,6.86l1.4,1.41-6.78,6.78-1.4-1.41Zm4,2.2L30.29,7.94,28.35,6,27.23,4.3l4.06-1.52a6.93,6.93,0,0,0,1,1.26,6.49,6.49,0,0,0,1.25,1ZM33.82,4.2a6,6,0,0,1-1-.76,5.77,5.77,0,0,1-.75-1l2.74-1Zm-7.3.55,1,1.47-6.83,6.83-1.21-1.21ZM13.05,20.65,5.41,28.28,4.2,27.07l7.64-7.63Zm-4.43,12-.53.54-5-5,.54-.54ZM6,28.88l7.63-7.63,1.41,1.4L7.41,30.29Zm.66,5.76a1.68,1.68,0,0,1-2.38,0L1.65,32a1.7,1.7,0,0,1,0-2.38l.82-.82,5,5Zm2.55-2.55L8,30.88l7.64-7.63,1.2,1.21ZM1.2,7.6,7.6,1.2,9.08,2.68,7.72,4l.59.6L9.68,3.27,11.21,4.8,9.84,6.16l.59.6L11.8,5.39l1.53,1.53-3,3,.6.6,3-3L15.45,9l-1.37,1.37.6.59L16,9.63l1.53,1.53L16.2,12.53l.6.59,1.36-1.37,1.53,1.53-3,3,.59.6,3-3,1.53,1.52-1.37,1.37.6.59L22.41,16l1.52,1.52-1.37,1.37.6.59,1.37-1.36,1.52,1.52-3,3,.59.6,3-3,1.52,1.52L26.8,23.13l.6.6,1.37-1.37,1.52,1.52-1.37,1.37.6.6,1.37-1.37L32.41,26l-3,3,.6.6,3-3,2.09,2.09L28.69,35.1Z"/><path class="cls-1" d="M5.78,15a.43.43,0,0,0-.5.33A12.8,12.8,0,0,0,5,18.15a13,13,0,0,0,.59,3.92.42.42,0,0,0,.4.3l.12,0a.42.42,0,0,0,.28-.53,12.65,12.65,0,0,1-.55-3.67,11.77,11.77,0,0,1,.28-2.6A.43.43,0,0,0,5.78,15Z"/><path class="cls-1" d="M15.55,6.11a12.37,12.37,0,0,1,6.26.28l.13,0a.43.43,0,0,0,.4-.3.42.42,0,0,0-.28-.53,13.29,13.29,0,0,0-6.7-.3.43.43,0,1,0,.19.83Z"/><path class="cls-1" d="M30.51,21.25h.09a.41.41,0,0,0,.41-.33,13.07,13.07,0,0,0-.3-6.7.43.43,0,0,0-.53-.28.43.43,0,0,0-.27.53,12.23,12.23,0,0,1,.56,3.67,12.47,12.47,0,0,1-.28,2.6A.42.42,0,0,0,30.51,21.25Z"/><path class="cls-1" d="M20.75,30.19a12.54,12.54,0,0,1-6.27-.28.42.42,0,0,0-.25.81,13.35,13.35,0,0,0,3.92.59,12.53,12.53,0,0,0,2.78-.3.42.42,0,0,0,.32-.5A.42.42,0,0,0,20.75,30.19Z"/></g></g></svg>