<svg xmlns="http://www.w3.org/2000/svg" viewBox="0 0 35.95 36.14"><defs><style>.cls-1{fill:#ff9300;}</style></defs><g id="Слой_2" data-name="Слой 2"><g id="Слой_1-2" data-name="Слой 1"><path class="cls-1" d="M31.52,7.84H8.59A4.31,4.31,0,0,0,0,8.27V31.84a4.31,4.31,0,0,0,4.31,4.3H36V12.27Zm.25,1.45L34.51,12H31.77ZM.84,8.27a3.47,3.47,0,1,1,6.93,0V28.69A3.85,3.85,0,0,0,5,27.53H4.31A4.3,4.3,0,0,0,.84,29.29ZM7.77,30.73A2.62,2.62,0,0,1,5,33.08H4.73V28.37H5A2.62,2.62,0,0,1,7.77,30.73ZM4.31,35.3a3.45,3.45,0,0,1-.42-6.88v5.5H5a3.45,3.45,0,0,0,3.65-3.19v-.15h0V8.69H30.93v4.18h4.18V35.3Z"/><path class="cls-1" d="M31.77,32.26V15L14.48,32.26Zm-.84-12h-.82v.85h.82V22.8h-.82v.85h.82v1.69h-.82v.84h.82v1.7h-.82v.84h.82v2.69h-2.7v-.82h-.84v.82H25.7v-.82h-.85v.82H23.16v-.82h-.85v.82H20.62v-.82h-.84v.82H16.52L30.93,17Z"/><path class="cls-1" d="M28.23,22.89,22.4,28.72h5.83Zm-.84,5H24.44l2.95-2.95Z"/><path class="cls-1" d="M15.17,25.16l.88,2.58.8-.27-2.46-7.25A1.44,1.44,0,0,0,15,19a1.47,1.47,0,0,0-1-1.4v-.84h-.85v.84a1.47,1.47,0,0,0-1,1.4,1.45,1.45,0,0,0,.62,1.2l-2.46,7.24.8.27.88-2.58a6.39,6.39,0,0,0,3.25,0Zm-1.63-6.75a.62.62,0,1,1-.62.62A.63.63,0,0,1,13.54,18.41Zm-1.35,5.93L13.5,20.5h.09l1.31,3.85A5.65,5.65,0,0,1,12.19,24.34Z"/><path class="cls-1" d="M18.36,21.1h.84V19.81H21V21.1h.84V19.81h2.22l.42-.43v-3H26.4v-.85H24.48V12.87h4.27V12H24.48V10.73h-.85V12H21.84V10.73H21V12H19.2V10.73h-.84V12H16.43v.85h1.93v2.62H16.43v.85h1.93ZM19.2,19V16.34H21V19Zm4.43,0H21.84V16.34h1.79Zm0-6.09v2.62H21.84V12.87Zm-4.43,0H21v2.62H19.2Z"/><path class="cls-1" d="M14.29,5.83H32.12a2.92,2.92,0,1,0,0-5.83H14.29l-.17,0L8.42,2.53V3.3l5.7,2.49ZM31.7,5h-.95V.84h.95ZM29.9,5H14.71V3.34H29.9Zm0-2.49H14.71V.84H29.9Zm-16,2.27-2.12-.92V2l2.12-.92ZM34.19,2.91a2.08,2.08,0,0,1-1.64,2V.89A2.07,2.07,0,0,1,34.19,2.91ZM10.91,2.36V3.47L9.65,2.91Z"/></g></g></svg>