<svg xmlns="http://www.w3.org/2000/svg" viewBox="0 0 35.94 35.72"><defs><style>.cls-1{fill:#ff9300;}</style></defs><g id="Слой_2" data-name="Слой 2"><g id="Слой_1-2" data-name="Слой 1"><polygon class="cls-1" points="6.5 22.87 5.9 22.28 3.98 24.2 3.48 23.71 2.89 24.3 3.98 25.39 6.5 22.87"/><rect class="cls-1" x="8.09" y="22.9" width="3.55" height="0.84"/><rect class="cls-1" x="5.84" y="25.57" width="5.8" height="0.84"/><rect class="cls-1" x="2.83" y="28.23" width="8.81" height="0.84"/><rect class="cls-1" x="2.83" y="30.9" width="8.81" height="0.84"/><path class="cls-1" d="M24.24,6.83a.42.42,0,0,0-.5-.32A19.94,19.94,0,0,1,19.48,7a19.92,19.92,0,0,1-4.25-.48.42.42,0,0,0-.5.32.43.43,0,0,0,.32.51,21,21,0,0,0,4.43.5,21,21,0,0,0,4.44-.5A.43.43,0,0,0,24.24,6.83Z"/><path class="cls-1" d="M32.14,23.21l-6.95-3.75a2,2,0,0,1-1.06-1.76V15.47a8,8,0,0,0,1.28-2.91A1.47,1.47,0,0,0,26.75,11v-.61A1.52,1.52,0,0,0,25.91,9c0-.25,0-.51-.06-.76a11.88,11.88,0,0,0,1.35-.5l.34-.15-.67-2.21-.77.25a8,8,0,0,0-4-4.4A1.4,1.4,0,0,0,20.76,0H18.21a1.4,1.4,0,0,0-1.33,1.27,8,8,0,0,0-4,4.4l-.77-.25-.67,2.21.34.15a12.56,12.56,0,0,0,1.36.5c0,.26-.06.51-.07.76a1.52,1.52,0,0,0-.84,1.39V11a1.47,1.47,0,0,0,1.34,1.52,7.76,7.76,0,0,0,1.28,2.91v2.22a2,2,0,0,1-.68,1.49l-3.47-3.47H.87a.87.87,0,0,0-.87.87V34.85a.87.87,0,0,0,.87.87h13a.87.87,0,0,0,.87-.87V33.16L15.92,35l.7-.47-1.9-2.84V25.26l4.19,9.63h1.15l6.07-14,1,.52.28,3.71L24.2,26.73,26,29.06l-3.63,5.42.71.47L27,29,25.5,27l2.77-1.37L28,21.93l3.76,2a6.39,6.39,0,0,1,3.36,5.63v5.14h.84V29.58A7.21,7.21,0,0,0,32.14,23.21ZM12.66,6.49l.73.23.14-.39a7.33,7.33,0,0,1,3.34-4.12V3.9a.42.42,0,0,0,.42.43.42.42,0,0,0,.42-.43V1.48a.59.59,0,0,1,.5-.64h2.55a.58.58,0,0,1,.5.64V3.9a.43.43,0,1,0,.85,0V2.21a7.44,7.44,0,0,1,3.34,4.12l.13.39.73-.23.2.66a20.5,20.5,0,0,1-7,1.31,20.58,20.58,0,0,1-7-1.31Zm.94,5.22a.61.61,0,0,1-.53-.67v-.61a.66.66,0,0,1,.47-.67l.36-.06V9.33a7.31,7.31,0,0,1,0-.8,21.19,21.19,0,0,0,5.54.77A21.25,21.25,0,0,0,25,8.53c0,.27,0,.54,0,.82v.36l.36,0a.66.66,0,0,1,.47.67V11a.61.61,0,0,1-.53.67h-.76v.43c0,1.13-1.87,5.29-5.13,5.29s-5.12-4.16-5.12-5.29v-.43Zm5.88,6.57a5.27,5.27,0,0,0,3.81-1.77V17.7a2.75,2.75,0,0,0,.41,1.46l-4.21,3.78-4.22-3.78a2.76,2.76,0,0,0,.41-1.47V16.52A5.27,5.27,0,0,0,19.48,18.28Zm.81,8.18H18.62l-.75-1.14,1.61-1.27,1.58,1.25Zm-9.36-9.31,2.34,2.34-2.34,0ZM.84,34.85l0-18.3h9.22v2.92a.87.87,0,0,0,.87.87h2.92l0,14.54Zm13.88-15h0l4.1,3.68-2.94,2.33-1.17-2.68Zm2.49,6L18,27l-.45,2.56-1.26-2.91Zm2.28,8.24-1.37-3.15.63-3.64h1.41L20.81,31Zm1.93-4.46L21,27l.77-1.16,1,.8Zm1.66-3.82-2.94-2.32,4.1-3.68a2.51,2.51,0,0,0,.55.4l.59.32Z"/></g></g></svg>