<svg xmlns="http://www.w3.org/2000/svg" viewBox="0 0 35.86 35.94"><defs><style>.cls-1{fill:#ff9300;}</style></defs><g id="Слой_2" data-name="Слой 2"><g id="Слой_1-2" data-name="Слой 1"><path class="cls-1" d="M32.74,10.24V7.59h-6L25.1,10.24H22.64v-8H20.16V0H2.48V2.28H0V35.94H35.86V10.24ZM3.32.84h16V2.28h-16Zm9.93,25.91H9.39v-.67h3.86Zm1.08.84V35.1h-6V27.59Zm-.24-.84V25.24H8.54v1.51H7.46V35.1H5.59V23.66H17.05V35.1H15.18V26.75ZM7.82,7.94v2.3H5.59V7.94ZM20.13,22.82H17.89v-2.3h2.24ZM14,17.37v2.3H11.74v-2.3Zm-2.23-.84v-2.3H14v2.3Zm3.08.84h2.23v2.3H14.82Zm0-.84v-2.3h2.23v2.3Zm0-3.15v-2.3h2.23v2.3Zm-.85,0H11.74v-2.3H14Zm-3.07,0H8.67v-2.3H10.9Zm0,.85v2.3H8.67v-2.3Zm0,3.14v2.3H8.67v-2.3Zm0,3.15v2.3H8.67v-2.3Zm.84,0H14v2.3H11.74Zm3.08,0h2.23v2.3H14.82Zm5.31-.85H17.89v-2.3h2.24Zm0-3.14H17.89v-2.3h2.24Zm0-3.15H17.89v-2.3h2.24Zm0-3.14H17.89V7.94h2.24Zm-3.08,0H14.82V7.94h2.23Zm-3.08,0H11.74V7.94H14Zm-3.07,0H8.67V7.94H10.9Zm-3.08.84v2.3H5.59v-2.3Zm0,3.15v2.3H5.59v-2.3Zm0,3.14v2.3H5.59v-2.3Zm0,3.15v2.3H5.59v-2.3Zm10.07,3.14h2.24V35.1H17.89ZM20.13,7.09H2.51V4.79H20.13ZM2.51,7.94H4.74v2.3H2.51Zm0,3.14H4.74v2.3H2.51Zm0,3.15H4.74v2.3H2.51Zm0,3.14H4.74v2.3H2.51Zm0,3.15H4.74v2.3H2.51Zm0,3.14H4.74V35.1H2.51ZM21.79,35.1H21V4H1.67V35.1H.84v-32h21ZM27.24,8.44H31.9v1.8H26.1ZM35,11.08v2.3H22.64v-2.3Zm-6.61,9.44v2.3H25.94v-2.3Zm-2.47-.85v-2.3h2.47v2.3Zm2.47,4V26H25.94v-2.3Zm.84,0h2.46V26H29.25Zm0-.84v-2.3h2.46v2.3Zm0-3.15v-2.3h2.46v2.3Zm0-3.14v-2.3h2.46v2.3Zm-.84,0H25.94v-2.3h2.47Zm-3.31,0H22.64v-2.3H25.1Zm0,.84v2.3H22.64v-2.3Zm0,3.15v2.3H22.64v-2.3Zm0,3.14V26H22.64v-2.3Zm0,3.15v2.3H22.64v-2.3Zm.84,0h2.47v2.3H25.94ZM28.41,30V35.1H25.94V30Zm.84,0h2.46V35.1H29.25Zm0-.84v-2.3h2.46v2.3Zm3.31-2.3H35v2.3H32.56Zm0-.85v-2.3H35V26Zm0-3.14v-2.3H35v2.3Zm0-3.15v-2.3H35v2.3Zm0-3.14v-2.3H35v2.3ZM22.64,30H25.1V35.1H22.64Zm9.92,5.15V30H35V35.1Z"/></g></g></svg>