<svg xmlns="http://www.w3.org/2000/svg" viewBox="0 0 53.09 53.21"><defs><style>.cls-1{fill:#686867;}</style></defs><g id="Слой_2" data-name="Слой 2"><g id="Слой_1-2" data-name="Слой 1"><path class="cls-1" d="M14,22.51a7,7,0,0,1-1.14-.09.57.57,0,0,1-.4-.29.56.56,0,0,1-.05-.49l.11-.31a4.48,4.48,0,0,0-.67-4.19l-1.28,3.62a.59.59,0,0,1-.39.36A.57.57,0,0,1,9.7,21a7.15,7.15,0,1,1,8.69,0,.57.57,0,0,1-.52.09.58.58,0,0,1-.39-.37l-1.27-3.61a4.45,4.45,0,0,0-.67,4.19l.11.31a.56.56,0,0,1-.05.49.61.61,0,0,1-.41.29A7,7,0,0,1,14,22.51Zm-.25-1.18h.52A5.61,5.61,0,0,1,16,15.65a.63.63,0,0,1,.56-.15.57.57,0,0,1,.43.35l1.3,3.69A5.85,5.85,0,0,0,20,15.37a6,6,0,1,0-11.93,0,5.91,5.91,0,0,0,1.71,4.17l1.31-3.7a.59.59,0,0,1,1-.21A5.62,5.62,0,0,1,13.79,21.33Z"/><path class="cls-1" d="M4,48.08h-.1l-.14,0H.59a.61.61,0,0,1-.48-.25A.61.61,0,0,1,0,47.24L11.1,15.84a.59.59,0,0,1,1-.21,5.61,5.61,0,0,1,1.6,6.09l-.11.31-9,25.66A.59.59,0,0,1,4,48.08ZM1.42,46.85H3.57l9-25.52a4.48,4.48,0,0,0-.67-4.19Z"/><path class="cls-1" d="M2.28,53.21h0a.58.58,0,0,1-.56-.4L0,47.61a.55.55,0,0,1,.09-.52.59.59,0,0,1,.47-.25H4a.59.59,0,0,1,.47.25.56.56,0,0,1,.09.53l-1.7,5.19A.59.59,0,0,1,2.28,53.21ZM1.4,48l.88,2.71L3.17,48Z"/><path class="cls-1" d="M24.11,48.05a.55.55,0,0,1-.54-.36l-9.14-26A5.6,5.6,0,0,1,16,15.65a.63.63,0,0,1,.56-.15.57.57,0,0,1,.43.35L28,47.12a.58.58,0,0,1-.5.91h-3.4Zm.41-1.2h2.15L16.21,17.14a4.45,4.45,0,0,0-.67,4.19Z"/><path class="cls-1" d="M25.82,53.21a.58.58,0,0,1-.56-.4l-1.7-5.19a.59.59,0,0,1,.08-.53.61.61,0,0,1,.48-.25H27.5a.61.61,0,0,1,.48.25.57.57,0,0,1,.08.52l-1.69,5.2a.57.57,0,0,1-.55.4ZM24.93,48l.88,2.71L26.69,48Z"/><path class="cls-1" d="M15,9.41H13.12a.59.59,0,0,1-.58-.5l-1-6.72V2.1A2.1,2.1,0,0,1,13.63,0h.84a2.1,2.1,0,0,1,2.1,2.1.28.28,0,0,1,0,.09l-1,6.72A.58.58,0,0,1,15,9.41ZM13.63,8.23h.84l.92-6.17a.92.92,0,0,0-.92-.88h-.84a.93.93,0,0,0-.93.88Z"/><path class="cls-1" d="M23.79,29.4H4.3a.58.58,0,0,1-.58-.59.59.59,0,0,1,.58-.59H23.79a.59.59,0,0,1,.59.59A.58.58,0,0,1,23.79,29.4Z"/><path class="cls-1" d="M14.05,31.75a1.68,1.68,0,0,1-1.68-1.68V27.22a1.68,1.68,0,0,1,3.36,0v2.85A1.68,1.68,0,0,1,14.05,31.75Zm0-5a.51.51,0,0,0-.51.51v2.85a.51.51,0,0,0,.51.51.5.5,0,0,0,.5-.51V27.22A.5.5,0,0,0,14.05,26.71Z"/><path class="cls-1" d="M34.37,43.51H28.25a.58.58,0,0,1-.59-.58V2.73a.58.58,0,0,1,.59-.59h6.12a.58.58,0,0,1,.59.59v40.2A.58.58,0,0,1,34.37,43.51Zm-5.53-1.17h4.94v-39H28.84Z"/><path class="cls-1" d="M31.5,6H28.25a.59.59,0,0,1-.59-.59.58.58,0,0,1,.59-.59H31.5a.59.59,0,0,1,.59.59A.6.6,0,0,1,31.5,6Z"/><path class="cls-1" d="M31.5,8.76H28.25a.58.58,0,0,1-.59-.59.59.59,0,0,1,.59-.59H31.5a.6.6,0,0,1,.59.59A.59.59,0,0,1,31.5,8.76Z"/><path class="cls-1" d="M31.5,14.2H28.25a.59.59,0,1,1,0-1.17H31.5a.59.59,0,1,1,0,1.17Z"/><path class="cls-1" d="M32.86,16.92H28.25a.59.59,0,1,1,0-1.17h4.61a.59.59,0,1,1,0,1.17Z"/><path class="cls-1" d="M32.86,30.53H28.25a.59.59,0,1,1,0-1.17h4.61a.59.59,0,1,1,0,1.17Z"/><path class="cls-1" d="M31.5,11.48H28.25a.58.58,0,0,1-.59-.59.59.59,0,0,1,.59-.59H31.5a.6.6,0,0,1,.59.59A.59.59,0,0,1,31.5,11.48Z"/><path class="cls-1" d="M31.5,19.65H28.25a.59.59,0,0,1-.59-.59.58.58,0,0,1,.59-.59H31.5a.59.59,0,0,1,.59.59A.6.6,0,0,1,31.5,19.65Z"/><path class="cls-1" d="M31.5,22.37H28.25a.59.59,0,0,1-.59-.59.58.58,0,0,1,.59-.59H31.5a.59.59,0,0,1,.59.59A.6.6,0,0,1,31.5,22.37Z"/><path class="cls-1" d="M31.5,27.81H28.25a.58.58,0,0,1-.59-.59.59.59,0,0,1,.59-.59H31.5a.6.6,0,0,1,.59.59A.59.59,0,0,1,31.5,27.81Z"/><path class="cls-1" d="M31.5,25.09H28.25a.58.58,0,0,1-.59-.59.59.59,0,0,1,.59-.59H31.5a.6.6,0,0,1,.59.59A.59.59,0,0,1,31.5,25.09Z"/><path class="cls-1" d="M31.5,33.55H28.25a.59.59,0,0,1-.59-.59.58.58,0,0,1,.59-.59H31.5a.59.59,0,0,1,.59.59A.6.6,0,0,1,31.5,33.55Z"/><path class="cls-1" d="M31.5,36.27H28.25a.58.58,0,0,1-.59-.59.59.59,0,0,1,.59-.59H31.5a.6.6,0,0,1,.59.59A.59.59,0,0,1,31.5,36.27Z"/><path class="cls-1" d="M31.5,41.71H28.25a.59.59,0,1,1,0-1.17H31.5a.59.59,0,1,1,0,1.17Z"/><path class="cls-1" d="M31.5,39H28.25a.58.58,0,0,1-.59-.59.59.59,0,0,1,.59-.59H31.5a.6.6,0,0,1,.59.59A.59.59,0,0,1,31.5,39Z"/><path class="cls-1" d="M34.36,41.56a.58.58,0,0,1-.59-.59.59.59,0,0,1,.59-.59,17.56,17.56,0,0,0,0-35.11.58.58,0,0,1-.59-.59.59.59,0,0,1,.59-.59,18.74,18.74,0,0,1,0,37.47Z"/><path class="cls-1" d="M34.36,34.08a.59.59,0,1,1,0-1.17,10.08,10.08,0,0,0,0-20.16.59.59,0,0,1-.59-.59.58.58,0,0,1,.59-.59,11.26,11.26,0,0,1,0,22.51Z"/><path class="cls-1" d="M52.5,23.42H47.88a.6.6,0,0,1-.59-.59.59.59,0,0,1,.59-.59H52.5a.58.58,0,0,1,.59.59A.59.59,0,0,1,52.5,23.42Z"/><path class="cls-1" d="M46.1,16.64a.58.58,0,0,1-.29-1.09l4-2.31a.59.59,0,0,1,.8.21.6.6,0,0,1-.21.81l-4,2.31A.66.66,0,0,1,46.1,16.64Z"/><path class="cls-1" d="M41.17,11.67a.51.51,0,0,1-.29-.08.58.58,0,0,1-.21-.8l2.31-4a.58.58,0,1,1,1,.59l-2.31,4A.57.57,0,0,1,41.17,11.67Z"/><path class="cls-1" d="M43.38,39.1a.58.58,0,0,1-.51-.3l-2.31-4a.58.58,0,0,1,.21-.8.6.6,0,0,1,.81.21l2.31,4a.6.6,0,0,1-.51.89Z"/><path class="cls-1" d="M50,32.48a.6.6,0,0,1-.29-.08l-4-2.31a.59.59,0,0,1,.59-1l4,2.31a.58.58,0,0,1,.22.8A.6.6,0,0,1,50,32.48Z"/></g></g></svg>