<svg xmlns="http://www.w3.org/2000/svg" viewBox="0 0 53.39 54.67"><defs><style>.cls-1{fill:#686867;}</style></defs><g id="Слой_2" data-name="Слой 2"><g id="Слой_1-2" data-name="Слой 1"><path class="cls-1" d="M42.07,43.93H11.16a.59.59,0,0,1-.59-.59V11.76a.58.58,0,0,1,.59-.59H42.07a.59.59,0,0,1,.59.59V43.34A.6.6,0,0,1,42.07,43.93ZM11.75,42.75H41.48V12.34H11.75Z"/><path class="cls-1" d="M42.09,12.35H11.16a.59.59,0,0,1-.56-.41.6.6,0,0,1,.21-.66L26.44.11a.59.59,0,0,1,.69,0L42.34,11.23a.59.59,0,0,1-.25,1.12ZM13,11.17H40.27L26.78,1.31Z"/><path class="cls-1" d="M36.13,35.82h-19a.59.59,0,0,1-.59-.59V19.86a.6.6,0,0,1,.59-.59h19a.59.59,0,0,1,.58.59V35.23A.58.58,0,0,1,36.13,35.82ZM17.69,34.64H35.54V20.45H17.69Z"/><path class="cls-1" d="M26.78,35.82H17.1a.59.59,0,0,1-.59-.59V19.86a.6.6,0,0,1,.59-.59h9.68a.59.59,0,0,1,.59.59V35.23A.58.58,0,0,1,26.78,35.82Zm-9.09-1.18h8.5V20.45h-8.5Z"/><path class="cls-1" d="M51.2,43.93H44.07a.58.58,0,0,1-.58-.59.59.59,0,0,1,.58-.59h6.54V12.34H44.06a.59.59,0,1,1,0-1.17H51.2a.58.58,0,0,1,.59.59V43.34A.58.58,0,0,1,51.2,43.93Z"/><path class="cls-1" d="M52.8,45.33a.57.57,0,0,1-.38-.15l-3.21-2.79a.6.6,0,0,1-.06-.83A.59.59,0,0,1,50,41.5l3.21,2.79a.59.59,0,0,1-.39,1Z"/><path class="cls-1" d="M52.8,13.74a.62.62,0,0,1-.38-.14l-3.21-2.8a.6.6,0,0,1-.06-.83A.59.59,0,0,1,50,9.92l3.21,2.79a.59.59,0,0,1,.06.83A.61.61,0,0,1,52.8,13.74Z"/><path class="cls-1" d="M9.11,35.87H2a.59.59,0,0,1-.58-.59V19.82A.59.59,0,0,1,2,19.23H9.12a.59.59,0,0,1,0,1.18H2.57V34.69H9.11a.59.59,0,0,1,.59.59A.6.6,0,0,1,9.11,35.87Z"/><path class="cls-1" d="M3.38,37.47a.59.59,0,0,1-.44-.2L.14,34.06a.6.6,0,0,1,.06-.83.59.59,0,0,1,.83.06l2.79,3.2a.59.59,0,0,1,0,.83A.6.6,0,0,1,3.38,37.47Z"/><path class="cls-1" d="M3.38,22a.59.59,0,0,1-.44-.2L.14,18.6a.6.6,0,0,1,.06-.83.6.6,0,0,1,.83.06L3.82,21a.59.59,0,0,1,0,.83A.64.64,0,0,1,3.38,22Z"/><path class="cls-1" d="M42.09,53.06H11.16a.58.58,0,0,1-.59-.58V45.35a.59.59,0,0,1,.59-.59.6.6,0,0,1,.59.59v6.54H41.5V45.34a.58.58,0,0,1,.59-.59.59.59,0,0,1,.59.59v7.14A.59.59,0,0,1,42.09,53.06Z"/><path class="cls-1" d="M9.79,54.67a.62.62,0,0,1-.38-.14.59.59,0,0,1-.07-.83l2.74-3.21a.59.59,0,0,1,.89.76l-2.73,3.21A.58.58,0,0,1,9.79,54.67Z"/><path class="cls-1" d="M40.72,54.67a.62.62,0,0,1-.38-.14.59.59,0,0,1-.07-.83L43,50.49a.59.59,0,0,1,.89.76l-2.73,3.21A.58.58,0,0,1,40.72,54.67Z"/></g></g></svg>