<svg xmlns="http://www.w3.org/2000/svg" viewBox="0 0 41.5 68.02"><defs><style>.cls-1{fill:#686867;}</style></defs><g id="Слой_2" data-name="Слой 2"><g id="Слой_1-2" data-name="Слой 1"><path class="cls-1" d="M2.52,56.3V34.8a.58.58,0,0,1,.59-.59H9.66a.59.59,0,0,1,.59.59V56.3a.59.59,0,0,1-.59.59H3.11A.58.58,0,0,1,2.52,56.3ZM3.7,35.39V55.71H9.07V35.39Z"/><path class="cls-1" d="M0,58.82V8.42a.59.59,0,0,1,.59-.59h13A.58.58,0,0,1,14,8.1a.58.58,0,0,1,.05.56l-.43,1h6.77l-.44-1a.56.56,0,0,1,0-.56.58.58,0,0,1,.49-.27h20.4a.6.6,0,0,1,.59.59v50.4a.59.59,0,0,1-.59.59H35.72a.58.58,0,0,1-.59-.59V56.3a.59.59,0,0,1,.59-.59H37.8V14.05H21.32a.58.58,0,0,1-.59-.59V10.82H13.34v2.64a.58.58,0,0,1-.59.59h-9V55.71H27.14a.59.59,0,0,1,.59.59v2.52a.58.58,0,0,1-.59.59H.59A.58.58,0,0,1,0,58.82ZM1.18,9V58.23H26.55V56.89H3.11a.58.58,0,0,1-.59-.59V13.46a.59.59,0,0,1,.59-.59h9.05V10.24h0a.69.69,0,0,1,.05-.24l.43-1ZM40.32,9H21.42l.44,1a.56.56,0,0,1,.05.34v2.54H38.39a.6.6,0,0,1,.59.59V56.3a.59.59,0,0,1-.59.59H36.31v1.34h4Z"/><path class="cls-1" d="M2.52,56.3V13.46a.59.59,0,0,1,.59-.59h9.64a.59.59,0,0,1,.59.59V48.51a3.22,3.22,0,0,0,3.22,3.21h1a3.22,3.22,0,0,0,3.22-3.21v-35a.59.59,0,0,1,.59-.59H38.39a.6.6,0,0,1,.59.59V56.3a.59.59,0,0,1-.59.59H35.72a.58.58,0,0,1-.59-.59V16.9h-7.4V56.3a.58.58,0,0,1-.59.59h-24A.58.58,0,0,1,2.52,56.3ZM3.7,14.05V55.71H26.55V16.31a.59.59,0,0,1,.59-.59h8.58a.59.59,0,0,1,.59.59v39.4H37.8V14.05H21.91V48.51a4.4,4.4,0,0,1-4.4,4.39h-1a4.4,4.4,0,0,1-4.4-4.39V14.05Z"/><path class="cls-1" d="M26.56,67.43V16.31a.58.58,0,0,1,.58-.59h8.58a.59.59,0,0,1,.59.59V67.43a.59.59,0,0,1-.59.59H27.14A.58.58,0,0,1,26.56,67.43Zm1.17-50.54v50h7.4v-50Z"/><path class="cls-1" d="M26.56,20.12a.58.58,0,0,1,.58-.59H31.7a.59.59,0,0,1,0,1.17H27.14A.58.58,0,0,1,26.56,20.12Z"/><path class="cls-1" d="M26.56,23.93a.58.58,0,0,1,.58-.59H31.7a.58.58,0,0,1,.58.59.59.59,0,0,1-.58.59H27.14A.59.59,0,0,1,26.56,23.93Z"/><path class="cls-1" d="M26.56,31.55a.58.58,0,0,1,.58-.59H31.7a.58.58,0,0,1,.58.59.59.59,0,0,1-.58.59H27.14A.59.59,0,0,1,26.56,31.55Z"/><path class="cls-1" d="M26.56,35.36a.58.58,0,0,1,.58-.59H33.6a.58.58,0,0,1,.59.59.59.59,0,0,1-.59.59H27.14A.59.59,0,0,1,26.56,35.36Z"/><path class="cls-1" d="M26.56,54.41a.59.59,0,0,1,.58-.59H33.6a.59.59,0,0,1,.59.59.58.58,0,0,1-.59.59H27.14A.58.58,0,0,1,26.56,54.41Z"/><path class="cls-1" d="M26.56,27.74a.58.58,0,0,1,.58-.59H31.7a.58.58,0,0,1,.58.59.59.59,0,0,1-.58.59H27.14A.59.59,0,0,1,26.56,27.74Z"/><path class="cls-1" d="M26.56,39.17a.59.59,0,0,1,.58-.59H31.7a.59.59,0,0,1,0,1.18H27.14A.59.59,0,0,1,26.56,39.17Z"/><path class="cls-1" d="M26.56,43a.59.59,0,0,1,.58-.59H31.7a.59.59,0,0,1,.58.59.58.58,0,0,1-.58.59H27.14A.58.58,0,0,1,26.56,43Z"/><path class="cls-1" d="M26.56,50.6a.59.59,0,0,1,.58-.59H31.7a.59.59,0,0,1,.58.59.58.58,0,0,1-.58.59H27.14A.58.58,0,0,1,26.56,50.6Z"/><path class="cls-1" d="M26.56,46.79a.59.59,0,0,1,.58-.59H31.7a.59.59,0,0,1,.58.59.58.58,0,0,1-.58.59H27.14A.58.58,0,0,1,26.56,46.79Z"/><path class="cls-1" d="M30.36,63.46a1.79,1.79,0,1,1,1.79,1.79A1.79,1.79,0,0,1,30.36,63.46Zm2.4,0a.62.62,0,1,0-.61.62A.62.62,0,0,0,32.76,63.46Z"/><path class="cls-1" d="M12.16,48.5V10.24a.58.58,0,0,1,.59-.59h8.57a.58.58,0,0,1,.59.59V48.5a4.4,4.4,0,0,1-4.4,4.4h-1A4.4,4.4,0,0,1,12.16,48.5Zm1.18-37.68V48.5a3.23,3.23,0,0,0,3.22,3.23h1a3.23,3.23,0,0,0,3.22-3.23V10.82Z"/><path class="cls-1" d="M12.16,45.57V41.68a.58.58,0,0,1,.59-.59h8.57a.58.58,0,0,1,.59.59v3.89a.58.58,0,0,1-.59.58H12.75A.58.58,0,0,1,12.16,45.57Zm1.18-3.31V45h7.39V42.26Z"/><path class="cls-1" d="M16.45,41.68V10.24a.59.59,0,1,1,1.17,0V41.68a.59.59,0,0,1-1.17,0Z"/><path class="cls-1" d="M14.45,5a.59.59,0,0,1,.05-.23L16.44.35a.59.59,0,0,1,1.08,0l2,4.43a.59.59,0,0,1,0,.56.58.58,0,0,1-.49.27H15a.57.57,0,0,1-.49-.27A.53.53,0,0,1,14.45,5ZM17,2l-1,2.39h2.13Z"/><path class="cls-1" d="M12.16,10.23a.69.69,0,0,1,.05-.24l2.29-5.2A.59.59,0,0,1,15,4.43H19a.58.58,0,0,1,.53.35L21.86,10a.59.59,0,0,1,0,.56.58.58,0,0,1-.49.27H12.75a.58.58,0,0,1-.49-.27A.63.63,0,0,1,12.16,10.23Zm3.26-4.62-1.77,4h6.77l-1.82-4Z"/></g></g></svg>