<svg xmlns="http://www.w3.org/2000/svg" viewBox="0 0 47.85 52.58"><defs><style>.cls-1{fill:#686867;}</style></defs><g id="Слой_2" data-name="Слой 2"><g id="Слой_1-2" data-name="Слой 1"><path class="cls-1" d="M38.39,46.05h-35A3.39,3.39,0,0,1,0,42.66a5.27,5.27,0,0,1,5.26-5.32H8.87V7.43a.58.58,0,0,1,.59-.58h35a3.36,3.36,0,0,1,3.38,3.25,5.28,5.28,0,0,1-5.25,5.15H39V45.46A.59.59,0,0,1,38.39,46.05ZM5.26,38.51a4.08,4.08,0,0,0-4.08,4.08,2.23,2.23,0,0,0,2.21,2.28H37.8V14.67a.58.58,0,0,1,.59-.59h4.2a4.09,4.09,0,0,0,4.07-4A2.18,2.18,0,0,0,44.46,8H10.05V37.93a.59.59,0,0,1-.59.58Z"/><path class="cls-1" d="M.59,43.18A.59.59,0,0,1,0,42.59V5.26A5.27,5.27,0,0,1,5.26,0h4.2a.59.59,0,0,1,.59.59V37.93a.59.59,0,0,1-.59.58H5.26a4.08,4.08,0,0,0-4.08,4.08A.6.6,0,0,1,.59,43.18Zm4.67-42A4.08,4.08,0,0,0,1.18,5.26v34a5.25,5.25,0,0,1,4.08-1.94H8.87V1.18Z"/><path class="cls-1" d="M42.59,52.58h-4.2A.58.58,0,0,1,37.8,52V14.67a.58.58,0,0,1,.59-.59h4.2a4.09,4.09,0,0,0,4.07-4,.58.58,0,0,1,.53-.57.57.57,0,0,1,.63.44.87.87,0,0,1,0,.25v37.1A5.26,5.26,0,0,1,42.59,52.58ZM39,51.41h3.61a4.08,4.08,0,0,0,4.08-4.08v-34a5.25,5.25,0,0,1-4.08,2H39Z"/><path class="cls-1" d="M23.41,25.56A2.58,2.58,0,1,1,26,23,2.58,2.58,0,0,1,23.41,25.56Zm0-4a1.4,1.4,0,1,0,1.4,1.4A1.4,1.4,0,0,0,23.41,21.58Z"/><path class="cls-1" d="M19.77,31.57h0a1.93,1.93,0,0,1-1.66-2.89l.61-1.07a.76.76,0,0,0-.09-.87,6,6,0,0,1-.73-1.19.75.75,0,0,0-.68-.45H15.93a1.93,1.93,0,1,1,0-3.85h1.12a.76.76,0,0,0,.7-.51,6.32,6.32,0,0,1,.73-1.32.74.74,0,0,0,.05-.82l-.59-1a1.93,1.93,0,0,1,.71-2.63,2,2,0,0,1,2.62.71l.55.94a.76.76,0,0,0,.77.36,6.44,6.44,0,0,1,1.52,0,.77.77,0,0,0,.77-.36l.59-1a2,2,0,0,1,2.63-.71,1.94,1.94,0,0,1,.7,2.63l-.59,1a.75.75,0,0,0,.08.84A6.19,6.19,0,0,1,29,20.58a.78.78,0,0,0,.7.48H31a1.93,1.93,0,0,1,0,3.85H29.7a.78.78,0,0,0-.7.48,6.15,6.15,0,0,1-.66,1.17.76.76,0,0,0-.06.83L29,28.58A2,2,0,0,1,29.16,30a1.9,1.9,0,0,1-.9,1.17,2,2,0,0,1-2.63-.7L25,29.38a.76.76,0,0,0-.77-.36,6.38,6.38,0,0,1-1.31,0h-.09a.77.77,0,0,0-.68.37l-.69,1.19A1.92,1.92,0,0,1,19.77,31.57Zm-3.84-9.15a.75.75,0,0,0,0,1.5h1.29A2,2,0,0,1,19,25.05a4.55,4.55,0,0,0,.6,1,2,2,0,0,1,.18,2.19l-.62,1.07a.75.75,0,0,0,.28,1,.77.77,0,0,0,1-.27l.69-1.2A2,2,0,0,1,23,27.88a4.7,4.7,0,0,0,1.06,0,2,2,0,0,1,1.94.94l.65,1.13a.75.75,0,0,0,1,.27.69.69,0,0,0,.35-.45.76.76,0,0,0-.07-.57L27.26,28a1.93,1.93,0,0,1,.13-2.11,4.83,4.83,0,0,0,.53-.94,1.94,1.94,0,0,1,1.78-1.2H31a.75.75,0,0,0,0-1.5H29.7A2,2,0,0,1,27.92,21a4.57,4.57,0,0,0-.58-1,1.94,1.94,0,0,1-.14-2.14l.58-1a.75.75,0,0,0-.27-1,.77.77,0,0,0-1,.28l-.59,1A1.9,1.9,0,0,1,24,18.1a5,5,0,0,0-1.22,0,2,2,0,0,1-1.95-.93l-.54-.95a.78.78,0,0,0-1-.27.79.79,0,0,0-.35.45A.75.75,0,0,0,19,17l.59,1a1.93,1.93,0,0,1-.12,2.1,4.82,4.82,0,0,0-.58,1.07,2,2,0,0,1-1.8,1.24Z"/><path class="cls-1" d="M32.43,34.91H14.6a.59.59,0,0,1-.58-.59V27.19a.59.59,0,0,1,1.17,0v6.54H31.84V27.18a.58.58,0,0,1,.59-.59.59.59,0,0,1,.59.59v7.14A.6.6,0,0,1,32.43,34.91Z"/><path class="cls-1" d="M13.24,36.51a.59.59,0,0,1-.38-.14.59.59,0,0,1-.07-.83l2.73-3.21a.6.6,0,0,1,.83-.06.59.59,0,0,1,.07.83l-2.74,3.2A.56.56,0,0,1,13.24,36.51Z"/><path class="cls-1" d="M31.06,36.51a.62.62,0,0,1-.38-.14.59.59,0,0,1-.07-.83l2.74-3.21a.59.59,0,1,1,.89.77l-2.73,3.2A.58.58,0,0,1,31.06,36.51Z"/></g></g></svg>