<svg xmlns="http://www.w3.org/2000/svg" viewBox="0 0 36.3 36.3"><defs><style>.cls-1{fill:#ff9300}</style></defs><g id="Слой_2" data-name="Слой 2"><g id="Слой_1-2" data-name="Слой 1"><path class="cls-1" d="M25.06 17.45L32.51 10l.09-.15L36 .88l-.59-.54-9 3.35-.15.1-7.45 7.45L7.6 0 0 7.6l11.24 11.24L1.05 29a2.53 2.53 0 000 3.57l2.64 2.64a2.53 2.53 0 001.79.79 2.56 2.56 0 001.79-.74l10.18-10.2L28.69 36.3l7.61-7.61zm-1.81-1.8l6.84-6.84 1.45 1-7.08 7.08zM28 6.86l1.4 1.41-6.78 6.78-1.4-1.41zm4 2.2l-1.71-1.12L28.35 6l-1.12-1.7 4.06-1.52a6.93 6.93 0 001 1.26 6.49 6.49 0 001.25 1zm1.82-4.86a6 6 0 01-1-.76 5.77 5.77 0 01-.75-1l2.74-1zm-7.3.55l1 1.47-6.83 6.83-1.21-1.21zm-13.47 15.9l-7.64 7.63-1.21-1.21 7.64-7.63zm-4.43 12l-.53.54-5-5 .54-.54zM6 28.88l7.63-7.63 1.41 1.4-7.63 7.64zm.66 5.76a1.68 1.68 0 01-2.38 0L1.65 32a1.7 1.7 0 010-2.38l.82-.82 5 5zm2.55-2.55L8 30.88l7.64-7.63 1.2 1.21zM1.2 7.6l6.4-6.4 1.48 1.48L7.72 4l.59.6 1.37-1.33 1.53 1.53-1.37 1.36.59.6 1.37-1.37 1.53 1.53-3 3 .6.6 3-3L15.45 9l-1.37 1.37.6.59L16 9.63l1.53 1.53-1.33 1.37.6.59 1.36-1.37 1.53 1.53-3 3 .59.6 3-3 1.53 1.52-1.37 1.37.6.59L22.41 16l1.52 1.52-1.37 1.37.6.59 1.37-1.36 1.52 1.52-3 3 .59.6 3-3 1.52 1.52-1.36 1.37.6.6 1.37-1.37 1.52 1.52-1.37 1.37.6.6 1.37-1.37L32.41 26l-3 3 .6.6 3-3 2.09 2.09-6.41 6.41z"/><path class="cls-1" d="M5.78 15a.43.43 0 00-.5.33A12.8 12.8 0 005 18.15a13 13 0 00.59 3.92.42.42 0 00.4.3h.12a.42.42 0 00.28-.53 12.65 12.65 0 01-.55-3.67 11.77 11.77 0 01.28-2.6.43.43 0 00-.34-.57zm9.77-8.89a12.37 12.37 0 016.26.28h.13a.43.43 0 00.4-.3.42.42 0 00-.28-.53 13.29 13.29 0 00-6.7-.3.43.43 0 10.19.83zm14.96 15.14h.09a.41.41 0 00.41-.33 13.07 13.07 0 00-.3-6.7.43.43 0 00-.53-.28.43.43 0 00-.27.53 12.23 12.23 0 01.56 3.67 12.47 12.47 0 01-.28 2.6.42.42 0 00.32.51zm-9.76 8.94a12.54 12.54 0 01-6.27-.28.42.42 0 00-.25.81 13.35 13.35 0 003.92.59 12.53 12.53 0 002.78-.3.42.42 0 00.32-.5.42.42 0 00-.5-.32z"/></g></g></svg>