<svg xmlns="http://www.w3.org/2000/svg" viewBox="0 0 35.95 36.14"><defs><style>.cls-1{fill:#ff9300}</style></defs><g id="Слой_2" data-name="Слой 2"><g id="Слой_1-2" data-name="Слой 1"><path class="cls-1" d="M31.52 7.84H8.59A4.31 4.31 0 000 8.27v23.57a4.31 4.31 0 004.31 4.3H36V12.27zm.25 1.45L34.51 12h-2.74zM.84 8.27a3.47 3.47 0 116.93 0v20.42A3.85 3.85 0 005 27.53h-.69a4.3 4.3 0 00-3.47 1.76zm6.93 22.46A2.62 2.62 0 015 33.08h-.27v-4.71H5a2.62 2.62 0 012.77 2.36zM4.31 35.3a3.45 3.45 0 01-.42-6.88v5.5H5a3.45 3.45 0 003.65-3.19V8.69h22.28v4.18h4.18V35.3z"/><path class="cls-1" d="M31.77 32.26V15L14.48 32.26zm-.84-12h-.82v.85h.82v1.69h-.82v.85h.82v1.69h-.82v.84h.82v1.7h-.82v.84h.82v2.69h-2.7v-.82h-.84v.82H25.7v-.82h-.85v.82h-1.69v-.82h-.85v.82h-1.69v-.82h-.84v.82h-3.26L30.93 17z"/><path class="cls-1" d="M28.23 22.89l-5.83 5.83h5.83zm-.84 5h-2.95l2.95-2.95zm-12.22-2.73l.88 2.58.8-.27-2.46-7.25A1.44 1.44 0 0015 19a1.47 1.47 0 00-1-1.4v-.84h-.85v.84a1.47 1.47 0 00-1 1.4 1.45 1.45 0 00.62 1.2l-2.46 7.24.8.27.88-2.58a6.39 6.39 0 003.25 0zm-1.63-6.75a.62.62 0 11-.62.62.63.63 0 01.62-.62zm-1.35 5.93l1.31-3.84h.09l1.31 3.85a5.65 5.65 0 01-2.71-.01zm6.17-3.24h.84v-1.29H21v1.29h.84v-1.29h2.22l.42-.43v-3h1.92v-.85h-1.92v-2.66h4.27V12h-4.27v-1.27h-.85V12h-1.79v-1.27H21V12h-1.8v-1.27h-.84V12h-1.93v.85h1.93v2.62h-1.93v.85h1.93zm.84-2.1v-2.66H21V19zm4.43 0h-1.79v-2.66h1.79zm0-6.09v2.62h-1.79v-2.66zm-4.43 0H21v2.62h-1.8zm-4.91-7.08h17.83a2.92 2.92 0 100-5.83h-18l-5.7 2.53v.77l5.7 2.49zM31.7 5h-.95V.84h.95zm-1.8 0H14.71V3.34H29.9zm0-2.49H14.71V.84H29.9zm-16 2.27l-2.12-.92V2l2.12-.92zm20.29-1.87a2.08 2.08 0 01-1.64 2V.89a2.07 2.07 0 011.64 2.02zm-23.28-.55v1.11l-1.26-.56z"/></g></g></svg>