<svg xmlns="http://www.w3.org/2000/svg" viewBox="0 0 35.94 35.72"><defs><style>.cls-1{fill:#ff9300}</style></defs><g id="Слой_2" data-name="Слой 2"><g id="Слой_1-2" data-name="Слой 1"><path class="cls-1" d="M6.5 22.87l-.6-.59-1.92 1.92-.5-.49-.59.59 1.09 1.09 2.52-2.52zm1.59.03h3.55v.84H8.09zm-2.25 2.67h5.8v.84h-5.8zm-3.01 2.66h8.81v.84H2.83zm0 2.67h8.81v.84H2.83zM24.24 6.83a.42.42 0 00-.5-.32 19.94 19.94 0 01-4.26.49 19.92 19.92 0 01-4.25-.48.42.42 0 00-.5.32.43.43 0 00.32.51 21 21 0 004.43.5 21 21 0 004.44-.5.43.43 0 00.32-.52z"/><path class="cls-1" d="M32.14 23.21l-6.95-3.75a2 2 0 01-1.06-1.76v-2.23a8 8 0 001.28-2.91A1.47 1.47 0 0026.75 11v-.61A1.52 1.52 0 0025.91 9c0-.25 0-.51-.06-.76a11.88 11.88 0 001.35-.5l.34-.15-.67-2.21-.77.25a8 8 0 00-4-4.4A1.4 1.4 0 0020.76 0h-2.55a1.4 1.4 0 00-1.33 1.27 8 8 0 00-4 4.4l-.77-.25-.67 2.21.34.15a12.56 12.56 0 001.36.5c0 .26-.06.51-.07.76a1.52 1.52 0 00-.84 1.39V11a1.47 1.47 0 001.34 1.52 7.76 7.76 0 001.28 2.91v2.22a2 2 0 01-.68 1.49l-3.47-3.47H.87a.87.87 0 00-.87.87v18.31a.87.87 0 00.87.87h13a.87.87 0 00.87-.87v-1.69L15.92 35l.7-.47-1.9-2.84v-6.43l4.19 9.63h1.15l6.07-14 1 .52.28 3.71-3.21 1.61 1.8 2.33-3.63 5.42.71.47L27 29l-1.5-2 2.77-1.37-.27-3.7 3.76 2a6.39 6.39 0 013.36 5.63v5.14h.84v-5.12a7.21 7.21 0 00-3.82-6.37zM12.66 6.49l.73.23.14-.39a7.33 7.33 0 013.34-4.12V3.9a.42.42 0 00.42.43.42.42 0 00.42-.43V1.48a.59.59 0 01.5-.64h2.55a.58.58 0 01.5.64V3.9a.43.43 0 10.85 0V2.21a7.44 7.44 0 013.34 4.12l.13.39.73-.23.2.66a20.5 20.5 0 01-7 1.31 20.58 20.58 0 01-7-1.31zm.94 5.22a.61.61 0 01-.53-.67v-.61a.66.66 0 01.47-.67l.36-.06v-.37a7.31 7.31 0 010-.8 21.19 21.19 0 005.54.77A21.25 21.25 0 0025 8.53v1.18h.36a.66.66 0 01.47.67V11a.61.61 0 01-.53.67h-.76v.43c0 1.13-1.87 5.29-5.13 5.29s-5.12-4.16-5.12-5.29v-.43zm5.88 6.57a5.27 5.27 0 003.81-1.77v1.19a2.75 2.75 0 00.41 1.46l-4.21 3.78-4.22-3.78a2.76 2.76 0 00.41-1.47v-1.17a5.27 5.27 0 003.8 1.76zm.81 8.18h-1.67l-.75-1.14 1.61-1.27 1.58 1.25zm-9.36-9.31l2.34 2.34h-2.34zM.84 34.85v-18.3h9.22v2.92a.87.87 0 00.87.87h2.92v14.54zm13.88-15l4.1 3.68-2.94 2.33-1.17-2.68zm2.49 6L18 27l-.45 2.56-1.26-2.91zm2.28 8.24l-1.37-3.15.63-3.64h1.41l.65 3.7zm1.93-4.46L21 27l.77-1.16 1 .8zm1.66-3.82l-2.94-2.32 4.1-3.68a2.51 2.51 0 00.55.4l.59.32z"/></g></g></svg>