<svg xmlns="http://www.w3.org/2000/svg" viewBox="0 0 35.86 35.94"><g data-name="Слой 2"><path d="M32.74 10.24V7.59h-6l-1.64 2.65h-2.46v-8h-2.48V0H2.48v2.28H0v33.66h35.86v-25.7zM3.32.84h16v1.44h-16zm9.93 25.91H9.39v-.67h3.86zm1.08.84v7.51h-6v-7.51zm-.24-.84v-1.51H8.54v1.51H7.46v8.35H5.59V23.66h11.46V35.1h-1.87v-8.35zM7.82 7.94v2.3H5.59v-2.3zm12.31 14.88h-2.24v-2.3h2.24zM14 17.37v2.3h-2.26v-2.3zm-2.23-.84v-2.3H14v2.3zm3.08.84h2.23v2.3h-2.26zm0-.84v-2.3h2.23v2.3zm0-3.15v-2.3h2.23v2.3zm-.85 0h-2.26v-2.3H14zm-3.07 0H8.67v-2.3h2.23zm0 .85v2.3H8.67v-2.3zm0 3.14v2.3H8.67v-2.3zm0 3.15v2.3H8.67v-2.3zm.84 0H14v2.3h-2.26zm3.08 0h2.23v2.3h-2.26zm5.31-.85h-2.27v-2.3h2.24zm0-3.14h-2.27v-2.3h2.24zm0-3.15h-2.27v-2.3h2.24zm0-3.14h-2.27v-2.3h2.24zm-3.08 0h-2.26v-2.3h2.23zm-3.08 0h-2.26v-2.3H14zm-3.07 0H8.67v-2.3h2.23zm-3.08.84v2.3H5.59v-2.3zm0 3.15v2.3H5.59v-2.3zm0 3.14v2.3H5.59v-2.3zm0 3.15v2.3H5.59v-2.3zm10.07 3.14h2.24V35.1h-2.27zm2.21-16.57H2.51v-2.3h17.62zm-17.62.85h2.23v2.3H2.51zm0 3.14h2.23v2.3H2.51zm0 3.15h2.23v2.3H2.51zm0 3.14h2.23v2.3H2.51zm0 3.15h2.23v2.3H2.51zm0 3.14h2.23V35.1H2.51zM21.79 35.1H21V4H1.67v31.1H.84v-32h21zm5.45-26.66h4.66v1.8h-5.8zM35 11.08v2.3H22.64v-2.3zm-6.61 9.44v2.3h-2.45v-2.3zm-2.47-.85v-2.3h2.47v2.3zm2.47 4V26h-2.45v-2.3zm.84 0h2.46V26h-2.44zm0-.84v-2.3h2.46v2.3zm0-3.15v-2.3h2.46v2.3zm0-3.14v-2.3h2.46v2.3zm-.84 0h-2.45v-2.3h2.47zm-3.31 0h-2.44v-2.3h2.46zm0 .84v2.3h-2.44v-2.3zm0 3.15v2.3h-2.44v-2.3zm0 3.14V26h-2.44v-2.3zm0 3.15v2.3h-2.44v-2.3zm.84 0h2.47v2.3h-2.45zM28.41 30v5.1h-2.47V30zm.84 0h2.46v5.1h-2.46zm0-.84v-2.3h2.46v2.3zm3.31-2.3H35v2.3h-2.44zm0-.85v-2.3H35V26zm0-3.14v-2.3H35v2.3zm0-3.15v-2.3H35v2.3zm0-3.14v-2.3H35v2.3zM22.64 30h2.46v5.1h-2.46zm9.92 5.15V30H35v5.1z" fill="#ff9300" data-name="Слой 1"/></g></svg>