<svg xmlns="http://www.w3.org/2000/svg" viewBox="0 0 26.65 34.11"><g data-name="Слой 2"><path d="M26.07 27.64a.53.53 0 00-.57.5v4.69a.3.3 0 01-.32.28h-3.12v-9.84a.59.59 0 00-1.16 0v9.84h-6.27l1.82-1.73a.79.79 0 00.25-.71L15 21.83l.46-.61a1.42 1.42 0 00.83.31 1 1 0 00.91-.48l1.8-3.16 4.16 1.39a3.54 3.54 0 012.34 3.14v3.38a.53.53 0 00.57.5.54.54 0 00.58-.5v-3.38c0-3-2.93-4-3-4.07L16.66 16v-1.37a4.56 4.56 0 002.05-3.08 2.8 2.8 0 001.48-.55A2 2 0 0021 9.43 2 2 0 0020.44 8V6.19c0-3.41-3.22-6.19-7.18-6.19S6.09 2.78 6.09 6.19v1.9a1.87 1.87 0 00-.6 1.34A2 2 0 006.34 11a2.8 2.8 0 001.47.51 4.58 4.58 0 002.19 3.2V16l-6.93 2.35C2.93 18.4 0 19.47 0 22.42v10.41a1.39 1.39 0 001.48 1.28H7a.51.51 0 100-1H5.75v-9.84a.54.54 0 00-.58-.5.54.54 0 00-.58.5v9.84H1.48a.3.3 0 01-.32-.28V22.42a3.56 3.56 0 012.33-3.14l4.16-1.39 1.83 3.16a1 1 0 00.91.48 1.45 1.45 0 00.83-.31l.46.61L10 30.65a.79.79 0 00.25.71L12 33.11H9.7a.51.51 0 100 1h15.48a1.38 1.38 0 001.47-1.28v-4.69a.54.54 0 00-.58-.5zm-8.16-10.11l-1.7 2.94-2.05-1.26L16.27 17zm-3.42 3.11l-.44.57H12.6l-.44-.57 1.16-.71zm-3.35-4.44v-.94a6.62 6.62 0 002.19.36 6.19 6.19 0 002.17-.39v1l-2.18 2.32zm8.74-6.77a1 1 0 01-.45.85 1.41 1.41 0 01-.67.26V8.31a1.2 1.2 0 011.12 1.12zM7.77 10.54a1.18 1.18 0 01-1.12-1.11 1.26 1.26 0 011.12-1.09zm0-3.22a3.09 3.09 0 00-.56.11V6.19c0-2.86 2.7-5.19 6-5.19s6 2.33 6 5.19v1.2a2.83 2.83 0 00-.52-.08c0-.48 0-.39-1.82-2.09a1.18 1.18 0 00-1.32-.14 12.51 12.51 0 01-6.68 1.57 1 1 0 00-1.07.67zm1.13 3.62V7.66A13.91 13.91 0 0016.16 6c.84.78 1.3 1.19 1.44 1.34v3.63a4 4 0 01-4.27 3.68c-2.64-.03-4.4-1.8-4.4-3.71zm1.51 9.53l-1.7-2.94 1.67-.53 2.11 2.24zm.66 10.29l1.68-8.55h1.09l1.67 8.55-2.22 2.1z" fill="#ff9300" data-name="Слой 1"/></g></svg>