<svg xmlns="http://www.w3.org/2000/svg" viewBox="0 0 29.91 34.11"><defs><style>.cls-1{fill:#ff9300}</style></defs><g id="Слой_2" data-name="Слой 2"><g id="Слой_1-2" data-name="Слой 1"><path class="cls-1" d="M28.69 26.83a6 6 0 00-4.05-4.74l-4.74-1.58v-.7h-1.1v1l-.8 3.31-2.22-2.66h-1.63l-2.23 2.66-.82-3.28v-1H10v.7l-4.73 1.55a6 6 0 00-4.06 4.74L0 34.11h29.91zM5.1 33H1.3l.18-1 3.68.46zm7.18 0H6.21l.49-4.9-1.1-.1-.33 3.31-3.61-.45L2.3 27a4.93 4.93 0 013.32-3.88l4.54-1.51 1.22 4.87L12.62 25l.66 1zm4.24 0h-3.13l1-7.28-1.07-1.61 1.3-1.56h.59l1.3 1.56-1.07 1.61zm7.78-5l-1.09.11.49 4.89h-6.07l-1-7 .65-1 1.25 1.49 1.21-4.87 4.55 1.51A4.93 4.93 0 0127.61 27l.64 3.85-3.62.45zm.5 5l-.06-.6 3.69-.4.18 1z"/><path class="cls-1" d="M6.23 10.38a2.69 2.69 0 00-.63 1.72A2.74 2.74 0 008 14.82a6.08 6.08 0 001.57 2.58l2.15 2.15a2.73 2.73 0 001.94.81h2.58a2.74 2.74 0 002-.81l2.14-2.15a6 6 0 001.53-2.58 2.71 2.71 0 001.82-4.44 1.65 1.65 0 00-.47-3.23h-.08a8.29 8.29 0 00-6-6.84V0h-4.4v.31a8.29 8.29 0 00-6 6.84H6.7a1.65 1.65 0 00-.47 3.23zm.47 1.72a1.66 1.66 0 011.1-1.55v2.58a4.71 4.71 0 000 .53 1.65 1.65 0 01-1.1-1.56zm14.3 1a4.87 4.87 0 01-1.45 3.5l-2.14 2.14a1.66 1.66 0 01-1.17.49h-2.58a1.64 1.64 0 01-1.16-.49l-2.15-2.14a5 5 0 01-1.45-3.5v-2.65H21zm1.08.53v-3.08a1.67 1.67 0 011.1 1.55 1.65 1.65 0 01-1.1 1.56zM12.75 1.46v4.59h1.1V1.1h2.2v4.95h1.1V1.46A7.17 7.17 0 0122 7.15H7.89a7.16 7.16 0 014.86-5.69zm-6 6.79h16.46a.55.55 0 01.55.55.55.55 0 01-.55.55H6.7a.55.55 0 01-.55-.55.55.55 0 01.55-.55z"/><path class="cls-1" d="M18.25 4.95h1.1v1.1h-1.1zm-7.7 0h1.1v1.1h-1.1z"/></g></g></svg>