<svg xmlns="http://www.w3.org/2000/svg" viewBox="0 0 32.26 38.49"><g data-name="Слой 2"><path d="M9.9 38.49a2.42 2.42 0 01-2.42-2.42v-.8a6.77 6.77 0 01-3.7-6 11.27 11.27 0 011-4.51L.41 18.23a1.7 1.7 0 01-.37-.7 1.81 1.81 0 01.27-1.37 4.47 4.47 0 012.83-1.7 6.22 6.22 0 011.21-.13c1.53 0 2.71.66 2.94 1.64l1.27 4 .08-.05a11.24 11.24 0 013.91-1.73l.33-.89v-.07h-.08a3.06 3.06 0 01-2-1.7v-.05h-.31A2.42 2.42 0 018.1 13V9.82H8a1.17 1.17 0 01-1.15-1.17V7.4A1.18 1.18 0 018 6.23h.2v-.06a7.4 7.4 0 0114.59 0v.06H23a1.18 1.18 0 011.16 1.17v1.25A1.17 1.17 0 0123 9.82h-.07V13a2.42 2.42 0 01-2.42 2.42h-.31v.05a3.06 3.06 0 01-2 1.7h-.08l.31.91A13.21 13.21 0 0126.58 24l.11.18.7-5.92-.69-.72a1.81 1.81 0 01-.53-1.28v-.72a1.8 1.8 0 011.2-1.7h.05v-.15a1.8 1.8 0 011.79-1.8h1.25a1.81 1.81 0 011.8 1.8v13.78a4.8 4.8 0 01-4.79 4.79 4.73 4.73 0 01-3.81-1.9l-.13-.17v8.3zm8.65-7.24h.05A1.79 1.79 0 0119.79 33v1.2a1.81 1.81 0 01-1.19 1.69h-.05v1.49h3.88V25.55h1.1v2.27l.64 1.3a3.69 3.69 0 007-1.65v-8.92h-2.7l-1.18 10-1.1-.13.28-2.32-.1-.25a11.83 11.83 0 00-7.72-6.54h-.09zm-2.49 4.82a2.43 2.43 0 01-.34 1.21l-.06.11h1.79V36h-1.39zm-7.48 0a1.32 1.32 0 001.32 1.32h3.74A1.32 1.32 0 0015 36.07V36h-4.48a6.57 6.57 0 01-1.85-.27h-.09zM15.4 31a.7.7 0 00-.49.2l-.7.7v3H18a.69.69 0 00.69-.69V33a.69.69 0 00-.69-.69h-1.18v-.55a.69.69 0 00-.69-.7zm-10-5.11a10 10 0 00-.55 3.31 5.68 5.68 0 005.68 5.68h2.57v-2.62h-1.96a6.8 6.8 0 01-5.38-2.66l.88-.66a5.63 5.63 0 00.72.76l.12.11v-1l-2-3.08zm3.19 4.64a5.73 5.73 0 002.52.6h2.24l.75-.72a1.81 1.81 0 01.8-.41v-5l-.1.07a2.45 2.45 0 01-1.21.33H9.9a2.4 2.4 0 01-1.21-.33L8.58 25zm7.34-8.44a3.53 3.53 0 01.14.88v6.93h.07a1.8 1.8 0 011.2.46l.12.11V20.19zm-8.45 4.74V23a2.42 2.42 0 01.43-1.37l-1.22-3.88-.08.09A5 5 0 014.2 19a5.69 5.69 0 01-1.2.17 3.91 3.91 0 01-.49 0h-.18zm2.42-5.17a1.32 1.32 0 000 2.64h3.74a1.32 1.32 0 10-1.32-1.3v.55h-1.1V23a2.46 2.46 0 01.32-1.21l.06-.11zm3.74-3.19l1.87 2.39 1.85-2.32L17 17.3h-3zm.15 2.1v-.12l-1-1.21a10.24 10.24 0 00-2.92 1.18l-.23.13h4.18zm-9.42-5.14a5.19 5.19 0 00-1 .11 3.44 3.44 0 00-2.12 1.21.74.74 0 00-.13.53v.07l.12.19a2.44 2.44 0 001.76.53A4.46 4.46 0 004 18a3.4 3.4 0 002.12-1.21.72.72 0 00.13-.47l-.07-.2a2.14 2.14 0 00-1.81-.69zM28 14.81a.7.7 0 00-.7.7v.72a.67.67 0 00.21.5l.69.7h3v-3.79a.7.7 0 00-.7-.7h-1.29a.69.69 0 00-.69.7v1.17zm-16.28-.55a2 2 0 002 1.94h3.73a1.94 1.94 0 001.95-1.94V9.82h-7.71zm8.73.07h.07a1.32 1.32 0 000-2.64h-.07zm-9.9-2.64a1.32 1.32 0 000 2.64h.07v-2.64zm9.9-1.1h.07a2.41 2.41 0 011.21.34l.11.06V9.82h-1.42zM9.2 11l.11-.06a2.41 2.41 0 011.21-.34h.07v-.78H9.2zM8 8.72h15.1V7.33H8zm9.3-2.49h4.4v-.09a6.25 6.25 0 00-4.3-4.75h-.1zM15.51 1.1h-.7v5.13h1.39V1.14h-.06q-.31-.04-.63-.04zm-1.9.29a6.25 6.25 0 00-4.28 4.75v.09h4.4V1.36z" fill="#ff9300" data-name="Слой 1"/></g></svg>