<svg xmlns="http://www.w3.org/2000/svg" viewBox="0 0 32.22 33.91"><defs><style>.cls-1{fill:#ff9300}</style></defs><g id="Слой_2" data-name="Слой 2"><g id="Слой_1-2" data-name="Слой 1"><path class="cls-1" d="M11.54 21.09h-2A1.12 1.12 0 018.43 20v-1.14a.16.16 0 00-.12-.14 8.29 8.29 0 01-2-.82.13.13 0 00-.17 0l-.79.79a1.11 1.11 0 01-.79.33 1.14 1.14 0 01-.8-.33L2.39 17.3a1.07 1.07 0 01-.33-.79 1.09 1.09 0 01.33-.8l.79-.79a.12.12 0 000-.16 9 9 0 01-.82-2 .15.15 0 00-.14-.12h-1.1A1.12 1.12 0 010 11.54v-2a1.12 1.12 0 011.12-1.11h1.11a.15.15 0 00.14-.12 8.72 8.72 0 01.82-2 .13.13 0 000-.17l-.79-.79a1.07 1.07 0 01-.33-.79 1.09 1.09 0 01.33-.8l1.4-1.4a1.09 1.09 0 01.8-.33 1.07 1.07 0 01.79.33l.79.79a.13.13 0 00.17 0 8.72 8.72 0 012-.82.15.15 0 00.12-.14V1.12A1.12 1.12 0 019.55 0h2a1.12 1.12 0 011.12 1.12v1.11a.15.15 0 00.12.14 9 9 0 012 .82.12.12 0 00.16 0l.79-.79a1.12 1.12 0 011.59 0l.15.14a.5.5 0 01-.7.71c-.09-.08-.21-.27-.33-.15l-.8.79a1.13 1.13 0 01-1.36.18 7.38 7.38 0 00-1.74-.73 1.14 1.14 0 01-.85-1.1V1.12a.13.13 0 00-.16-.12h-2a.13.13 0 00-.13.13v1.1a1.15 1.15 0 01-.84 1.1 7.45 7.45 0 00-1.75.73 1.14 1.14 0 01-1.36-.18l-.79-.79a.14.14 0 00-.09 0 .12.12 0 00-.09 0L3.09 4.5a.12.12 0 000 .09.14.14 0 000 .09l.79.79a1.14 1.14 0 01.18 1.36 7.45 7.45 0 00-.73 1.75 1.15 1.15 0 01-1.1.84H1.12a.13.13 0 00-.12.13v2a.13.13 0 00.13.13h1.1a1.14 1.14 0 011.1.85 7.38 7.38 0 00.73 1.74 1.13 1.13 0 01-.18 1.36l-.79.8a.12.12 0 000 .09.14.14 0 000 .09L4.5 18a.13.13 0 00.18 0l.79-.8a1.13 1.13 0 011.36-.2 7.42 7.42 0 001.75.72 1.16 1.16 0 01.84 1.1V20a.13.13 0 00.13.13h2a.13.13 0 00.13-.13v-1.14a1.15 1.15 0 01.85-1.1.5.5 0 01.26 1 .16.16 0 00-.12.14V20a1.12 1.12 0 01-1.13 1.09z"/><path class="cls-1" d="M5.86 10.55a4.69 4.69 0 016.35-4.38.5.5 0 01-.35.93 3.69 3.69 0 10-1.09 7.13.5.5 0 01.06 1 4.69 4.69 0 01-4.97-4.68z"/><path class="cls-1" d="M27.49 22.06l-5-1v-1.22A5.25 5.25 0 0024.8 16a1.42 1.42 0 001.32-1.42v-1a1.36 1.36 0 00-.23-2.58v-.39a6.42 6.42 0 00-6.42-6.42h-.54a6.41 6.41 0 00-6.41 6.42V11a1.35 1.35 0 00-.23 2.56v1A1.42 1.42 0 0013.6 16a5.26 5.26 0 001.76 3.42c.19.16.39.31.59.45v1.24l-5 1c-2.65.52-4.72 2-4.72 4.78v5.05a2 2 0 002 2h22a2 2 0 002-2v-5.1c-.01-2.76-2.07-4.26-4.74-4.78zm-4.13.21l-1.51 2.19a.73.73 0 01-.85.29l-.78-.47a4.76 4.76 0 002.14-2.2zM19.2 23.7c-.75-.38-2.26-1.32-2.26-2.2v-1.1a5.72 5.72 0 004.52 0v1.1c0 .88-1.46 1.82-2.26 2.2zm-5.69-13.12a5.44 5.44 0 012.8-4.75v.63a.5.5 0 001 0v-1a5.49 5.49 0 011.41-.25v2.41a.5.5 0 001 0V5.16a5.33 5.33 0 011.4.25v1a.5.5 0 001 0v-.58a5.45 5.45 0 012.79 4.75v.36h-11.4zm-.69 1.35h12.76a.36.36 0 010 .72H12.82a.36.36 0 010-.72zm1.74 3.54a.48.48 0 00-.49-.48c-.09 0-.79.12-.79-.44v-.91h11.84v.91c0 .56-.72.42-.78.44a.5.5 0 00-.5.48 4.25 4.25 0 01-1.45 3.17 4.77 4.77 0 01-6.38 0 4.33 4.33 0 01-1.45-3.17zM16 22.08a4.73 4.73 0 002.15 2.2c-.79.42-.73.55-1.09.51a.79.79 0 01-.55-.34l-1.5-2.18zm-5.69 10.84h-2.1a1 1 0 01-1-1v-5.08a3.33 3.33 0 012.16-3.23 20.37 20.37 0 011 6.19zm8.4 0H11.3V29.8a21.1 21.1 0 00-1-6.56 34.64 34.64 0 013.7-.76c1 1.49 2.94 4.27 4.07 5.87a3.56 3.56 0 01.66 2.07zm.49-4.58a4.65 4.65 0 00-.34-.56l-1.39-2a1.28 1.28 0 00.44-.18l1.29-.77 1.29.77a1.28 1.28 0 00.44.18c-.51.75-1 1.46-1.39 2a4.65 4.65 0 00-.34.56zm12 3.55a1 1 0 01-1 1h-2.1v-1.84a.5.5 0 10-1 0v1.87h-7.4v-2.5a3.63 3.63 0 01.65-2.07c.65-.91 3.29-4.72 4.07-5.87a34.63 34.63 0 013.72.76 21.81 21.81 0 00-1 5.8.5.5 0 001 0 20 20 0 01.95-5.47 3.32 3.32 0 012.16 3.23z"/></g></g></svg>