<svg xmlns="http://www.w3.org/2000/svg" viewBox="0 0 29.26 31.28"><defs><style>.cls-1{fill:#ff9300}</style></defs><g id="Слой_2" data-name="Слой 2"><g id="Слой_1-2" data-name="Слой 1"><path class="cls-1" d="M15.14 19.17h-.42a7.09 7.09 0 003-3.53h.22a2.26 2.26 0 00.25-4.51h1a.51.51 0 00.51-.5v-2a.51.51 0 00-.51-.51h-.52A7.62 7.62 0 0013 1.26l.08-.69a.48.48 0 00-.08-.4.49.49 0 00-.39-.17h-3a.49.49 0 00-.38.17.48.48 0 00-.12.4l.08.69a7.58 7.58 0 00-5.63 6.81H3a.51.51 0 00-.51.51v2a.51.51 0 00.51.5h1a2.26 2.26 0 00.25 4.51h.22a7.09 7.09 0 003 3.53h-.41A7.07 7.07 0 000 26.24v4.54a.5.5 0 00.5.5h21.2a.5.5 0 00.5-.5v-4.54a7.07 7.07 0 00-7.06-7.07zm1 1.1v4.45h-1v-4.54a6.77 6.77 0 011.01.09zm2 10h-2v-3a.51.51 0 00-.51-.51H6.56a.51.51 0 00-.51.51v3H4v-4.54h14.16zm-3 0H7.06v-2.52h8.08zm4-16.9A1.25 1.25 0 0118 14.62a7.33 7.33 0 00.16-1.5v-1a1.25 1.25 0 011.01 1.25zM12 1l-.38 3h-1.08l-.38-3zM9.3 2.28l.29 2.32a.51.51 0 00.5.45h2a.51.51 0 00.5-.45l.29-2.32a6.58 6.58 0 014.74 5.79H4.56A6.58 6.58 0 019.3 2.28zm-5.77 6.8h15.14v1H3.53zM3 13.37a1.25 1.25 0 011-1.23v1a7.33 7.33 0 00.16 1.5A1.25 1.25 0 013 13.37zm2-.25v-2h12.1v2a6.05 6.05 0 01-12.1 0zm9.08 7.06v4.54H8.07v-4.54zm-7.02 4.54h-1v-4.45a6.77 6.77 0 011-.09zM1 26.24a6.05 6.05 0 014-5.7v4.18H3.53a.5.5 0 00-.5.51v5H1zm20.18 4h-2v-5a.5.5 0 00-.5-.51h-1.53v-4.19a6.05 6.05 0 014 5.7z"/><path class="cls-1" d="M11.1 17.15a1.51 1.51 0 01-1.51-1.51h-1a2.52 2.52 0 005 0h-1a1.51 1.51 0 01-1.49 1.51zm16.15 1.69v-6.39a3.54 3.54 0 00-.34-6.52.53.53 0 00-.46.06.53.53 0 00-.21.42v2.64l-.51.5-.5-.5V6.41A.51.51 0 0025 6a.53.53 0 00-.46-.06 3.53 3.53 0 00-.33 6.52v6.39a3.52 3.52 0 00.33 6.51.5.5 0 00.46-.06.5.5 0 00.22-.41v-2.66l.5-.5.51.5v2.65a.49.49 0 00.5.5.47.47 0 00.17 0 3.53 3.53 0 00.34-6.51zm0 5.2V22a.51.51 0 00-.15-.35l-1-1a.51.51 0 00-.36-.15.47.47 0 00-.35.15l-1 1a.47.47 0 00-.15.35v2a2.52 2.52 0 01.67-4.39.51.51 0 00.34-.48v-7.02a.53.53 0 00-.34-.48 2.52 2.52 0 01-.67-4.39v2a.47.47 0 00.15.35l1 1a.5.5 0 00.71 0l1-1a.51.51 0 00.15-.35v-2a2.51 2.51 0 01-.68 4.39.52.52 0 00-.33.48v7.06a.5.5 0 00.33.48 2.51 2.51 0 01.68 4.35z"/></g></g></svg>