<svg xmlns="http://www.w3.org/2000/svg" viewBox="0 0 27.46 35.15"><defs><style>.cls-1{fill:#ff9300}</style></defs><g id="Слой_2" data-name="Слой 2"><g id="Слой_1-2" data-name="Слой 1"><path class="cls-1" d="M18.55 35.15a.58.58 0 01-.57-.57v-4.46a.58.58 0 01.57-.57h6.06a.57.57 0 01.34 1L18.89 35a.6.6 0 01-.34.15zm.57-4.46v2.76l3.75-2.76zM4.65 17.66a.57.57 0 01-.57-.57v-2.2a.57.57 0 01.57-.57.56.56 0 01.57.57v2.2a.56.56 0 01-.57.57zm5.35 0a.56.56 0 01-.57-.57v-2.2a.56.56 0 01.57-.57.57.57 0 01.57.57v2.2a.57.57 0 01-.57.57zm-2.74-7.14A2.41 2.41 0 015.15 9a4.69 4.69 0 01-.52-2.19v-.07a1.85 1.85 0 011-1.62 3.72 3.72 0 011.74-.47 3.48 3.48 0 011.87.61A1.85 1.85 0 0110 6.81 4.78 4.78 0 019.5 9a2.36 2.36 0 01-2.19 1.49zm.06-4.73a2.51 2.51 0 00-1.19.33.71.71 0 00-.36.62v.07a3.6 3.6 0 00.39 1.66c.32.61.71.91 1.15.9s.86-.28 1.18-.89a3.52 3.52 0 00.4-1.67.7.7 0 00-.32-.59 2.36 2.36 0 00-1.25-.43z"/><path class="cls-1" d="M12.25 17.66H2.41a.57.57 0 01-.57-.57v-2.8a2.81 2.81 0 012.81-2.8H10a2.81 2.81 0 012.81 2.8v2.8a.57.57 0 01-.56.57zM3 16.52h8.7v-2.23a1.66 1.66 0 00-1.7-1.66H4.65A1.66 1.66 0 003 14.29z"/><path class="cls-1" d="M14.09 17.66H.57a.57.57 0 01-.57-.57V2.8a.57.57 0 01.57-.57h13.52a.57.57 0 01.57.57v9.26a.57.57 0 01-1.14 0V3.37H1.14v13.15h12.38v-1.61a.57.57 0 011.14 0v2.18a.57.57 0 01-.57.57zm-4.25 2.15H5.58a.57.57 0 01-.58-.57.56.56 0 01.57-.57h4.27a.57.57 0 01.57.57.58.58 0 01-.57.57zm2.41 2.47H3.17a.58.58 0 01-.57-.57.57.57 0 01.57-.57h9.08a.57.57 0 01.57.57.58.58 0 01-.57.57zm0 2.47H3.17a.57.57 0 01-.57-.57.58.58 0 01.57-.57h9.08a.58.58 0 01.57.57.57.57 0 01-.57.57zm0 2.47H3.17a.57.57 0 01-.57-.57.58.58 0 01.57-.57h9.08a.58.58 0 01.57.57.57.57 0 01-.57.57zm0 2.48H3.17a.58.58 0 01-.57-.57.57.57 0 01.57-.57h9.08a.57.57 0 01.57.57.58.58 0 01-.57.57z"/><path class="cls-1" d="M18.55 35.15H.57a.58.58 0 01-.57-.57V2.8a.57.57 0 01.57-.57h20.61a.57.57 0 01.57.57.58.58 0 01-.57.57h-20V34h17.19L24 29.83V19.24a.57.57 0 01.57-.57.56.56 0 01.57.57v10.88a.56.56 0 01-.23.46L18.89 35a.58.58 0 01-.34.15z"/><path class="cls-1" d="M2.85 3.37a.58.58 0 01-.57-.57V.57A.58.58 0 012.85 0h24a.57.57 0 110 1.14H3.42V2.8a.57.57 0 01-.57.57zm24.04 25.12h-2.28a.57.57 0 01-.57-.57.58.58 0 01.57-.57h1.71V15.12a.58.58 0 01.57-.57.57.57 0 01.57.57v12.8a.56.56 0 01-.57.57zm-9.13-3.4a2.13 2.13 0 01-1.91-1.2 2.1 2.1 0 01-.09-1.63l5.83-16.72a.57.57 0 01.73-.35l2.94 1a.57.57 0 01.32.29.56.56 0 010 .44l-5.81 16.74a2.12 2.12 0 01-2.01 1.43zm4.72-18.64l-5.65 16.19a1 1 0 00.05.75.92.92 0 00.56.5 1 1 0 001.26-.6L24.34 7.1z"/><path class="cls-1" d="M16.73 26.49h-.19a.58.58 0 01-.35-.73l.52-1.49a.58.58 0 01.73-.35.58.58 0 01.35.73l-.52 1.49a.57.57 0 01-.54.35zm7.82-19.35h-.18l-1.91-.67a.56.56 0 01-.35-.72l.71-2a1.59 1.59 0 012-1 1.61 1.61 0 01.91.81 1.59 1.59 0 01.06 1.21l-.71 2a.59.59 0 01-.54.38zm-1.18-1.58l.83.29.53-1.51a.45.45 0 000-.34.45.45 0 00-.25-.22.44.44 0 00-.56.27zm1.12 10.6h-.19a.58.58 0 01-.3-.76l1.3-3.7a1.81 1.81 0 00-.08-1.37 1.83 1.83 0 00-1-.92.56.56 0 01-.35-.72.57.57 0 01.73-.35 2.94 2.94 0 011.8 3.74l-1.4 3.7a.56.56 0 01-.51.38zm-4.76 6.47a.63.63 0 01-.19 0l-2.94-1a.57.57 0 01-.35-.73.58.58 0 01.73-.35l2.94 1a.57.57 0 01-.19 1.11zm-1.18 12.52a.58.58 0 01-.57-.57v-4.46a.58.58 0 01.57-.57h6.06a.57.57 0 01.34 1L18.89 35a.6.6 0 01-.34.15zm.57-4.46v2.76l3.75-2.76zM4.65 17.66a.57.57 0 01-.57-.57v-2.2a.57.57 0 01.57-.57.56.56 0 01.57.57v2.2a.56.56 0 01-.57.57zm5.35 0a.56.56 0 01-.57-.57v-2.2a.56.56 0 01.57-.57.57.57 0 01.57.57v2.2a.57.57 0 01-.57.57zm-2.74-7.14A2.41 2.41 0 015.15 9a4.69 4.69 0 01-.52-2.19v-.07a1.85 1.85 0 011-1.62 3.72 3.72 0 011.74-.47 3.48 3.48 0 011.87.61A1.85 1.85 0 0110 6.81 4.78 4.78 0 019.5 9a2.36 2.36 0 01-2.19 1.49zm.06-4.73a2.51 2.51 0 00-1.19.33.71.71 0 00-.36.62v.07a3.6 3.6 0 00.39 1.66c.32.61.71.91 1.15.9s.86-.28 1.18-.89a3.52 3.52 0 00.4-1.67.7.7 0 00-.32-.59 2.36 2.36 0 00-1.25-.43z"/><path class="cls-1" d="M12.25 17.66H2.41a.57.57 0 01-.57-.57v-2.8a2.81 2.81 0 012.81-2.8H10a2.81 2.81 0 012.81 2.8v2.8a.57.57 0 01-.56.57zM3 16.52h8.7v-2.23a1.66 1.66 0 00-1.7-1.66H4.65A1.66 1.66 0 003 14.29z"/><path class="cls-1" d="M14.09 17.66H.57a.57.57 0 01-.57-.57V2.8a.57.57 0 01.57-.57h13.52a.57.57 0 01.57.57v9.26a.57.57 0 01-1.14 0V3.37H1.14v13.15h12.38v-1.61a.57.57 0 011.14 0v2.18a.57.57 0 01-.57.57zm-4.25 2.15H5.58a.57.57 0 01-.58-.57.56.56 0 01.57-.57h4.27a.57.57 0 01.57.57.58.58 0 01-.57.57zm2.41 2.47H3.17a.58.58 0 01-.57-.57.57.57 0 01.57-.57h9.08a.57.57 0 01.57.57.58.58 0 01-.57.57zm0 2.47H3.17a.57.57 0 01-.57-.57.58.58 0 01.57-.57h9.08a.58.58 0 01.57.57.57.57 0 01-.57.57zm0 2.47H3.17a.57.57 0 01-.57-.57.58.58 0 01.57-.57h9.08a.58.58 0 01.57.57.57.57 0 01-.57.57zm0 2.48H3.17a.58.58 0 01-.57-.57.57.57 0 01.57-.57h9.08a.57.57 0 01.57.57.58.58 0 01-.57.57z"/><path class="cls-1" d="M18.55 35.15H.57a.58.58 0 01-.57-.57V2.8a.57.57 0 01.57-.57h20.61a.57.57 0 01.57.57.58.58 0 01-.57.57h-20V34h17.19L24 29.83V19.24a.57.57 0 01.57-.57.56.56 0 01.57.57v10.88a.56.56 0 01-.23.46L18.89 35a.58.58 0 01-.34.15z"/><path class="cls-1" d="M2.85 3.37a.58.58 0 01-.57-.57V.57A.58.58 0 012.85 0h24a.57.57 0 110 1.14H3.42V2.8a.57.57 0 01-.57.57zm24.04 25.12h-2.28a.57.57 0 01-.57-.57.58.58 0 01.57-.57h1.71V15.12a.58.58 0 01.57-.57.57.57 0 01.57.57v12.8a.56.56 0 01-.57.57zm-9.13-3.4a2.13 2.13 0 01-1.91-1.2 2.1 2.1 0 01-.09-1.63l5.83-16.72a.57.57 0 01.73-.35l2.94 1a.57.57 0 01.32.29.56.56 0 010 .44l-5.81 16.74a2.12 2.12 0 01-2.01 1.43zm4.72-18.64l-5.65 16.19a1 1 0 00.05.75.92.92 0 00.56.5 1 1 0 001.26-.6L24.34 7.1z"/><path class="cls-1" d="M16.73 26.49h-.19a.58.58 0 01-.35-.73l.52-1.49a.58.58 0 01.73-.35.58.58 0 01.35.73l-.52 1.49a.57.57 0 01-.54.35zm7.82-19.35h-.18l-1.91-.67a.56.56 0 01-.35-.72l.71-2a1.59 1.59 0 012-1 1.61 1.61 0 01.91.81 1.59 1.59 0 01.06 1.21l-.71 2a.59.59 0 01-.54.38zm-1.18-1.58l.83.29.53-1.51a.45.45 0 000-.34.45.45 0 00-.25-.22.44.44 0 00-.56.27zm1.12 10.6h-.19a.58.58 0 01-.3-.76l1.3-3.7a1.81 1.81 0 00-.08-1.37 1.83 1.83 0 00-1-.92.56.56 0 01-.35-.72.57.57 0 01.73-.35 2.94 2.94 0 011.8 3.74l-1.4 3.7a.56.56 0 01-.51.38zm-4.76 6.47a.63.63 0 01-.19 0l-2.94-1a.57.57 0 01-.35-.73.58.58 0 01.73-.35l2.94 1a.57.57 0 01-.19 1.11z"/></g></g></svg>