<svg xmlns="http://www.w3.org/2000/svg" viewBox="0 0 23.91 34.69"><defs><style>.cls-1{fill:#ff9300}</style></defs><g id="Слой_2" data-name="Слой 2"><g id="Слой_1-2" data-name="Слой 1"><path class="cls-1" d="M20.35 20H1.81a.56.56 0 01-.55-.4L0 15.48A.61.61 0 01.11 15a.59.59 0 01.46-.23h21a.59.59 0 01.46.23.58.58 0 01.08.51l-1.21 4.12a.57.57 0 01-.55.37zM2.23 18.89h17.7l.89-3H1.33z"/><path class="cls-1" d="M18 34.69H4.19a.57.57 0 01-.57-.57V19.46a.58.58 0 01.57-.57H18a.58.58 0 01.57.57v14.66a.57.57 0 01-.57.57zM4.76 33.55H17.4V20H4.76z"/><path class="cls-1" d="M15.14 31.69H7a.57.57 0 01-.57-.57v-8.65A.57.57 0 017 21.9h8.12a.57.57 0 01.57.57v8.65a.57.57 0 01-.55.57zm-7.55-1.14h7V23h-7zm3.72-23.74A3.34 3.34 0 018.06 3.4 3.34 3.34 0 0111.31 0a3.34 3.34 0 013.25 3.4 3.34 3.34 0 01-3.25 3.41zm0-5.67A2.2 2.2 0 009.2 3.4a2.2 2.2 0 002.11 2.27 2.2 2.2 0 002.11-2.27 2.2 2.2 0 00-2.11-2.26zM8.32 15.88a.56.56 0 01-.57-.57v-2.26a.56.56 0 01.57-.57.57.57 0 01.57.57v2.26a.57.57 0 01-.57.57z"/><path class="cls-1" d="M14.3 15.88H5.36a.56.56 0 01-.57-.57v-3.89a3.54 3.54 0 013.53-3.53h5.89a18.15 18.15 0 006.13-4.09 2.09 2.09 0 012.75-.16 2 2 0 01.53 2.66 13.31 13.31 0 01-8.75 5.9v3.11a.56.56 0 01-.57.57zm-8.37-1.14h7.8v-3a.57.57 0 01.48-.56 12.17 12.17 0 008.43-5.45.86.86 0 00-.25-1.17 1 1 0 00-1.25.07A18.67 18.67 0 0114.48 9H8.3a2.4 2.4 0 00-2.39 2.39zm17.41 19.95H.57a.57.57 0 01-.57-.57.58.58 0 01.57-.57h22.77a.57.57 0 01.57.57.56.56 0 01-.57.57z"/><path class="cls-1" d="M20.35 20H1.81a.56.56 0 01-.55-.4L0 15.48A.61.61 0 01.11 15a.59.59 0 01.46-.23h21a.59.59 0 01.46.23.58.58 0 01.08.51l-1.21 4.12a.57.57 0 01-.55.37zM2.23 18.89h17.7l.89-3H1.33z"/><path class="cls-1" d="M18 34.69H4.19a.57.57 0 01-.57-.57V19.46a.58.58 0 01.57-.57H18a.58.58 0 01.57.57v14.66a.57.57 0 01-.57.57zM4.76 33.55H17.4V20H4.76z"/><path class="cls-1" d="M15.14 31.69H7a.57.57 0 01-.57-.57v-8.65A.57.57 0 017 21.9h8.12a.57.57 0 01.57.57v8.65a.57.57 0 01-.55.57zm-7.55-1.14h7V23h-7zm3.72-23.74A3.34 3.34 0 018.06 3.4 3.34 3.34 0 0111.31 0a3.34 3.34 0 013.25 3.4 3.34 3.34 0 01-3.25 3.41zm0-5.67A2.2 2.2 0 009.2 3.4a2.2 2.2 0 002.11 2.27 2.2 2.2 0 002.11-2.27 2.2 2.2 0 00-2.11-2.26zM8.32 15.88a.56.56 0 01-.57-.57v-2.26a.56.56 0 01.57-.57.57.57 0 01.57.57v2.26a.57.57 0 01-.57.57z"/><path class="cls-1" d="M14.3 15.88H5.36a.56.56 0 01-.57-.57v-3.89a3.54 3.54 0 013.53-3.53h5.89a18.15 18.15 0 006.13-4.09 2.09 2.09 0 012.75-.16 2 2 0 01.53 2.66 13.31 13.31 0 01-8.75 5.9v3.11a.56.56 0 01-.57.57zm-8.37-1.14h7.8v-3a.57.57 0 01.48-.56 12.17 12.17 0 008.43-5.45.86.86 0 00-.25-1.17 1 1 0 00-1.25.07A18.67 18.67 0 0114.48 9H8.3a2.4 2.4 0 00-2.39 2.39zm17.41 19.95H.57a.57.57 0 01-.57-.57.58.58 0 01.57-.57h22.77a.57.57 0 01.57.57.56.56 0 01-.57.57z"/></g></g></svg>