<svg xmlns="http://www.w3.org/2000/svg" viewBox="0 0 32.52 32.08"><defs><style>.cls-1{fill:#ff9300}</style></defs><g id="Слой_2" data-name="Слой 2"><g id="Слой_1-2" data-name="Слой 1"><path class="cls-1" d="M32 32.08H.57a.58.58 0 01-.57-.57V8.19a.55.55 0 01.19-.42L8.88.14A.59.59 0 019.26 0h13.52a.57.57 0 01.57.57v5.9a.56.56 0 01-.57.57.57.57 0 01-.57-.57V1.14H9.47L1.14 8.45v22.49H32a.56.56 0 01.57.57.57.57 0 01-.57.57z"/><path class="cls-1" d="M16.17 4.86H9.26a.58.58 0 01-.57-.57.57.57 0 01.57-.57h6.91a.56.56 0 01.57.57.57.57 0 01-.57.57zm-4.54 3.08H9.26a.58.58 0 01-.57-.57.57.57 0 01.57-.57h2.37a.57.57 0 01.57.57.58.58 0 01-.57.57zm0 3.06h-8a.57.57 0 01-.57-.57.58.58 0 01.57-.57h8a.58.58 0 01.57.57.57.57 0 01-.57.57zm0 3.09h-8a.57.57 0 01-.57-.57.58.58 0 01.62-.52h8a.58.58 0 01.57.57.57.57 0 01-.62.52zm0 3.08h-8a.57.57 0 110-1.14h8a.57.57 0 010 1.14zm8.04 3.08h-16a.58.58 0 01-.57-.57.57.57 0 01.57-.57h16a.56.56 0 01.57.57.57.57 0 01-.57.57zm0 3.08h-16a.58.58 0 01-.57-.57.57.57 0 01.57-.57h16a.56.56 0 01.57.57.57.57 0 01-.57.57z"/><path class="cls-1" d="M9.26 8.76H.57A.55.55 0 010 8.4a.57.57 0 01.15-.63L8.88.14A.58.58 0 019.5.05a.57.57 0 01.33.52v7.62a.57.57 0 01-.57.57zM2.08 7.62h6.61V1.83zM23 17.12a15.28 15.28 0 01-4.2-.57.56.56 0 01-.41-.54V9.09a.57.57 0 01.41-.55 16.17 16.17 0 018.4 0 .58.58 0 01.42.55V16a.56.56 0 01-.42.54 15.28 15.28 0 01-4.2.58zm-3.47-1.55a15.11 15.11 0 007 0v-6a15.11 15.11 0 00-6.95 0z"/><path class="cls-1" d="M30.69 17.84H28.3A1.83 1.83 0 0126.47 16V9.09a1.84 1.84 0 011.83-1.84h2.39a1.84 1.84 0 011.83 1.84V16a1.83 1.83 0 01-1.83 1.84zM28.3 8.39a.7.7 0 00-.69.7V16a.69.69 0 00.69.69h2.39a.69.69 0 00.69-.69V9.09a.7.7 0 00-.69-.7zm-10.62 9.45H15.3A1.83 1.83 0 0113.46 16V9.09a1.84 1.84 0 011.84-1.84h2.38a1.85 1.85 0 011.84 1.84V16a1.84 1.84 0 01-1.84 1.84zM15.3 8.39a.7.7 0 00-.7.7V16a.69.69 0 00.7.69h2.38a.7.7 0 00.7-.69V9.09a.71.71 0 00-.7-.7zM23 29.81a1.93 1.93 0 01-1.92-2l.25-9.55a.59.59 0 01.34-.51.59.59 0 01.6.08 1.16 1.16 0 001.47 0 .59.59 0 01.6-.08.6.6 0 01.33.51l.25 9.55a1.91 1.91 0 01-1.92 2zm-.56-10.61l-.23 8.67a.82.82 0 00.22.56.81.81 0 001.12 0 .78.78 0 00.22-.56l-.23-8.67a2.27 2.27 0 01-1.1 0z"/><path class="cls-1" d="M23 19.27A2.3 2.3 0 0120.7 17a2.2 2.2 0 01.1-.68.56.56 0 01.6-.4 15.36 15.36 0 003.18 0 .56.56 0 01.6.4 2.2 2.2 0 01.11.68A2.3 2.3 0 0123 19.27zm-1.15-2.19a1.15 1.15 0 002.3 0 17.65 17.65 0 01-2.31 0z"/><path class="cls-1" d="M32 32.08H.57a.58.58 0 01-.57-.57V8.19a.55.55 0 01.19-.42L8.88.14A.59.59 0 019.26 0h13.52a.57.57 0 01.57.57v5.9a.56.56 0 01-.57.57.57.57 0 01-.57-.57V1.14H9.47L1.14 8.45v22.49H32a.56.56 0 01.57.57.57.57 0 01-.57.57z"/><path class="cls-1" d="M16.17 4.86H9.26a.58.58 0 01-.57-.57.57.57 0 01.57-.57h6.91a.56.56 0 01.57.57.57.57 0 01-.57.57zm-4.54 3.08H9.26a.58.58 0 01-.57-.57.57.57 0 01.57-.57h2.37a.57.57 0 01.57.57.58.58 0 01-.57.57zm0 3.06h-8a.57.57 0 01-.57-.57.58.58 0 01.57-.57h8a.58.58 0 01.57.57.57.57 0 01-.57.57zm0 3.09h-8a.57.57 0 01-.57-.57.58.58 0 01.62-.52h8a.58.58 0 01.57.57.57.57 0 01-.62.52zm0 3.08h-8a.57.57 0 110-1.14h8a.57.57 0 010 1.14zm8.04 3.08h-16a.58.58 0 01-.57-.57.57.57 0 01.57-.57h16a.56.56 0 01.57.57.57.57 0 01-.57.57zm0 3.08h-16a.58.58 0 01-.57-.57.57.57 0 01.57-.57h16a.56.56 0 01.57.57.57.57 0 01-.57.57z"/><path class="cls-1" d="M9.26 8.76H.57A.55.55 0 010 8.4a.57.57 0 01.15-.63L8.88.14A.58.58 0 019.5.05a.57.57 0 01.33.52v7.62a.57.57 0 01-.57.57zM2.08 7.62h6.61V1.83zM23 17.12a15.28 15.28 0 01-4.2-.57.56.56 0 01-.41-.54V9.09a.57.57 0 01.41-.55 16.17 16.17 0 018.4 0 .58.58 0 01.42.55V16a.56.56 0 01-.42.54 15.28 15.28 0 01-4.2.58zm-3.47-1.55a15.11 15.11 0 007 0v-6a15.11 15.11 0 00-6.95 0z"/><path class="cls-1" d="M30.69 17.84H28.3A1.83 1.83 0 0126.47 16V9.09a1.84 1.84 0 011.83-1.84h2.39a1.84 1.84 0 011.83 1.84V16a1.83 1.83 0 01-1.83 1.84zM28.3 8.39a.7.7 0 00-.69.7V16a.69.69 0 00.69.69h2.39a.69.69 0 00.69-.69V9.09a.7.7 0 00-.69-.7zm-10.62 9.45H15.3A1.83 1.83 0 0113.46 16V9.09a1.84 1.84 0 011.84-1.84h2.38a1.85 1.85 0 011.84 1.84V16a1.84 1.84 0 01-1.84 1.84zM15.3 8.39a.7.7 0 00-.7.7V16a.69.69 0 00.7.69h2.38a.7.7 0 00.7-.69V9.09a.71.71 0 00-.7-.7zM23 29.81a1.93 1.93 0 01-1.92-2l.25-9.55a.59.59 0 01.34-.51.59.59 0 01.6.08 1.16 1.16 0 001.47 0 .59.59 0 01.6-.08.6.6 0 01.33.51l.25 9.55a1.91 1.91 0 01-1.92 2zm-.56-10.61l-.23 8.67a.82.82 0 00.22.56.81.81 0 001.12 0 .78.78 0 00.22-.56l-.23-8.67a2.27 2.27 0 01-1.1 0z"/><path class="cls-1" d="M23 19.27A2.3 2.3 0 0120.7 17a2.2 2.2 0 01.1-.68.56.56 0 01.6-.4 15.36 15.36 0 003.18 0 .56.56 0 01.6.4 2.2 2.2 0 01.11.68A2.3 2.3 0 0123 19.27zm-1.15-2.19a1.15 1.15 0 002.3 0 17.65 17.65 0 01-2.31 0z"/></g></g></svg>