<svg xmlns="http://www.w3.org/2000/svg" viewBox="0 0 29.62 33.5"><defs><style>.cls-1{fill:#ff9300}</style></defs><g id="Слой_2" data-name="Слой 2"><g id="Слой_1-2" data-name="Слой 1"><path class="cls-1" d="M29.05 33.5H3.71A3.72 3.72 0 010 29.79V3.71A3.71 3.71 0 013.71 0h25.34a.57.57 0 01.57.57v32.36a.57.57 0 01-.57.57zM3.71 1.14a2.57 2.57 0 00-2.57 2.57v26.08a2.57 2.57 0 002.57 2.57h24.77V1.14z"/><path class="cls-1" d="M4.58 33.5a.58.58 0 01-.58-.57V.57A.58.58 0 014.58 0a.57.57 0 01.57.57v32.36a.57.57 0 01-.57.57zm20.73-16.18h-17a.57.57 0 01-.57-.57v-9a.56.56 0 01.57-.57h17a.57.57 0 01.57.57v9a.58.58 0 01-.57.57zM8.9 16.18h15.84V8.32H8.9z"/><path class="cls-1" d="M21.52 11.11h-9.46a.58.58 0 01-.57-.57.57.57 0 01.57-.57h9.46a.57.57 0 01.57.57.58.58 0 01-.57.57zM18.85 14h-4.12a.56.56 0 01-.57-.57.57.57 0 01.57-.57h4.12a.57.57 0 01.57.57.56.56 0 01-.57.57zm6.46-8.48a.59.59 0 01-.31-.07l-2.06-1.21-2.09 1.21a.58.58 0 01-.57 0A.59.59 0 0120 5V.57a.57.57 0 01.57-.57h4.74a.58.58 0 01.57.57V5a.56.56 0 01-.57.57zm-4.17-4.38V4l1.51-.87a.58.58 0 01.57 0l1.52.87V1.14z"/><path class="cls-1" d="M29.05 33.5H3.71A3.72 3.72 0 010 29.79V3.71A3.71 3.71 0 013.71 0h25.34a.57.57 0 01.57.57v32.36a.57.57 0 01-.57.57zM3.71 1.14a2.57 2.57 0 00-2.57 2.57v26.08a2.57 2.57 0 002.57 2.57h24.77V1.14z"/><path class="cls-1" d="M4.58 33.5a.58.58 0 01-.58-.57V.57A.58.58 0 014.58 0a.57.57 0 01.57.57v32.36a.57.57 0 01-.57.57zm20.73-16.18h-17a.57.57 0 01-.57-.57v-9a.56.56 0 01.57-.57h17a.57.57 0 01.57.57v9a.58.58 0 01-.57.57zM8.9 16.18h15.84V8.32H8.9z"/><path class="cls-1" d="M21.52 11.11h-9.46a.58.58 0 01-.57-.57.57.57 0 01.57-.57h9.46a.57.57 0 01.57.57.58.58 0 01-.57.57zM18.85 14h-4.12a.56.56 0 01-.57-.57.57.57 0 01.57-.57h4.12a.57.57 0 01.57.57.56.56 0 01-.57.57zm6.46-8.48a.59.59 0 01-.31-.07l-2.06-1.21-2.09 1.21a.58.58 0 01-.57 0A.59.59 0 0120 5V.57a.57.57 0 01.57-.57h4.74a.58.58 0 01.57.57V5a.56.56 0 01-.57.57zm-4.17-4.38V4l1.51-.87a.58.58 0 01.57 0l1.52.87V1.14z"/></g></g></svg>