<svg xmlns="http://www.w3.org/2000/svg" viewBox="0 0 34.74 27.4"><defs><style>.cls-1{fill:#ff9300}</style></defs><g id="Слой_2" data-name="Слой 2"><g id="Слой_1-2" data-name="Слой 1"><path class="cls-1" d="M5.18 8.14A5.36 5.36 0 014.12 8a6.54 6.54 0 01-4-2.59.57.57 0 01.15-.79.58.58 0 01.73.2 5.55 5.55 0 003.29 2.1 6.66 6.66 0 005-1.51c4.91-3.52 7.17-3.36 8-3.06.82-.3 3.09-.46 8 3.06a6.67 6.67 0 005 1.51 5.47 5.47 0 003.29-2.1.57.57 0 01.79-.15.55.55 0 01.16.78 6.58 6.58 0 01-4 2.59 7.74 7.74 0 01-5.92-1.7c-5.27-3.79-7-2.89-7-2.88a.47.47 0 01-.64 0s-1.75-.87-7 2.9a8.4 8.4 0 01-4.79 1.78z"/><path class="cls-1" d="M17.37 17.48a.56.56 0 01-.57-.57V.57a.57.57 0 01.57-.57.58.58 0 01.57.57v16.34a.57.57 0 01-.57.57z"/><path class="cls-1" d="M25.82 24.75H8.92a.57.57 0 01-.57-.57 2.84 2.84 0 012.84-2.84h3.28V10.18a.56.56 0 01.17-.4L17 7.43a.6.6 0 01.81 0l2.29 2.35a.59.59 0 01.16.4v11.16h3.29a2.84 2.84 0 012.84 2.84.57.57 0 01-.57.57zM9.58 23.61h15.57a1.69 1.69 0 00-1.6-1.13h-3.86a.58.58 0 01-.57-.57v-11.5l-1.75-1.77-1.75 1.77v11.5a.58.58 0 01-.57.57h-3.86a1.71 1.71 0 00-1.61 1.13z"/><path class="cls-1" d="M28.34 27.4H6.4a.57.57 0 01-.57-.57V26a2.38 2.38 0 012.37-2.39h18.33A2.39 2.39 0 0128.91 26v.84a.57.57 0 01-.57.56zM7 26.26h20.8V26a1.23 1.23 0 00-1.24-1.24H8.2A1.23 1.23 0 007 26z"/><path class="cls-1" d="M30.91 27.4H3.82a.58.58 0 01-.57-.57.57.57 0 01.57-.57h27.09a.56.56 0 01.57.57.57.57 0 01-.57.57zm-1.16-8.16a4.08 4.08 0 01-4.08-4.08.56.56 0 01.57-.57h7a.56.56 0 01.57.57 4.09 4.09 0 01-4.06 4.08zm-2.89-3.51a3 3 0 005.79 0z"/><path class="cls-1" d="M32.38 15.73a.59.59 0 01-.54-.39l-2.09-6-2.09 6a.57.57 0 11-1.07-.34l2.63-7.59a.55.55 0 01.53-.41.56.56 0 01.54.38L32.92 15a.55.55 0 01-.35.72.41.41 0 01-.19.01zM5 19.24a4.09 4.09 0 01-4.11-4.08.57.57 0 01.57-.57h7a.56.56 0 01.57.57A4.09 4.09 0 015 19.24zm-2.91-3.51a3 3 0 005.79 0z"/><path class="cls-1" d="M2.35 15.73a.39.39 0 01-.18 0 .55.55 0 01-.35-.73l2.62-7.62A.57.57 0 015 7a.56.56 0 01.54.38L8.15 15a.56.56 0 01-.35.72.57.57 0 01-.73-.35L5 9.31l-2.09 6a.57.57 0 01-.56.42z"/><path class="cls-1" d="M5.18 8.14A5.36 5.36 0 014.12 8a6.54 6.54 0 01-4-2.59.57.57 0 01.15-.79.58.58 0 01.73.2 5.55 5.55 0 003.29 2.1 6.66 6.66 0 005-1.51c4.91-3.52 7.17-3.36 8-3.06.82-.3 3.09-.46 8 3.06a6.67 6.67 0 005 1.51 5.47 5.47 0 003.29-2.1.57.57 0 01.79-.15.55.55 0 01.16.78 6.58 6.58 0 01-4 2.59 7.74 7.74 0 01-5.92-1.7c-5.27-3.79-7-2.89-7-2.88a.47.47 0 01-.64 0s-1.75-.87-7 2.9a8.4 8.4 0 01-4.79 1.78z"/><path class="cls-1" d="M17.37 17.48a.56.56 0 01-.57-.57V.57a.57.57 0 01.57-.57.58.58 0 01.57.57v16.34a.57.57 0 01-.57.57z"/><path class="cls-1" d="M25.82 24.75H8.92a.57.57 0 01-.57-.57 2.84 2.84 0 012.84-2.84h3.28V10.18a.56.56 0 01.17-.4L17 7.43a.6.6 0 01.81 0l2.29 2.35a.59.59 0 01.16.4v11.16h3.29a2.84 2.84 0 012.84 2.84.57.57 0 01-.57.57zM9.58 23.61h15.57a1.69 1.69 0 00-1.6-1.13h-3.86a.58.58 0 01-.57-.57v-11.5l-1.75-1.77-1.75 1.77v11.5a.58.58 0 01-.57.57h-3.86a1.71 1.71 0 00-1.61 1.13z"/><path class="cls-1" d="M28.34 27.4H6.4a.57.57 0 01-.57-.57V26a2.38 2.38 0 012.37-2.39h18.33A2.39 2.39 0 0128.91 26v.84a.57.57 0 01-.57.56zM7 26.26h20.8V26a1.23 1.23 0 00-1.24-1.24H8.2A1.23 1.23 0 007 26z"/><path class="cls-1" d="M30.91 27.4H3.82a.58.58 0 01-.57-.57.57.57 0 01.57-.57h27.09a.56.56 0 01.57.57.57.57 0 01-.57.57zm-1.16-8.16a4.08 4.08 0 01-4.08-4.08.56.56 0 01.57-.57h7a.56.56 0 01.57.57 4.09 4.09 0 01-4.06 4.08zm-2.89-3.51a3 3 0 005.79 0z"/><path class="cls-1" d="M32.38 15.73a.59.59 0 01-.54-.39l-2.09-6-2.09 6a.57.57 0 11-1.07-.34l2.63-7.59a.55.55 0 01.53-.41.56.56 0 01.54.38L32.92 15a.55.55 0 01-.35.72.41.41 0 01-.19.01zM5 19.24a4.09 4.09 0 01-4.11-4.08.57.57 0 01.57-.57h7a.56.56 0 01.57.57A4.09 4.09 0 015 19.24zm-2.91-3.51a3 3 0 005.79 0z"/><path class="cls-1" d="M2.35 15.73a.39.39 0 01-.18 0 .55.55 0 01-.35-.73l2.62-7.62A.57.57 0 015 7a.56.56 0 01.54.38L8.15 15a.56.56 0 01-.35.72.57.57 0 01-.73-.35L5 9.31l-2.09 6a.57.57 0 01-.56.42z"/></g></g></svg>