<svg xmlns="http://www.w3.org/2000/svg" viewBox="0 0 35.57 29.45"><defs><style>.cls-1{fill:#ff9300}</style></defs><g id="Слой_2" data-name="Слой 2"><g id="Слой_1-2" data-name="Слой 1"><path class="cls-1" d="M35 19.14a.56.56 0 01-.57-.57v-.91a.56.56 0 01.57-.57.57.57 0 01.57.57v.91a.57.57 0 01-.57.57zm0-3.26a.56.56 0 01-.57-.57v-1.17a.56.56 0 01.57-.57.57.57 0 01.57.57v1.17a.57.57 0 01-.57.57zm0-3.52a.57.57 0 01-.57-.57v-.92a.57.57 0 01.57-.57.58.58 0 01.57.57v.92a.58.58 0 01-.57.57z"/><path class="cls-1" d="M33.26 29.45h-.66a.58.58 0 01-.57-.57.57.57 0 01.57-.57h.66a1.18 1.18 0 001.17-1.17v-8.57A.57.57 0 0135 18a.58.58 0 01.57.57v8.57a2.32 2.32 0 01-2.31 2.31zm-16.53-2.89H3.64a.56.56 0 01-.57-.56V11.15a.56.56 0 01.57-.57h13.09a.57.57 0 01.57.57V26a.57.57 0 01-.57.56zM4.21 25.42h12v-13.7h-12zM29 12.63h-5.81a.56.56 0 01-.57-.57.57.57 0 01.57-.57H29a.57.57 0 01.57.57.56.56 0 01-.57.57zm2.65 2.88H20.56a.57.57 0 01-.57-.57.58.58 0 01.57-.57h11.09a.57.57 0 01.57.57.56.56 0 01-.57.57zm0 2.89H20.56a.58.58 0 01-.57-.57.57.57 0 01.57-.57h11.09a.56.56 0 01.57.57.57.57 0 01-.57.57zm0 2.88H20.56a.58.58 0 01-.57-.57.57.57 0 01.57-.57h11.09a.56.56 0 01.57.57.57.57 0 01-.57.57zM28.15 25H28c-.52-.08-.75-.61-.83-.78a.57.57 0 011-.5l.08-.1c.27-.31.63-.72 1.15-.64a1.13 1.13 0 01.8.74l.09-.1c.26-.3.61-.71 1.13-.64a.57.57 0 01.49.64.57.57 0 01-.52.49c-.07.06-.17.18-.24.25-.26.31-.62.72-1.14.64a1.16 1.16 0 01-.81-.73.76.76 0 01-.09.09 1.44 1.44 0 01-.96.64zM26 24.5h-.9a.57.57 0 01-.57-.57.58.58 0 01.57-.57h.9a.58.58 0 01.57.57.57.57 0 01-.57.57z"/><path class="cls-1" d="M28 29.45H2.31A2.31 2.31 0 010 27.14V10a2.3 2.3 0 012.31-2.3h9.2a.57.57 0 01.57.57h11.41a.58.58 0 01.57-.61h9.2A2.31 2.31 0 0135.57 10v.87a.57.57 0 01-.57.57.56.56 0 01-.57-.57V10a1.17 1.17 0 00-1.17-1.16h-8.63a.58.58 0 01-.57.61H11.51a.57.57 0 01-.57-.57H2.31A1.16 1.16 0 001.14 10v17.14a1.17 1.17 0 001.17 1.17H28a.56.56 0 01.57.57.57.57 0 01-.57.57z"/><path class="cls-1" d="M24.06 9.45H11.51a.57.57 0 01-.57-.57v-2.8a.57.57 0 01.57-.58h12.55a.57.57 0 01.57.58v2.8a.57.57 0 01-.57.57zm-12-1.14h11.43V6.65H12.08z"/><path class="cls-1" d="M21.85 6.65h-8.13a.58.58 0 01-.57-.57V3.5a.58.58 0 01.57-.57h2.66a.56.56 0 01.44.22 1.22 1.22 0 001.92 0 .58.58 0 01.45-.22h2.66a.58.58 0 01.57.57v2.58a.58.58 0 01-.57.57zM14.29 5.5h7V4.07h-1.85a2.34 2.34 0 01-1.66.69 2.37 2.37 0 01-1.66-.69h-1.83z"/><path class="cls-1" d="M17.78 4.76a2.38 2.38 0 112.38-2.38 2.38 2.38 0 01-2.38 2.38zm0-3.62A1.24 1.24 0 1019 2.38a1.24 1.24 0 00-1.22-1.24zm14.08 7.7h-4a.57.57 0 01-.57-.57 2.59 2.59 0 115.17 0 .58.58 0 01-.6.57zM28.52 7.7h2.65a1.44 1.44 0 00-2.65 0zM7.74 8.84h-4a.57.57 0 01-.57-.57 2.59 2.59 0 115.17 0 .58.58 0 01-.6.57zM4.4 7.7h2.65a1.44 1.44 0 00-2.65 0zm10.4 18.86H5.57A.56.56 0 015 26v-3.1a3.08 3.08 0 013.07-3.08h4.23a3.08 3.08 0 013.07 3.08V26a.57.57 0 01-.57.56zm-8.66-1.14h8.09v-2.53A1.94 1.94 0 0012.3 21H8.07a1.93 1.93 0 00-1.93 1.94z"/><path class="cls-1" d="M7.51 26.56a.57.57 0 01-.57-.56v-2.48a.58.58 0 01.57-.52.57.57 0 01.57.57V26a.56.56 0 01-.57.56zm5.34 0a.57.57 0 01-.57-.57v-2.47a.58.58 0 011.15 0V26a.57.57 0 01-.58.56zM10.18 19a2.69 2.69 0 112.69-2.69A2.69 2.69 0 0110.18 19zm0-4.24a1.55 1.55 0 101.55 1.55 1.55 1.55 0 00-1.55-1.58zM35 19.14a.56.56 0 01-.57-.57v-.91a.56.56 0 01.57-.57.57.57 0 01.57.57v.91a.57.57 0 01-.57.57zm0-3.26a.56.56 0 01-.57-.57v-1.17a.56.56 0 01.57-.57.57.57 0 01.57.57v1.17a.57.57 0 01-.57.57zm0-3.52a.57.57 0 01-.57-.57v-.92a.57.57 0 01.57-.57.58.58 0 01.57.57v.92a.58.58 0 01-.57.57z"/><path class="cls-1" d="M33.26 29.45h-.66a.58.58 0 01-.57-.57.57.57 0 01.57-.57h.66a1.18 1.18 0 001.17-1.17v-8.57A.57.57 0 0135 18a.58.58 0 01.57.57v8.57a2.32 2.32 0 01-2.31 2.31zm-16.53-2.89H3.64a.56.56 0 01-.57-.56V11.15a.56.56 0 01.57-.57h13.09a.57.57 0 01.57.57V26a.57.57 0 01-.57.56zM4.21 25.42h12v-13.7h-12zM29 12.63h-5.81a.56.56 0 01-.57-.57.57.57 0 01.57-.57H29a.57.57 0 01.57.57.56.56 0 01-.57.57zm2.65 2.88H20.56a.57.57 0 01-.57-.57.58.58 0 01.57-.57h11.09a.57.57 0 01.57.57.56.56 0 01-.57.57zm0 2.89H20.56a.58.58 0 01-.57-.57.57.57 0 01.57-.57h11.09a.56.56 0 01.57.57.57.57 0 01-.57.57zm0 2.88H20.56a.58.58 0 01-.57-.57.57.57 0 01.57-.57h11.09a.56.56 0 01.57.57.57.57 0 01-.57.57zM28.15 25H28c-.52-.08-.75-.61-.83-.78a.57.57 0 011-.5l.08-.1c.27-.31.63-.72 1.15-.64a1.13 1.13 0 01.8.74l.09-.1c.26-.3.61-.71 1.13-.64a.57.57 0 01.49.64.57.57 0 01-.52.49c-.07.06-.17.18-.24.25-.26.31-.62.72-1.14.64a1.16 1.16 0 01-.81-.73.76.76 0 01-.09.09 1.44 1.44 0 01-.96.64zM26 24.5h-.9a.57.57 0 01-.57-.57.58.58 0 01.57-.57h.9a.58.58 0 01.57.57.57.57 0 01-.57.57z"/><path class="cls-1" d="M28 29.45H2.31A2.31 2.31 0 010 27.14V10a2.3 2.3 0 012.31-2.3h9.2a.57.57 0 01.57.57h11.41a.58.58 0 01.57-.61h9.2A2.31 2.31 0 0135.57 10v.87a.57.57 0 01-.57.57.56.56 0 01-.57-.57V10a1.17 1.17 0 00-1.17-1.16h-8.63a.58.58 0 01-.57.61H11.51a.57.57 0 01-.57-.57H2.31A1.16 1.16 0 001.14 10v17.14a1.17 1.17 0 001.17 1.17H28a.56.56 0 01.57.57.57.57 0 01-.57.57z"/><path class="cls-1" d="M24.06 9.45H11.51a.57.57 0 01-.57-.57v-2.8a.57.57 0 01.57-.58h12.55a.57.57 0 01.57.58v2.8a.57.57 0 01-.57.57zm-12-1.14h11.43V6.65H12.08z"/><path class="cls-1" d="M21.85 6.65h-8.13a.58.58 0 01-.57-.57V3.5a.58.58 0 01.57-.57h2.66a.56.56 0 01.44.22 1.22 1.22 0 001.92 0 .58.58 0 01.45-.22h2.66a.58.58 0 01.57.57v2.58a.58.58 0 01-.57.57zM14.29 5.5h7V4.07h-1.85a2.34 2.34 0 01-1.66.69 2.37 2.37 0 01-1.66-.69h-1.83z"/><path class="cls-1" d="M17.78 4.76a2.38 2.38 0 112.38-2.38 2.38 2.38 0 01-2.38 2.38zm0-3.62A1.24 1.24 0 1019 2.38a1.24 1.24 0 00-1.22-1.24zm14.08 7.7h-4a.57.57 0 01-.57-.57 2.59 2.59 0 115.17 0 .58.58 0 01-.6.57zM28.52 7.7h2.65a1.44 1.44 0 00-2.65 0zM7.74 8.84h-4a.57.57 0 01-.57-.57 2.59 2.59 0 115.17 0 .58.58 0 01-.6.57zM4.4 7.7h2.65a1.44 1.44 0 00-2.65 0zm10.4 18.86H5.57A.56.56 0 015 26v-3.1a3.08 3.08 0 013.07-3.08h4.23a3.08 3.08 0 013.07 3.08V26a.57.57 0 01-.57.56zm-8.66-1.14h8.09v-2.53A1.94 1.94 0 0012.3 21H8.07a1.93 1.93 0 00-1.93 1.94z"/><path class="cls-1" d="M7.51 26.56a.57.57 0 01-.57-.56v-2.48a.58.58 0 01.57-.52.57.57 0 01.57.57V26a.56.56 0 01-.57.56zm5.34 0a.57.57 0 01-.57-.57v-2.47a.58.58 0 011.15 0V26a.57.57 0 01-.58.56zM10.18 19a2.69 2.69 0 112.69-2.69A2.69 2.69 0 0110.18 19zm0-4.24a1.55 1.55 0 101.55 1.55 1.55 1.55 0 00-1.55-1.58z"/></g></g></svg>