<svg xmlns="http://www.w3.org/2000/svg" viewBox="0 0 16.57 16.54"><g data-name="Слой 2"><path d="M2.68 10.05a.61.61 0 00.36.11.64.64 0 00.54-.29 5.64 5.64 0 019.35 0 .64.64 0 00.89.18.65.65 0 00.18-.9 6.92 6.92 0 00-3.4-2.65A3.66 3.66 0 106 6.48a6.9 6.9 0 00-3.5 2.67.66.66 0 00.18.9zm5.61-8.76a2.37 2.37 0 11-2.37 2.37 2.37 2.37 0 012.37-2.37zm2.58 10.17l-1 .7a.41.41 0 00-.15.45l.39 1.13a.36.36 0 010 .14.42.42 0 01-.67.31l-1-.69a.38.38 0 00-.24-.08.39.39 0 00-.2.08l-1 .69a.42.42 0 01-.67-.31.36.36 0 010-.14l.39-1.13a.41.41 0 00-.15-.45l-1-.7a.44.44 0 01.24-.78h1.2a.38.38 0 00.39-.24l.5-1.13a.4.4 0 01.77 0L9 10.44a.38.38 0 00.39.24h1.2a.44.44 0 01.28.78zm5.53 2.27l-1 .69a.4.4 0 00-.15.46l.43 1.12a.77.77 0 010 .15.43.43 0 01-.67.31l-1-.7a.43.43 0 00-.24-.08.41.41 0 00-.24.08l-1 .7a.43.43 0 01-.67-.31A.77.77 0 0112 16l.39-1.12a.4.4 0 00-.15-.46l-1-.69a.43.43 0 01.24-.78h1.19a.37.37 0 00.39-.24l.37-1.13a.41.41 0 01.78 0l.37 1.13A.37.37 0 0015 13h1.19a.43.43 0 01.21.73zm-11.07 0l-1 .69a.4.4 0 00-.15.46L4.61 16a.77.77 0 010 .15.43.43 0 01-.67.31l-1-.7a.41.41 0 00-.24-.08.43.43 0 00-.24.08l-1 .7a.44.44 0 01-.68-.31A.4.4 0 01.9 16l.38-1.12a.4.4 0 00-.15-.46l-1-.69A.43.43 0 01.41 13H1.6a.37.37 0 00.4-.29l.37-1.13a.41.41 0 01.39-.29.4.4 0 01.39.29l.37 1.13a.37.37 0 00.38.29h1.19a.43.43 0 01.24.73z" fill="#ff9300" data-name="Слой 1"/></g></svg>