<svg xmlns="http://www.w3.org/2000/svg" viewBox="0 0 16.64 16.67"><g data-name="Слой 2"><path d="M16.64 2.58A2.64 2.64 0 0013.71 0a3.28 3.28 0 00-2.05.64 2.45 2.45 0 00-.94 1.94 4.11 4.11 0 00.79 2.08 3 3 0 01.58 1.41v.81a1.27 1.27 0 001 1.23.64.64 0 00.64.58.65.65 0 00.65-.58 1.27 1.27 0 001-1.23v-.76a2.73 2.73 0 01.52-1.31 4.22 4.22 0 00.78-2.18zM14 6.24v.65h-.65v-.65zm.71-2.09a5.94 5.94 0 00-.43.79h-1.17a7.7 7.7 0 00-.49-.9A3.09 3.09 0 0112 2.6c0-1 .88-1.3 1.69-1.3.49 0 1.62.13 1.63 1.3a3.1 3.1 0 01-.57 1.55zm.87 10.25a1.89 1.89 0 01-1.85 2.27H1.89A1.87 1.87 0 01.42 16 1.85 1.85 0 010 14.4a7.91 7.91 0 015.29-5.89 4.19 4.19 0 014-7.26.65.65 0 01-.47 1.21 3 3 0 00-1-.19 2.9 2.9 0 000 5.79 2.84 2.84 0 002-.77.65.65 0 01.92 0 .66.66 0 010 .92l-.31.26a7.88 7.88 0 014.11 3.11.65.65 0 01-1.08.72 6.68 6.68 0 00-12.15 2.36.6.6 0 00.12.49.56.56 0 00.46.22h11.88a.54.54 0 00.46-.22.57.57 0 00.12-.49.65.65 0 111.27-.26z" fill="#feb849" data-name="Слой 1"/></g></svg>