<svg xmlns="http://www.w3.org/2000/svg" viewBox="0 0 18.56 17.11"><defs><style>.cls-1{fill:#f38118}</style></defs><g id="Слой_2" data-name="Слой 2"><g id="Слой_1-2" data-name="Слой 1"><path class="cls-1" d="M9.28 7.62a2.64 2.64 0 102.64 2.64 2.64 2.64 0 00-2.64-2.64zm0 4.11a1.47 1.47 0 111.47-1.47 1.47 1.47 0 01-1.47 1.47z"/><path class="cls-1" d="M9.28 11.71a3.94 3.94 0 00-3.93 3.94v.88a.59.59 0 001.17 0v-.88a2.76 2.76 0 015.52 0v.88a.59.59 0 001.18 0v-.88a4 4 0 00-3.94-3.94zM9.28 0a2.65 2.65 0 102.64 2.64A2.64 2.64 0 009.28 0zm0 4.11a1.47 1.47 0 111.47-1.47 1.47 1.47 0 01-1.47 1.47z"/><path class="cls-1" d="M9.28 4.09A3.94 3.94 0 005.35 8v.88a.59.59 0 101.17 0V8A2.76 2.76 0 0112 8v.88a.59.59 0 001.18 0V8a4 4 0 00-3.9-3.91z"/><path class="cls-1" d="M14.63 5.84a2.64 2.64 0 102.64 2.64 2.65 2.65 0 00-2.64-2.64zm0 4.11a1.47 1.47 0 111.47-1.47A1.47 1.47 0 0114.63 10z"/><path class="cls-1" d="M14.63 9.93a4 4 0 00-3.82 3 .59.59 0 00.42.71.6.6 0 00.72-.42 2.76 2.76 0 015.44.67v.89a.59.59 0 001.17 0v-.89a3.93 3.93 0 00-3.93-3.96zM3.94 5.84a2.64 2.64 0 102.64 2.64 2.65 2.65 0 00-2.64-2.64zm0 4.11A1.47 1.47 0 115.4 8.48 1.47 1.47 0 013.94 10z"/><path class="cls-1" d="M7.74 12.88a3.93 3.93 0 00-7.74 1v.89a.58.58 0 00.59.58.58.58 0 00.58-.58v-.89a2.76 2.76 0 015.43-.69.59.59 0 001.14-.29z"/></g></g></svg>