<svg xmlns="http://www.w3.org/2000/svg" viewBox="0 0 14.07 14.09"><g data-name="Слой 2"><path d="M13.9 12.06l-.9-1.65V7.53a.55.55 0 10-1.09 0V10H2.22V3.52h2.67A.55.55 0 005.44 3a.55.55 0 00-.55-.55H1.67a.55.55 0 00-.55.55v7.34l-.95 1.72a1.38 1.38 0 000 1.35 1.4 1.4 0 001.21.68h11.31a1.36 1.36 0 001.18-.67 1.37 1.37 0 00.03-1.36zm-1 .8a.28.28 0 01-.24.14H8.93a.56.56 0 00-.55-.52H5.66a.55.55 0 00-.55.52H1.4a.29.29 0 01-.26-.16.23.23 0 010-.25L2 11.07h10.1l.83 1.52a.25.25 0 010 .27zm-5-7h4.8a1.37 1.37 0 001.37-1.37V1.37A1.37 1.37 0 0012.7 0H7.9a1.36 1.36 0 00-1.36 1.37v3.14A1.36 1.36 0 007.9 5.88zm4.8-1.1H7.9a.27.27 0 01-.26-.27V2.13l1.94 1.21a1.34 1.34 0 001.44 0l2-1.21v2.38a.27.27 0 01-.32.27zM8.06 1.1h4.48l-2.1 1.3a.24.24 0 01-.28 0z" fill="#f99d31" data-name="Слой 1"/></g></svg>