<svg xmlns="http://www.w3.org/2000/svg" viewBox="0 0 13.69 13.69"><g data-name="Слой 2"><path d="M10 13.69A7.77 7.77 0 016.9 13a.53.53 0 01-.28-.7.52.52 0 01.7-.28 7 7 0 002.64.62 3.28 3.28 0 002.38-.87 1 1 0 000-1.34c-1.45-1.43-2.13-1.3-2.76-.69l-1 1a.56.56 0 01-.6.11 11.29 11.29 0 01-2.91-2.16L5 8.62A11.1 11.1 0 012.85 5.7.56.56 0 013 5.1l1-1c.62-.63.72-1.31-.67-2.75a1 1 0 00-1.34 0 3.26 3.26 0 00-.87 2.41A9.11 9.11 0 004 9.7a12.26 12.26 0 001.18 1 .54.54 0 01.09.75.55.55 0 01-.75.1 14.08 14.08 0 01-1.27-1.12A10.16 10.16 0 010 3.73 4.36 4.36 0 011.19.55a2 2 0 012.82.1 5 5 0 011.31 2 2.22 2.22 0 01-.64 2.27L4 5.58a10.66 10.66 0 001.76 2.28l.07.07A11.07 11.07 0 008.11 9.7l.72-.7a2.2 2.2 0 012.26-.64 5 5 0 012 1.31 2 2 0 01.1 2.82 4.33 4.33 0 01-3.19 1.2zm0-8.23a.53.53 0 00-.51.54.53.53 0 00.54.53.53.53 0 00.53-.53.53.53 0 00-.56-.54zm.56-1.18a.43.43 0 01.25-.39A2 2 0 0012.06 2a2 2 0 00-4 0 .54.54 0 001.06 0A.94.94 0 1111 2a1 1 0 01-.57.85 1.48 1.48 0 00-.9 1.37.54.54 0 001.07 0z" fill="#f99d31" data-name="Слой 1"/></g></svg>