<svg xmlns="http://www.w3.org/2000/svg" viewBox="0 0 14.52 13.62"><defs><style>.cls-1{fill:#feb849}</style></defs><g id="Слой_2" data-name="Слой 2"><g id="Слой_1-2" data-name="Слой 1"><path class="cls-1" d="M9.53 0c-2.42 0-5 .8-5 2.27v1.81a.45.45 0 00.47.46.46.46 0 00.46-.46v-.47a8.18 8.18 0 004.08.93 8.25 8.25 0 004.09-.93v.47c0 .45-1.12 1.16-3.22 1.33a.46.46 0 000 .91 7.25 7.25 0 003.14-.91v.49c0 .39-.83.95-2.35 1.21a.46.46 0 00.08.91h.08a6 6 0 002.19-.77v.48c0 .38-.83.94-2.35 1.21a.46.46 0 00-.37.53.45.45 0 00.45.37h.08a6.2 6.2 0 002.19-.76v.47c0 .39-.83 1-2.35 1.22a.45.45 0 00-.37.52.46.46 0 00.45.38h.08a6 6 0 002.19-.77v.48c0 .44-1.12 1.15-3.22 1.32a.46.46 0 000 .91c2-.17 4-.93 4-2.23V2.27C14.52.8 12 0 9.53 0zm0 3.63c-2.53 0-4.08-.81-4.08-1.36S7 .91 9.53.91s4.09.8 4.09 1.36S12 3.63 9.53 3.63z"/><path class="cls-1" d="M5 5.45c-2.42 0-5 .79-5 2.27v3.63c0 1.47 2.57 2.27 5 2.27s5-.8 5-2.27V7.72c0-1.48-2.59-2.27-5-2.27zm4.09 5.9c0 .55-1.59 1.36-4.09 1.36S.91 11.9.91 11.35v-.48A8.18 8.18 0 005 11.8a8.25 8.25 0 004.09-.93zm0-1.82c0 .56-1.59 1.36-4.09 1.36S.91 10.09.91 9.53v-.47A8.18 8.18 0 005 10a8.25 8.25 0 004.09-.93zM5 9.08C2.5 9.08.91 8.27.91 7.72S2.5 6.35 5 6.35s4.09.81 4.09 1.37S7.49 9.08 5 9.08z"/></g></g></svg>