<svg xmlns="http://www.w3.org/2000/svg" viewBox="0 0 15.99 15.99"><defs><style>.cls-1{fill:#f38118}</style></defs><g id="Слой_2" data-name="Слой 2"><g id="Слой_1-2" data-name="Слой 1"><circle class="cls-1" cx="12.06" cy="6.56" r=".62"/><path class="cls-1" d="M13.49 1.25h-.81V.62a.63.63 0 00-1.25 0v.63H8.59V.62a.63.63 0 00-1.25 0v.63H4.53V.62a.63.63 0 00-1.25 0v.63H2.5A2.5 2.5 0 000 3.75v9.74A2.5 2.5 0 002.5 16h4.78a.63.63 0 000-1.25H2.5a1.25 1.25 0 01-1.25-1.25V3.75A1.25 1.25 0 012.5 2.5h.78v.62a.63.63 0 101.25 0V2.5h2.81v.62a.63.63 0 101.25 0V2.5h2.84v.62a.63.63 0 101.25 0V2.5h.81a1.25 1.25 0 011.25 1.25v3.56a.63.63 0 001.25 0V3.75a2.5 2.5 0 00-2.5-2.5z"/><path class="cls-1" d="M12.21 8.43A3.78 3.78 0 1016 12.21a3.79 3.79 0 00-3.79-3.78zm0 6.31a2.53 2.53 0 112.53-2.53 2.53 2.53 0 01-2.53 2.53z"/><path class="cls-1" d="M13.12 11.59h-.28v-.66a.63.63 0 00-1.25 0v1.28a.63.63 0 00.62.63h.91a.63.63 0 000-1.25z"/><circle class="cls-1" cx="9.34" cy="6.56" r=".62"/><circle class="cls-1" cx="6.62" cy="9.28" r=".62"/><circle class="cls-1" cx="3.9" cy="6.56" r=".62"/><circle class="cls-1" cx="3.9" cy="9.28" r=".62"/><circle class="cls-1" cx="3.9" cy="12" r=".62"/><circle class="cls-1" cx="6.62" cy="12" r=".62"/><circle class="cls-1" cx="6.62" cy="6.56" r=".62"/></g></g></svg>