<svg xmlns="http://www.w3.org/2000/svg" viewBox="0 0 16.18 13.53"><g data-name="Слой 2"><path d="M16.12 5.14L13.24.23a.47.47 0 00-.64-.17l-1.73 1L9.32.49a1.76 1.76 0 00-1.47.12L5.49 2 3.4.77A.48.48 0 003 .72a.49.49 0 00-.25.28L.06 6a.48.48 0 00.18.64l1.06.61-.53.93a1.42 1.42 0 001.52 2.1 1.46 1.46 0 00.64.79 1.44 1.44 0 001 .16 1.4 1.4 0 00.63.79 1.45 1.45 0 001 .16 1.42 1.42 0 002.58.27l.06-.11 1.78 1a1.42 1.42 0 001.94-.52 1.36 1.36 0 00.18-.51 1.42 1.42 0 001.59-.66 1.32 1.32 0 00.21-.65 1.42 1.42 0 001.31-.71 1.45 1.45 0 000-1.49 1.33 1.33 0 00.44-.47 1.42 1.42 0 00-.47-1.91l.82-.68a.46.46 0 00.11-.6zm-7.8-3.71A.83.83 0 019 1.38l1.75.62a.51.51 0 00.4 0l1.51-.87 2.43 4.15-.82.72-5.7-3.34a.44.44 0 00-.47 0L5.48 4.17A.48.48 0 015 3.35zM1.76 9.27a.48.48 0 01-.17-.65l.79-1.37a.48.48 0 01.82.48L2.41 9.1a.48.48 0 01-.65.17zm1.65 1a.48.48 0 01-.18-.65l1.11-1.96A.48.48 0 015 7.48a.48.48 0 01.17.65l-1.12 1.92a.47.47 0 01-.64.17zm1.64.95a.46.46 0 01-.17-.65l.79-1.37a.46.46 0 01.64-.2.48.48 0 01.18.65L5.7 11a.48.48 0 01-.65.17zm1.64.95a.48.48 0 01-.17-.65l.48-.87a.47.47 0 11.82.47l-.47.82a.48.48 0 01-.66.18zm7.7-2.27a.48.48 0 01-.65.17L11.28 8.6a.48.48 0 00-.65.17.47.47 0 00.17.65l1.92 1.11a.48.48 0 01-.48.82l-1.91-1.11a.48.48 0 00-.48.82l1.1.63a.49.49 0 01.17.65.48.48 0 01-.65.18l-1.78-1a1.42 1.42 0 00-.58-1.84 1.5 1.5 0 00-.61-.19 1.42 1.42 0 00-.71-1.3A1.32 1.32 0 006.17 8 1.42 1.42 0 004 6.7a1.33 1.33 0 00-.47-.44 1.4 1.4 0 00-1.66.18L1.11 6l2.24-4.17 1.19.69a1.42 1.42 0 00-.66.86A1.41 1.41 0 004 4.47a1.44 1.44 0 00.86.67A1.45 1.45 0 006 5l2.34-1.38 6.27 3.62a.47.47 0 11-.47.82L12.22 7a.46.46 0 00-.64.17.47.47 0 00.17.65l2.46 1.38a.48.48 0 01.18.65z" fill="#ff9300" data-name="Слой 1"/></g></svg>