<svg xmlns="http://www.w3.org/2000/svg" viewBox="0 0 269.71 181.68"><defs><style>.cls-2{fill:#feb849}.cls-3{fill:#f99d31}.cls-4,.cls-8{fill:#f38118}.cls-20,.cls-21,.cls-5{fill:#ff9300}.cls-8{font-size:8.44px;font-family:HeliosCond-Bold,HeliosCond;font-weight:700}.cls-9{letter-spacing:-.02em}.cls-13{letter-spacing:0}.cls-20,.cls-21{opacity:.19;mix-blend-mode:multiply}.cls-21{opacity:.46}</style></defs><g style="isolation:isolate"><g id="Слой_2" data-name="Слой 2"><g id="Слой_1-2" data-name="Слой 1"><path class="cls-2" d="M0 155.22h67.43v26.46H0zm28.14-9.21h11.42v7.85H28.14z"/><path class="cls-2" d="M57.11 110.71H10.58a.7.7 0 00-.7.7V146a.69.69 0 00.7.68h46.53a.7.7 0 00.7-.68v-34.59a.7.7 0 00-.7-.7zm-45.25 2h44v26.18h-44zm11.05 40.59h21.87v1.92H22.91z"/><path class="cls-2" d="M27.72 116.32h2.43v1.21h-2.43zm13.35 6.06v1.21h-2.43v3.64h-1.22v-1.21H35v-1.21h2.42v-7.28h-1.21v-1.22h2.43v6.07h2.43zm7.27 0v13.35h-2.42v-1.22h1.21v-10.92H44.7v-1.21h3.64zm-8.49 12.13v1.22h-3.64v-1.22h1.21v-4.85h1.22v4.85h1.21zm-7.28-9.7v1.21h-3.64v1.21h-1.21v-1.21h-7.28v8.49h1.21v1.22h-2.42v-19.42h2.42v1.22h-1.21v7.28h12.13z"/><path class="cls-2" d="M30.15 134.51v1.22h-3.64v-1.22h1.21v-4.85h1.21v4.85h1.22zm6.06-16.91h-6.06a.08.08 0 01-.07-.07v-1.21a.07.07 0 01.07-.07h6.06a.07.07 0 01.07.07v1.21a.08.08 0 01-.07.07zm-6-.14h5.93v-1.08h-5.93zm-2.49.14h-6.07s-.06 0-.06-.07v-1.21a.07.07 0 01.06-.07h6.07a.07.07 0 01.07.07v1.21a.08.08 0 01-.07.07zm-6-.14h5.93v-1.08h-5.93z"/><path class="cls-2" d="M26.51 135.79h-4.86a.06.06 0 01-.06-.06v-1.22a.06.06 0 01.06-.06h4.86a.06.06 0 01.06.06v1.22a.06.06 0 01-.06.06zm-4.79-.13h4.72v-1.08h-4.72zm14.49.13h-6.06a.07.07 0 01-.07-.06v-1.22a.07.07 0 01.07-.06h6.06a.07.07 0 01.07.06v1.22a.07.07 0 01-.07.06zm-6-.13h5.93v-1.08h-5.93zm15.71.13h-6.07a.07.07 0 01-.07-.06v-1.22a.07.07 0 01.07-.06h6.07s.07 0 .07.06v1.22s.01.06-.07.06zm-6-.13h5.93v-1.08h-5.93z"/><path class="cls-2" d="M26.51 135.19h-4.86a.07.07 0 010-.14h4.86a.07.07 0 010 .14zm9.7 0h-6.06a.07.07 0 110-.14h6.06a.07.07 0 010 .14zm9.71 0h-6.07a.07.07 0 110-.14h6.07a.07.07 0 010 .14zM36.21 117h-6.06a.07.07 0 110-.14h6.06a.07.07 0 110 .14zm-8.49 0h-6.07a.07.07 0 010-.14h6.07a.07.07 0 110 .14zm2.19 12.19a.12.12 0 01-.1-.05l-1.59-1.82a.14.14 0 010-.19.13.13 0 01.19 0L30 129a.13.13 0 010 .19.12.12 0 01-.09 0zm4.28-2.09a.11.11 0 01-.09 0l-1.62-1.58a.12.12 0 010-.19.13.13 0 01.19 0l1.61 1.59a.13.13 0 010 .19.14.14 0 01-.09-.01zm3.81 2.7a.18.18 0 01-.09 0 .14.14 0 010-.19l1.55-1.75a.13.13 0 11.2.18l-1.55 1.75a.12.12 0 01-.11.01zm3.07-6.8a.14.14 0 01-.09-.24l2.6-2a.14.14 0 11.16.22L41.15 123z"/><path class="cls-3" d="M67.43 138.95h67.43v42.73H67.43zM87 121.35a.51.51 0 000-.22.54.54 0 010 .43.52.52 0 000-.21z"/><path class="cls-3" d="M87 121.35a.51.51 0 000-.22.54.54 0 010 .43.52.52 0 000-.21zm0-8.6a.52.52 0 000-.21.54.54 0 010 .43.51.51 0 000-.22z"/><path class="cls-3" d="M87 104.16a.57.57 0 000-.22.56.56 0 010 .44.54.54 0 000-.22zm0 8.59a.52.52 0 000-.21.54.54 0 010 .43.51.51 0 000-.22z"/><path class="cls-3" d="M86.9 95.84zm.07 8.32a.57.57 0 000-.22.56.56 0 010 .44.54.54 0 00.03-.22zm-2.72-7.26v.02l-.02-.01.02-.01zm2.55-.9zm.1-.16zm-.12-9.3h-.06l.08.07zm-9.36 0l.09-.07s-.08.05-.09.07zm-.16.22v.08-.08zm0 .19zm-.03.05zm.04-.24z"/><path class="cls-3" d="M86.8 86.57l-.08-.07h.06zm-9.32-.07l-.09.07s.07-.06.09-.07zm6.76 10.41zm0 0zm0 0zM84 102.6zm.25-5.7v.02l-.02-.01.02-.01zM87 98.78l-.03.03v-.05l.03.02zm0 .89l-.03.03v-.06l.03.03z"/><path class="cls-3" d="M86.51 93.38l.46.55v-7a.2.2 0 000-.07v-.11a.31.31 0 01-.05-.1l-.08-.08-.08-.07h.06l-4.72-4.63-4.7 4.7-.08.09a.47.47 0 01-.06.09.31.31 0 010 .08.41.41 0 000 .11v8.86H65.52a.32.32 0 00-.31.32.25.25 0 000 .08.31.31 0 00.06.13.2.2 0 01.07.06l6.09 6.09a.31.31 0 00.22.09h5.56v27.32a.61.61 0 000 .15v.08a.33.33 0 00.06.1l.08.09a.58.58 0 00.4.17h8.6a.58.58 0 00.4-.17l.08-.09.05-.11a.48.48 0 000-.18v-23.58h-1.06v5l-2.91-2.91 2.09-2.09h-1.61l-1.29 1.29-1.29-1.29h-1.63l2.1 2.11-2.9 2.91v-5.81l.14.14v-3.07l-.14.14v-.16h.14v-1.48l-.14.14v-4.09l.14.14V94l-.14.14v-5.77l2.9 2.9-2.1 2.11h1.63l1.29-1.29 1.29 1.29H85l-2.11-2.11 2.91-2.9v5zm-15.16 8.15l-5.07-5h5.07zm5.69-5l-2.31 2.3-2.3-2.3zm-5.04.39l2.3 2.3-2.3 2.31zm.45 5.06l2.3-2.3L77 102zm4.79-.71l-2-2 2-2zm1.16 21.47l2.9 2.9-2.9 2.9zm.81-2l2.91-2.9 2.9 2.9zm5.8 1.16l-2.89 2.89-2.9-2.89zm-5.79 7.43l2.9-2.89 2.88 2.92zm6.62-.82l-2.91-2.9 2.91-2.9zm0-8.59l-2.91-2.9 2.91-2.9zm-3.74-10.64l2.89 2.9H79.2zm2.9 4l-2.9 2.9-2.91-2.9zM81.28 117l-2.9 2.9v-5.8zm.82-33.5l2.9 2.9h-5.8zm0 7l-2.91-2.9H85zm26.69 11.76v-.07a.6.6 0 00-.08-.08l-6-6a.32.32 0 00-.23-.1H88.57l.52.64h.22l-.12.11.25.3v.35l.32-.32v4.61l-.32-.31v1.39h19a.31.31 0 00.32-.31s.03-.22.03-.25zm-7.21-5.74l-2.3 2.3L97 96.48zm-6.14 0l-2.3 2.3-2.31-2.3zm-5.06.44l2.31 2.3-2.31 2.31zm.45 5.06l2.31-2.3 2.3 2.3zm5.06-.45l-2.31-2.31 2.31-2.3zm.63-4.61l2.3 2.3-2.3 2.31zM97 102l2.31-2.3 2.3 2.3zm5.06-.45l-2.31-2.31 2.31-2.3zm.63.45v-5.08l5.06 5.06z"/><path class="cls-3" d="M78.53 102.61l-.01.02v-.02h.01zm7.64-8.5h-6.92v11.51h9.46v-8.46zm.91 6h-4.34v-4.49h2.68l1.66 2zm-14.73 31.58h19.5v7.42h-19.5zm31.46-28.26h.58v5.84h-.58zm2.35 6.74l-.62 4.05h-2.77l-.61-4.05h4zm-.16 9.14a2.61 2.61 0 01-1.93 1 2.22 2.22 0 01-2.3-2.16 2.15 2.15 0 01.9-1.89c.45-.33.9-.45.9-.63v-.53h1.15v.89a.76.76 0 01-.17.5.51.51 0 01-.4.22 1.23 1.23 0 101.23 1.22v.07c0-.44.15-.58.41-.58s.89.66.21 1.89zm8.53 15.88a3.78 3.78 0 103.78-3.77 3.78 3.78 0 00-3.78 3.77zm1.83 0a2 2 0 112 2 2 2 0 01-2-2zm-13.47 0a3.78 3.78 0 103.77-3.77 3.77 3.77 0 00-3.77 3.77zm1.82 0a2 2 0 112 2 2 2 0 01-2-2zm3.53-13.43v.56h1.82v7.91h16.13l1.53-6.15-2.61-.4-2.38-.35-1.3-.2-2.39-.35-1.3-.2-2.39-.36-1.3-.2-1.76-.26zm14.49 1.95l2.38.36v4.64a.25.25 0 01-.24.28H123a.26.26 0 01-.24-.28zm-3.69-.55l2.33.34h.06v5.2a.26.26 0 01-.24.28h-1.91a.26.26 0 01-.24-.28zm-3.69-.56l2.39.36v5.75a.26.26 0 01-.24.28h-1.91a.26.26 0 01-.24-.28zm-3.68-.46h.59l1.73.26h.06v6.3a.26.26 0 01-.24.28h-1.9a.25.25 0 01-.24-.28z"/><path class="cls-3" d="M100.31 127.64v7.64c0 .16.19.29.42.29h1.78v-.38a4.15 4.15 0 018.3 0h.3v.11a.24.24 0 00.25.23h2.27a.24.24 0 00.25-.23v-.11h.28a4.15 4.15 0 118.3 0h.82l1-4.58h-14.6v-7.55a.29.29 0 00-.29-.29h-6.29a.29.29 0 00-.29.29l-.35 4.07-1.86.27a.28.28 0 00-.29.24zm7-.47h-4.1l.34-3.78h3.76z"/><path class="cls-4" d="M134.86 122.99h67.43v58.7h-67.43zm6.77-20.26h12.46v5.85h-12.46zm13.75 0h12.46v5.85h-12.46zm13.85 0h3.09l-1.33 5.85h-1.76v-5.85zm-27.6 14.41h12.46v5.85h-12.46zm13.75 0h12.46v5.85h-12.46z"/><path class="cls-4" d="M181.69 117.14V123h-12.46v-3.6a1.19 1.19 0 00.87.34 2 2 0 00.85-.21l4.82-2.38zm1.36 0h12.46v5.85h-12.46zm-34.17-7.16h12.46v5.85h-12.46zm-7.25 0h6.23v5.85h-6.23zm0-14.48h6.23v5.85h-6.23zm29.04 14.48l-1.33 5.84h-6.71v-5.84h8.04zm18.26.02v5.84h-10.5l7.82-3.86a1.67 1.67 0 001-1.33 1.44 1.44 0 00-.08-.65zm-39.78-14.5h12.46v5.85h-12.46z"/><path class="cls-4" d="M185.91 111.26l-15.32 7.56c-.7.35-1.13 0-1-.76l3.8-16.65a.84.84 0 011.44-.51l3.59 2.83a1.38 1.38 0 00.09.89l.19.47-3.13 4a1.48 1.48 0 00.24 2.09 1.53 1.53 0 00.93.33 1.51 1.51 0 001.18-.57l3.69-4.67 4.41 3.49a.83.83 0 01-.11 1.5z"/><path class="cls-4" d="M181.13 105a.77.77 0 01-.09.73l-3.7 4.66a.71.71 0 01-1 .12.72.72 0 01-.12-1l3.42-4.33-.37-.9a.7.7 0 01.09-.72l1.14-1.43 1.12.88-.87 1.11zm.16-5.21l2.53 2-.53.68a.71.71 0 01-1 .11l-.18-.14-1.13-.87-.1-.09a.71.71 0 01-.13-1z"/><path class="cls-4" transform="rotate(-51.71 184.686 98.1)" d="M182.32 96.49h4.71v3.22h-4.71z"/><path class="cls-4" d="M188.68 95.61l-.61.79-2.52-2 .62-.78a.71.71 0 011-.12l1.4 1.11a.71.71 0 01.11 1z"/><path class="cls-5" d="M202.29 106.74h67.43v74.94h-67.43z"/><text transform="translate(9.88 86.95)" font-size="8.44" font-family="HeliosCond-Bold,HeliosCond" font-weight="700" fill="#feb849">ВАШИ ИДЕИ</text><text transform="translate(54.31 64.91)" font-size="8.44" font-family="HeliosCond-Bold,HeliosCond" font-weight="700" fill="#f99d31">НАШ ОПЫТ</text><text class="cls-8" transform="translate(144.75 60.92)">ВАША<tspan x="0" y="10.13">ВОВЛЕЧЕННОСТЬ</tspan></text><text class="cls-8" transform="translate(102.58 37.63)">Э<tspan class="cls-9" x="4.48" y="0">К</tspan><tspan x="8.87" y="0">СПЕРТНОСТЬ</tspan><tspan class="cls-9"><tspan x="0" y="10.13">К</tspan><tspan x="4.39" y="10.13" letter-spacing="0">ОМАНДЫ</tspan></tspan></text><text transform="translate(226.27 16.25)" font-size="8.44" font-family="HeliosCond-Bold,HeliosCond" font-weight="700" fill="#ff9300">КРУТОЙ<tspan x="-5.94" y="10.13">РЕЗ</tspan><tspan x="7.07" y="10.13" letter-spacing="-.04em">У</tspan><tspan class="cls-13" x="11.33" y="10.13">ЛЬ</tspan><tspan x="20.8" y="10.13" letter-spacing="-.04em">ТА</tspan><tspan class="cls-13" x="29.04" y="10.13">Т</tspan></text><path d="M32.12 76.88a29.93 29.93 0 01-2.59-6.67 10 10 0 01.78-7A6.11 6.11 0 0136.23 60c2.37.35 4.34 2.84 3.72 5.15a3.07 3.07 0 01-3 2.35 3.81 3.81 0 01-3-2.78 9.35 9.35 0 011-7.63 17.84 17.84 0 015.56-5.58c3.29-2.24 7.15-3.9 11.13-3.7 3.6.19 7.25 2.21 8.79 5.42" stroke="#feb849" fill="none" stroke-miterlimit="10"/><path class="cls-2" d="M55.08 52.62l.27-.96 4.74 1.35 1-4.83.98.2-1.22 5.88-5.77-1.64z"/><path d="M79.75 72.05a18.38 18.38 0 0033.13-11.47c0-1.63-.46-3.48-1.88-4.27a3.29 3.29 0 00-4.14 1.2 4.89 4.89 0 00-.22 4.54c1.3 3 4.92 4.66 8.19 4.22a12.17 12.17 0 008-5.32 26.24 26.24 0 003.51-8" stroke="#f99d31" fill="none" stroke-miterlimit="10"/><path class="cls-3" d="M129.25 57.28l-.9.44-2.14-4.44-4.27 2.46-.5-.86 5.2-3 2.61 5.4z"/><path d="M159.49 34A8.23 8.23 0 01167 45.09a6.12 6.12 0 01-3.6 3.79 4.06 4.06 0 01-4.73-1.6 4.19 4.19 0 011-5 7.14 7.14 0 015.06-1.63 11.6 11.6 0 019.78 6.17" stroke="#f38118" fill="none" stroke-miterlimit="10"/><path class="cls-4" d="M169.23 46.25l.27-.96 4.75 1.32.97-4.84.98.2-1.18 5.89-5.79-1.61z"/><path d="M239.39 2.82V.98m-5.5 3.4L232.52.5m-4.68 4.29l-1.12-1.48m25.35 33.3l-1.13-1.48M223.56 7.95l-3.25-2.47m38.16 28.96l-3.24-2.46m-36.91-21.25l-1.59-.7m46.3 20.29l-3.54-1.56m-43.17-13.49l-3.54-.72m52.25 9.58l-1.59-.32m-48.21-3.84h-3.49m55.3-1.04h-3.49m-48.21 5.92l-1.59.32M266 13.51l-3.53.72m-43.18 14.53l-3.54 1.56m47.28-20.71l-3.55 1.55m-35.93 20.82l-3.24 2.46m37.27-28.28l-1.46 1.11m-3.36-4.87l-2.51 3.3M246.26.5l-1.37 3.88" fill="none" stroke-miterlimit="10" stroke="#ff9300" stroke-linecap="round"/><path d="M191.57 58a16.06 16.06 0 018.54-9c4.66-2 12.65-2.16 15.95 2.49 1.16 1.63 1.21 4.19-.38 5.4a3.66 3.66 0 01-4.9-.91 5.53 5.53 0 01-.49-5.28c1.15-3 4-4.84 6.89-6.19a22.89 22.89 0 019.14-2.43c4.31-.1 9.82 1.79 10.38 6.71.18 1.68-.67 3.7-2.34 4a3 3 0 01-3.05-2.71 5.75 5.75 0 011.53-4.16c1-1.17 2.15-2.14 3.11-3.32a11.51 11.51 0 002.44-8.6" stroke="#ff9300" fill="none" stroke-miterlimit="10"/><path class="cls-5" d="M242.54 37.04l-.69.73-3.57-3.41-3.13 3.81-.78-.64 3.82-4.63 4.35 4.14zm-23.67 32.84L208 81.11v23.6h21.7v-23.6zm-.26 31.65h-3.29v-6h3.29zm0-11.23h-3.29v-6h3.29zm3.75 11.23h-3.29v-6h3.29zm0-11.23h-3.29v-6h3.29zm7.34-7.2v21.61h2.61v-8.45h4.1v8.45h21.52V83.1zm10 7.14h-2.41V85h2.41zM234.53 85h2.41v5.2h-2.41zm18.28 5.2h-2.4V85h2.4zm-5.15-5.2h2.41v5.2h-2.41zm7.43 16.41H255v-.7h.09zm-2.75 0H252v-.7h.36zm-5.18 0h-.09v-.7h.09zm-2.75 0h-.36v-.7h.36zm0-1.13H242v-4.02h2.41zm-2.41.43h.35v.7H242zm.54 0h.56v.7h-.56zm.75 0h.57v.7h-.57zm1.51 0h.57v.7h-.57zm.76 0h.57v.7h-.57zm.76 0h.56v.7h-.56zm-1.58-.43v-4.02h2.42v4.06zm7.6 0h-2.41v-4.02h2.41zm-2.41.43h.35v.7h-.35zm.54 0h.53v.7h-.56zm.75 0h.57v.7h-.57zm1.51 0h.57v.7h-.57zm.76 0h.57v.7h-.57zm.76 0h.56v.7h-.56zm-1.58-.43v-4.02h2.42v4.06z"/><path class="cls-5" d="M231.7 81.96v1.13h-2v-1.98l-10.83-11.23-10.83 11.23v1.98h-2v-1.13l12.83-13.31 12.83 13.31z"/><path class="cls-5" d="M259.92 81.96v1.13H231.7v-1.13l-12.83-13.31h28.22l8.38 8.7.84.88 3.61 3.73zM229.7 94.7h36.26v-.59l-7.56-2.05h-28.7v2.64zm-22.09 10.01h22.56v2.69h-22.56zm22.56 0h35.78v2.69h-35.78zm19.45-8.85v6h5.85v-6zm.31.4h2.41v4.06h-2.41zm0 5.19v-.7h.35v.7zm.54 0v-.7h.53v.7zm.75 0v-.7h.57v.7zm1.12 0H252v-.7h.36zm.39 0v-.7h.57v.7zm.76 0v-.7h.57v.7zm.76 0v-.7h.56v.7zm.83 0H255v-.7h.08zm0-1.13h-2.41v-4.06h2.41z"/><path class="cls-5" d="M252.34 100.32v.43h-.36v.7h-.19v-.7h-.57v.7h-.19v-.7h-.56v.7h-.19v-.7h-.35v-.43h2.41zm2.74 0v.43H255v.7h-.19v-.7h-.56v.7h-.19v-.7h-.57v.7h-.19v-.7h-.57v.7h-.06v-1.13h2.41zm-13.39-4.46v6h5.85v-6zm.31.4h2.41v4.06H242zm0 5.19v-.7h.35v.7zm.54 0v-.7h.56v.7zm.75 0v-.7h.57v.7zm1.12 0h-.36v-.7h.36zm.4 0v-.7h.56v.7zm.75 0v-.7h.57v.7zm.75 0v-.7h.57v.7zm.84 0h-.08v-.7h.08zm0-1.13h-2.41v-4.06h2.41z"/><path class="cls-5" d="M244.41 100.32v.43h-.36v.7h-.19v-.7h-.57v.7h-.19v-.7h-.56v.7h-.19v-.7H242v-.43h2.41zm2.74 0v.43h-.08v.7h-.19v-.7h-.57v.7h-.18v-.7h-.57v.7h-.19v-.7h-.56v.7h-.07v-1.13h2.41zm-18.37-34.41h3.33v7.36h-3.33zm3.65-.4h-3.97l.54-.7h2.88l.55.7zm8.48.4h3.33v7.36h-3.33zm3.65-.4h-3.97l.55-.7h2.87l.55.7zm-29.67 29.57V102h8v-6.92zm3.72 6.45h-3.29v-6h3.29zm3.75 0h-3.29v-6h3.29zm.53-6.45h2.9v6.87h-2.9z"/><path class="cls-20" d="M223.3 95.54h2.02v.17h-2.02zm0 .45h2.02v.17h-2.02zm0 .45h2.02v.17h-2.02zm0 .44h2.02v.17h-2.02zm0 .45h2.02v.17h-2.02zm0 .45h2.02v.17h-2.02zm0 .45h2.02v.17h-2.02zm0 .44h2.02v.17h-2.02zm0 .45h2.02v.17h-2.02zm0 .45h2.02v.17h-2.02zm0 .45h2.02v.17h-2.02zm0 .44h2.02v.17h-2.02zm0 .45h2.02v.17h-2.02zm0 .45h2.02v.17h-2.02z"/><path class="cls-5" d="M211.99 95.08h2.9v6.87h-2.9z"/><path class="cls-20" d="M212.4 95.54h2.02v.17h-2.02zm0 .45h2.02v.17h-2.02zm0 .45h2.02v.17h-2.02zm0 .44h2.02v.17h-2.02zm0 .45h2.02v.17h-2.02zm0 .45h2.02v.17h-2.02zm0 .45h2.02v.17h-2.02zm0 .44h2.02v.17h-2.02zm0 .45h2.02v.17h-2.02zm0 .45h2.02v.17h-2.02zm0 .45h2.02v.17h-2.02zm0 .44h2.02v.17h-2.02zm0 .45h2.02v.17h-2.02zm0 .45h2.02v.17h-2.02z"/><path class="cls-5" d="M214.89 83.86v6.87h8v-6.87zm.43 6.44v-6h3.29v6zm7 0h-3.29v-6h3.29zm.57-6.44h2.9v6.87h-2.9z"/><path class="cls-20" d="M223.3 84.32h2.02v.17h-2.02zm0 .45h2.02v.17h-2.02zm0 .45h2.02v.17h-2.02zm0 .44h2.02v.17h-2.02zm0 .45h2.02v.17h-2.02zm0 .45h2.02v.17h-2.02zm0 .44h2.02v.17h-2.02zm0 .45h2.02v.17h-2.02zm0 .45h2.02v.17h-2.02zm0 .45h2.02v.17h-2.02zm0 .44h2.02v.17h-2.02zm0 .45h2.02v.17h-2.02zm0 .45h2.02v.17h-2.02zm0 .45h2.02v.17h-2.02z"/><path class="cls-5" d="M211.99 83.86h2.9v6.87h-2.9z"/><path class="cls-20" d="M212.4 84.32h2.02v.17h-2.02zm0 .45h2.02v.17h-2.02zm0 .45h2.02v.17h-2.02zm0 .44h2.02v.17h-2.02zm0 .45h2.02v.17h-2.02zm0 .45h2.02v.17h-2.02zm0 .44h2.02v.17h-2.02zm0 .45h2.02v.17h-2.02zm0 .45h2.02v.17h-2.02zm0 .45h2.02v.17h-2.02zm0 .44h2.02v.17h-2.02zm0 .45h2.02v.17h-2.02zm0 .45h2.02v.17h-2.02zm0 .45h2.02v.17h-2.02z"/><path class="cls-5" d="M234.22 84.65v6h5.85v-6zm2.72 5.59h-2.41V85h2.41zm2.74 0h-2.41V85h2.41zm.39-5.59h2.52v5.96h-2.52z"/><path class="cls-20" d="M240.43 85.04h1.75v.15h-1.75zm0 .39h1.75v.15h-1.75zm0 .39h1.75v.15h-1.75zm0 .39h1.75v.15h-1.75zm0 .39h1.75v.15h-1.75zm0 .39h1.75v.15h-1.75zm0 .38h1.75v.15h-1.75zm0 .39h1.75v.15h-1.75zm0 .39h1.75v.15h-1.75zm0 .39h1.75v.15h-1.75zm0 .39h1.75v.15h-1.75zm0 .38h1.75v.15h-1.75zm0 .39h1.75v.15h-1.75zm0 .39h1.75v.15h-1.75z"/><path class="cls-5" d="M231.7 84.65h2.52v5.96h-2.52z"/><path class="cls-20" d="M232.05 85.04h1.75v.15h-1.75zm0 .39h1.75v.15h-1.75zm0 .39h1.75v.15h-1.75zm0 .39h1.75v.15h-1.75zm0 .39h1.75v.15h-1.75zm0 .39h1.75v.15h-1.75zm0 .38h1.75v.15h-1.75zm0 .39h1.75v.15h-1.75zm0 .39h1.75v.15h-1.75zm0 .39h1.75v.15h-1.75zm0 .39h1.75v.15h-1.75zm0 .38h1.75v.15h-1.75zm0 .39h1.75v.15h-1.75zm0 .39h1.75v.15h-1.75z"/><path class="cls-5" d="M247.35 84.65v6h5.85v-6zm2.72 5.59h-2.41V85h2.41zm2.74 0h-2.4V85h2.4zm.4-5.59h2.52v5.96h-2.52z"/><path class="cls-20" d="M253.56 85.04h1.75v.15h-1.75zm0 .39h1.75v.15h-1.75zm0 .39h1.75v.15h-1.75zm0 .39h1.75v.15h-1.75zm0 .39h1.75v.15h-1.75zm0 .39h1.75v.15h-1.75zm0 .38h1.75v.15h-1.75zm0 .39h1.75v.15h-1.75zm0 .39h1.75v.15h-1.75zm0 .39h1.75v.15h-1.75zm0 .39h1.75v.15h-1.75zm0 .38h1.75v.15h-1.75zm0 .39h1.75v.15h-1.75zm0 .39h1.75v.15h-1.75z"/><path class="cls-5" d="M244.83 84.65h2.52v5.96h-2.52z"/><path class="cls-20" d="M245.19 85.04h1.75v.15h-1.75zm0 .39h1.75v.15h-1.75zm0 .39h1.75v.15h-1.75zm0 .39h1.75v.15h-1.75zm0 .39h1.75v.15h-1.75zm0 .39h1.75v.15h-1.75zm0 .38h1.75v.15h-1.75zm0 .39h1.75v.15h-1.75zm0 .39h1.75v.15h-1.75zm0 .39h1.75v.15h-1.75zm0 .39h1.75v.15h-1.75zm0 .38h1.75v.15h-1.75zm0 .39h1.75v.15h-1.75zm0 .39h1.75v.15h-1.75z"/><path class="cls-5" d="M230.17 104.71h8.34v.9h-8.34zm0 .9h8.34v.9h-8.34z"/><path class="cls-5" d="M230.17 106.5h8.34v.9h-8.34zm6.7-10.64v8.85h-.46v-8.45h-4.11v8.45h-.48v-8.85h5.05z"/><path class="cls-21" d="M257.93 94.7v5.04h-2.85v-3.48h-2.41v3.48h-.33v-3.48h-2.41v3.48h-2.78v-3.48h-2.41v3.48h-.33v-3.48H242v3.48h-5.59v-3.48h-4.11v8.45h-2.6V94.7h28.23z"/><path class="cls-5" d="M264.06 94.71h.85v10.01h-.85zm-7.93 0h.85v10.01h-.85zm-7.93 0h.85v10.01h-.85zm-7.93 0h.85v10.01h-.85zm16.71 5.61h7.08v.42h-7.08zm6.52.43h.19v3.96h-.19zm-.76 0h.19v3.96h-.19zm-.76 0h.19v3.96h-.19zm-.75 0h.19v3.96h-.19zm-.76 0h.19v3.96h-.19zm-.75 0h.19v3.96h-.19zm-.76 0h.19v3.96h-.19zm-.75 0h.19v3.96h-.19zm-.76 0h.19v3.96h-.19zm-8.4-.43h7.08v.42h-7.08zm6.52.43h.19v3.96h-.19zm-.76 0h.19v3.96h-.19zm-.75 0h.19v3.96h-.19zm-.76 0h.19v3.96h-.19zm-.76 0h.19v3.96h-.19zm-.75 0h.19v3.96h-.19zm-.76 0h.19v3.96h-.19zm-.75 0h.19v3.96h-.19zm-.76 0h.19v3.96h-.19z"/><path class="cls-5" d="M241.12 100.32h7.08v.42h-7.08zm6.52.43h.19v3.96h-.19zm-.76 0h.19v3.96h-.19zm-.75 0h.19v3.96h-.19zm-.76 0h.19v3.96h-.19zm-.76 0h.19v3.96h-.19zm-.75 0h.19v3.96h-.19zm-.76 0h.19v3.96h-.19zm-.75 0h.19v3.96h-.19zm-.76 0h.19v3.96h-.19z"/><path style="mix-blend-mode:multiply" opacity=".37" fill="#ff9300" d="M229.7 81.11v4.38l-.78-.8-10.83-11.24-10.05 10.43v-2.77l10.83-11.23 10.83 11.23z"/><path class="cls-21" d="M257.93 83.1v2.56h-5.12v-.62h-2.4v.62h-.34v-.62h-2.41v.62h-7.98v-.62h-2.41v.62h-.33v-.62h-2.41v.62h-1.15v6.4h-3.68V83.1h28.23z"/><path d="M222.63 90.73h2.9v.26h-2.9zm-8 0v.26h-2.9v-6.87h.26v6.61h2.64zm7.98 11.28h2.9v.26h-2.9zm-8 0v.27h-2.9v-6.87h.26v6.6h2.64z" style="mix-blend-mode:multiply" opacity=".52" fill="#ff9300"/><path class="cls-21" d="M240.27 94.71h.85v1.86h-.85zm7.93 0h.85v1.86h-.85zm7.93 0h.85v1.86h-.85zm7.93 0h.85v1.86h-.85zm-34.36-2.65h2.83v2.64h-2.83zm.47 14.44h.8v.9h-.8z"/><path class="cls-21" d="M230.17 105.61h1.33v.9h-1.33zm0-.9h1.9v.9h-1.9z"/></g></g></g></svg>