<svg xmlns="http://www.w3.org/2000/svg" viewBox="0 0 32.52 32.08"><defs><style>.cls-1{fill:#ff9300;}</style></defs><g id="Слой_2" data-name="Слой 2"><g id="Слой_1-2" data-name="Слой 1"><path class="cls-1" d="M32,32.08H.57A.58.58,0,0,1,0,31.51V8.19a.55.55,0,0,1,.19-.42L8.88.14A.59.59,0,0,1,9.26,0H22.78a.57.57,0,0,1,.57.57v5.9a.56.56,0,0,1-.57.57.57.57,0,0,1-.57-.57V1.14H9.47L1.14,8.45V30.94H32a.56.56,0,0,1,.57.57A.57.57,0,0,1,32,32.08Z"/><path class="cls-1" d="M16.17,4.86H9.26a.58.58,0,0,1-.57-.57.57.57,0,0,1,.57-.57h6.91a.56.56,0,0,1,.57.57A.57.57,0,0,1,16.17,4.86Z"/><path class="cls-1" d="M11.63,7.94H9.26a.58.58,0,0,1-.57-.57.57.57,0,0,1,.57-.57h2.37a.57.57,0,0,1,.57.57A.58.58,0,0,1,11.63,7.94Z"/><path class="cls-1" d="M11.63,11h-8a.57.57,0,0,1-.57-.57.58.58,0,0,1,.57-.57h8a.58.58,0,0,1,.57.57A.57.57,0,0,1,11.63,11Z"/><path class="cls-1" d="M11.63,14.09h-8a.57.57,0,0,1-.57-.57A.58.58,0,0,1,3.68,13h8a.58.58,0,0,1,.57.57A.57.57,0,0,1,11.63,14.09Z"/><path class="cls-1" d="M11.63,17.17h-8a.57.57,0,1,1,0-1.14h8a.57.57,0,0,1,0,1.14Z"/><path class="cls-1" d="M19.67,20.25h-16a.58.58,0,0,1-.57-.57.57.57,0,0,1,.57-.57h16a.56.56,0,0,1,.57.57A.57.57,0,0,1,19.67,20.25Z"/><path class="cls-1" d="M19.67,23.33h-16a.58.58,0,0,1-.57-.57.57.57,0,0,1,.57-.57h16a.56.56,0,0,1,.57.57A.57.57,0,0,1,19.67,23.33Z"/><path class="cls-1" d="M9.26,8.76H.57A.55.55,0,0,1,0,8.4a.57.57,0,0,1,.15-.63L8.88.14A.58.58,0,0,1,9.5.05a.57.57,0,0,1,.33.52V8.19A.57.57,0,0,1,9.26,8.76ZM2.08,7.62H8.69V1.83Z"/><path class="cls-1" d="M23,17.12a15.28,15.28,0,0,1-4.2-.57.56.56,0,0,1-.41-.54V9.09a.57.57,0,0,1,.41-.55,16.17,16.17,0,0,1,8.4,0,.58.58,0,0,1,.42.55V16a.56.56,0,0,1-.42.54A15.28,15.28,0,0,1,23,17.12Zm-3.47-1.55a15.11,15.11,0,0,0,7,0v-6a15.11,15.11,0,0,0-6.95,0Z"/><path class="cls-1" d="M30.69,17.84H28.3A1.83,1.83,0,0,1,26.47,16V9.09A1.84,1.84,0,0,1,28.3,7.25h2.39a1.84,1.84,0,0,1,1.83,1.84V16A1.83,1.83,0,0,1,30.69,17.84ZM28.3,8.39a.7.7,0,0,0-.69.7V16a.69.69,0,0,0,.69.69h2.39a.69.69,0,0,0,.69-.69V9.09a.7.7,0,0,0-.69-.7Z"/><path class="cls-1" d="M17.68,17.84H15.3A1.83,1.83,0,0,1,13.46,16V9.09A1.84,1.84,0,0,1,15.3,7.25h2.38a1.85,1.85,0,0,1,1.84,1.84V16A1.84,1.84,0,0,1,17.68,17.84ZM15.3,8.39a.7.7,0,0,0-.7.7V16a.69.69,0,0,0,.7.69h2.38a.7.7,0,0,0,.7-.69V9.09a.71.71,0,0,0-.7-.7Z"/><path class="cls-1" d="M23,29.81a1.93,1.93,0,0,1-1.92-2l.25-9.55a.59.59,0,0,1,.34-.51.59.59,0,0,1,.6.08,1.16,1.16,0,0,0,1.47,0,.59.59,0,0,1,.6-.08.6.6,0,0,1,.33.51l.25,9.55a1.91,1.91,0,0,1-1.92,2ZM22.44,19.2l-.23,8.67a.82.82,0,0,0,.22.56.81.81,0,0,0,1.12,0,.78.78,0,0,0,.22-.56l-.23-8.67A2.27,2.27,0,0,1,22.44,19.2Z"/><path class="cls-1" d="M23,19.27A2.3,2.3,0,0,1,20.7,17a2.2,2.2,0,0,1,.1-.68.56.56,0,0,1,.6-.4,15.36,15.36,0,0,0,3.18,0,.56.56,0,0,1,.6.4,2.2,2.2,0,0,1,.11.68A2.3,2.3,0,0,1,23,19.27Zm-1.15-2.19a1.15,1.15,0,0,0,2.3,0A17.65,17.65,0,0,1,21.84,17.08Z"/><path class="cls-1" d="M32,32.08H.57A.58.58,0,0,1,0,31.51V8.19a.55.55,0,0,1,.19-.42L8.88.14A.59.59,0,0,1,9.26,0H22.78a.57.57,0,0,1,.57.57v5.9a.56.56,0,0,1-.57.57.57.57,0,0,1-.57-.57V1.14H9.47L1.14,8.45V30.94H32a.56.56,0,0,1,.57.57A.57.57,0,0,1,32,32.08Z"/><path class="cls-1" d="M16.17,4.86H9.26a.58.58,0,0,1-.57-.57.57.57,0,0,1,.57-.57h6.91a.56.56,0,0,1,.57.57A.57.57,0,0,1,16.17,4.86Z"/><path class="cls-1" d="M11.63,7.94H9.26a.58.58,0,0,1-.57-.57.57.57,0,0,1,.57-.57h2.37a.57.57,0,0,1,.57.57A.58.58,0,0,1,11.63,7.94Z"/><path class="cls-1" d="M11.63,11h-8a.57.57,0,0,1-.57-.57.58.58,0,0,1,.57-.57h8a.58.58,0,0,1,.57.57A.57.57,0,0,1,11.63,11Z"/><path class="cls-1" d="M11.63,14.09h-8a.57.57,0,0,1-.57-.57A.58.58,0,0,1,3.68,13h8a.58.58,0,0,1,.57.57A.57.57,0,0,1,11.63,14.09Z"/><path class="cls-1" d="M11.63,17.17h-8a.57.57,0,1,1,0-1.14h8a.57.57,0,0,1,0,1.14Z"/><path class="cls-1" d="M19.67,20.25h-16a.58.58,0,0,1-.57-.57.57.57,0,0,1,.57-.57h16a.56.56,0,0,1,.57.57A.57.57,0,0,1,19.67,20.25Z"/><path class="cls-1" d="M19.67,23.33h-16a.58.58,0,0,1-.57-.57.57.57,0,0,1,.57-.57h16a.56.56,0,0,1,.57.57A.57.57,0,0,1,19.67,23.33Z"/><path class="cls-1" d="M9.26,8.76H.57A.55.55,0,0,1,0,8.4a.57.57,0,0,1,.15-.63L8.88.14A.58.58,0,0,1,9.5.05a.57.57,0,0,1,.33.52V8.19A.57.57,0,0,1,9.26,8.76ZM2.08,7.62H8.69V1.83Z"/><path class="cls-1" d="M23,17.12a15.28,15.28,0,0,1-4.2-.57.56.56,0,0,1-.41-.54V9.09a.57.57,0,0,1,.41-.55,16.17,16.17,0,0,1,8.4,0,.58.58,0,0,1,.42.55V16a.56.56,0,0,1-.42.54A15.28,15.28,0,0,1,23,17.12Zm-3.47-1.55a15.11,15.11,0,0,0,7,0v-6a15.11,15.11,0,0,0-6.95,0Z"/><path class="cls-1" d="M30.69,17.84H28.3A1.83,1.83,0,0,1,26.47,16V9.09A1.84,1.84,0,0,1,28.3,7.25h2.39a1.84,1.84,0,0,1,1.83,1.84V16A1.83,1.83,0,0,1,30.69,17.84ZM28.3,8.39a.7.7,0,0,0-.69.7V16a.69.69,0,0,0,.69.69h2.39a.69.69,0,0,0,.69-.69V9.09a.7.7,0,0,0-.69-.7Z"/><path class="cls-1" d="M17.68,17.84H15.3A1.83,1.83,0,0,1,13.46,16V9.09A1.84,1.84,0,0,1,15.3,7.25h2.38a1.85,1.85,0,0,1,1.84,1.84V16A1.84,1.84,0,0,1,17.68,17.84ZM15.3,8.39a.7.7,0,0,0-.7.7V16a.69.69,0,0,0,.7.69h2.38a.7.7,0,0,0,.7-.69V9.09a.71.71,0,0,0-.7-.7Z"/><path class="cls-1" d="M23,29.81a1.93,1.93,0,0,1-1.92-2l.25-9.55a.59.59,0,0,1,.34-.51.59.59,0,0,1,.6.08,1.16,1.16,0,0,0,1.47,0,.59.59,0,0,1,.6-.08.6.6,0,0,1,.33.51l.25,9.55a1.91,1.91,0,0,1-1.92,2ZM22.44,19.2l-.23,8.67a.82.82,0,0,0,.22.56.81.81,0,0,0,1.12,0,.78.78,0,0,0,.22-.56l-.23-8.67A2.27,2.27,0,0,1,22.44,19.2Z"/><path class="cls-1" d="M23,19.27A2.3,2.3,0,0,1,20.7,17a2.2,2.2,0,0,1,.1-.68.56.56,0,0,1,.6-.4,15.36,15.36,0,0,0,3.18,0,.56.56,0,0,1,.6.4,2.2,2.2,0,0,1,.11.68A2.3,2.3,0,0,1,23,19.27Zm-1.15-2.19a1.15,1.15,0,0,0,2.3,0A17.65,17.65,0,0,1,21.84,17.08Z"/></g></g></svg>