<svg xmlns="http://www.w3.org/2000/svg" viewBox="0 0 35.57 29.45"><defs><style>.cls-1{fill:#ff9300;}</style></defs><g id="Слой_2" data-name="Слой 2"><g id="Слой_1-2" data-name="Слой 1"><path class="cls-1" d="M35,19.14a.56.56,0,0,1-.57-.57v-.91a.56.56,0,0,1,.57-.57.57.57,0,0,1,.57.57v.91A.57.57,0,0,1,35,19.14Z"/><path class="cls-1" d="M35,15.88a.56.56,0,0,1-.57-.57V14.14a.56.56,0,0,1,.57-.57.57.57,0,0,1,.57.57v1.17A.57.57,0,0,1,35,15.88Z"/><path class="cls-1" d="M35,12.36a.57.57,0,0,1-.57-.57v-.92A.57.57,0,0,1,35,10.3a.58.58,0,0,1,.57.57v.92A.58.58,0,0,1,35,12.36Z"/><path class="cls-1" d="M33.26,29.45H32.6a.58.58,0,0,1-.57-.57.57.57,0,0,1,.57-.57h.66a1.18,1.18,0,0,0,1.17-1.17V18.57A.57.57,0,0,1,35,18a.58.58,0,0,1,.57.57v8.57A2.32,2.32,0,0,1,33.26,29.45Z"/><path class="cls-1" d="M16.73,26.56H3.64A.56.56,0,0,1,3.07,26V11.15a.56.56,0,0,1,.57-.57H16.73a.57.57,0,0,1,.57.57V26A.57.57,0,0,1,16.73,26.56ZM4.21,25.42h12V11.72H4.21Z"/><path class="cls-1" d="M29,12.63H23.19a.56.56,0,0,1-.57-.57.57.57,0,0,1,.57-.57H29a.57.57,0,0,1,.57.57A.56.56,0,0,1,29,12.63Z"/><path class="cls-1" d="M31.65,15.51H20.56a.57.57,0,0,1-.57-.57.58.58,0,0,1,.57-.57H31.65a.57.57,0,0,1,.57.57A.56.56,0,0,1,31.65,15.51Z"/><path class="cls-1" d="M31.65,18.4H20.56a.58.58,0,0,1-.57-.57.57.57,0,0,1,.57-.57H31.65a.56.56,0,0,1,.57.57A.57.57,0,0,1,31.65,18.4Z"/><path class="cls-1" d="M31.65,21.28H20.56a.58.58,0,0,1-.57-.57.57.57,0,0,1,.57-.57H31.65a.56.56,0,0,1,.57.57A.57.57,0,0,1,31.65,21.28Z"/><path class="cls-1" d="M28.15,25H28c-.52-.08-.75-.61-.83-.78a.57.57,0,0,1,1-.5l.08-.1c.27-.31.63-.72,1.15-.64a1.13,1.13,0,0,1,.8.74l.09-.1c.26-.3.61-.71,1.13-.64a.57.57,0,0,1,.49.64.57.57,0,0,1-.52.49c-.07.06-.17.18-.24.25-.26.31-.62.72-1.14.64a1.16,1.16,0,0,1-.81-.73.76.76,0,0,1-.09.09A1.44,1.44,0,0,1,28.15,25Z"/><path class="cls-1" d="M26,24.5h-.9a.57.57,0,0,1-.57-.57.58.58,0,0,1,.57-.57H26a.58.58,0,0,1,.57.57A.57.57,0,0,1,26,24.5Z"/><path class="cls-1" d="M28,29.45H2.31A2.31,2.31,0,0,1,0,27.14V10A2.3,2.3,0,0,1,2.31,7.7h9.2a.57.57,0,0,1,.57.57s11.41,0,11.41,0a.58.58,0,0,1,.57-.61h9.2A2.31,2.31,0,0,1,35.57,10v.87a.57.57,0,0,1-.57.57.56.56,0,0,1-.57-.57V10a1.17,1.17,0,0,0-1.17-1.16H24.63a.58.58,0,0,1-.57.61H11.51a.57.57,0,0,1-.57-.57s-8.63,0-8.63,0A1.16,1.16,0,0,0,1.14,10V27.14a1.17,1.17,0,0,0,1.17,1.17H28a.56.56,0,0,1,.57.57A.57.57,0,0,1,28,29.45Z"/><path class="cls-1" d="M24.06,9.45H11.51a.57.57,0,0,1-.57-.57V6.08a.57.57,0,0,1,.57-.58H24.06a.57.57,0,0,1,.57.58v2.8A.57.57,0,0,1,24.06,9.45Zm-12-1.14H23.49V6.65H12.08Z"/><path class="cls-1" d="M21.85,6.65H13.72a.58.58,0,0,1-.57-.57V3.5a.58.58,0,0,1,.57-.57h2.66a.56.56,0,0,1,.44.22,1.22,1.22,0,0,0,1.92,0,.58.58,0,0,1,.45-.22h2.66a.58.58,0,0,1,.57.57V6.08A.58.58,0,0,1,21.85,6.65ZM14.29,5.5h7V4.07H19.44a2.34,2.34,0,0,1-1.66.69,2.37,2.37,0,0,1-1.66-.69H14.29Z"/><path class="cls-1" d="M17.78,4.76a2.38,2.38,0,1,1,2.38-2.38A2.38,2.38,0,0,1,17.78,4.76Zm0-3.62A1.24,1.24,0,1,0,19,2.38,1.24,1.24,0,0,0,17.78,1.14Z"/><path class="cls-1" d="M31.86,8.84h-4a.57.57,0,0,1-.57-.57,2.59,2.59,0,1,1,5.17,0A.58.58,0,0,1,31.86,8.84ZM28.52,7.7h2.65a1.44,1.44,0,0,0-2.65,0Z"/><path class="cls-1" d="M7.74,8.84h-4a.57.57,0,0,1-.57-.57,2.59,2.59,0,1,1,5.17,0A.58.58,0,0,1,7.74,8.84ZM4.4,7.7H7.05a1.44,1.44,0,0,0-2.65,0Z"/><path class="cls-1" d="M14.8,26.56H5.57A.56.56,0,0,1,5,26v-3.1a3.08,3.08,0,0,1,3.07-3.08H12.3a3.08,3.08,0,0,1,3.07,3.08V26A.57.57,0,0,1,14.8,26.56ZM6.14,25.42h8.09V22.89A1.94,1.94,0,0,0,12.3,21H8.07a1.93,1.93,0,0,0-1.93,1.94Z"/><path class="cls-1" d="M7.51,26.56A.57.57,0,0,1,6.94,26V23.52A.58.58,0,0,1,7.51,23a.57.57,0,0,1,.57.57V26A.56.56,0,0,1,7.51,26.56Z"/><path class="cls-1" d="M12.85,26.56a.57.57,0,0,1-.57-.57V23.52a.58.58,0,0,1,1.15,0V26A.57.57,0,0,1,12.85,26.56Z"/><path class="cls-1" d="M10.18,19a2.69,2.69,0,1,1,2.69-2.69A2.69,2.69,0,0,1,10.18,19Zm0-4.24a1.55,1.55,0,1,0,1.55,1.55A1.55,1.55,0,0,0,10.18,14.73Z"/><path class="cls-1" d="M35,19.14a.56.56,0,0,1-.57-.57v-.91a.56.56,0,0,1,.57-.57.57.57,0,0,1,.57.57v.91A.57.57,0,0,1,35,19.14Z"/><path class="cls-1" d="M35,15.88a.56.56,0,0,1-.57-.57V14.14a.56.56,0,0,1,.57-.57.57.57,0,0,1,.57.57v1.17A.57.57,0,0,1,35,15.88Z"/><path class="cls-1" d="M35,12.36a.57.57,0,0,1-.57-.57v-.92A.57.57,0,0,1,35,10.3a.58.58,0,0,1,.57.57v.92A.58.58,0,0,1,35,12.36Z"/><path class="cls-1" d="M33.26,29.45H32.6a.58.58,0,0,1-.57-.57.57.57,0,0,1,.57-.57h.66a1.18,1.18,0,0,0,1.17-1.17V18.57A.57.57,0,0,1,35,18a.58.58,0,0,1,.57.57v8.57A2.32,2.32,0,0,1,33.26,29.45Z"/><path class="cls-1" d="M16.73,26.56H3.64A.56.56,0,0,1,3.07,26V11.15a.56.56,0,0,1,.57-.57H16.73a.57.57,0,0,1,.57.57V26A.57.57,0,0,1,16.73,26.56ZM4.21,25.42h12V11.72H4.21Z"/><path class="cls-1" d="M29,12.63H23.19a.56.56,0,0,1-.57-.57.57.57,0,0,1,.57-.57H29a.57.57,0,0,1,.57.57A.56.56,0,0,1,29,12.63Z"/><path class="cls-1" d="M31.65,15.51H20.56a.57.57,0,0,1-.57-.57.58.58,0,0,1,.57-.57H31.65a.57.57,0,0,1,.57.57A.56.56,0,0,1,31.65,15.51Z"/><path class="cls-1" d="M31.65,18.4H20.56a.58.58,0,0,1-.57-.57.57.57,0,0,1,.57-.57H31.65a.56.56,0,0,1,.57.57A.57.57,0,0,1,31.65,18.4Z"/><path class="cls-1" d="M31.65,21.28H20.56a.58.58,0,0,1-.57-.57.57.57,0,0,1,.57-.57H31.65a.56.56,0,0,1,.57.57A.57.57,0,0,1,31.65,21.28Z"/><path class="cls-1" d="M28.15,25H28c-.52-.08-.75-.61-.83-.78a.57.57,0,0,1,1-.5l.08-.1c.27-.31.63-.72,1.15-.64a1.13,1.13,0,0,1,.8.74l.09-.1c.26-.3.61-.71,1.13-.64a.57.57,0,0,1,.49.64.57.57,0,0,1-.52.49c-.07.06-.17.18-.24.25-.26.31-.62.72-1.14.64a1.16,1.16,0,0,1-.81-.73.76.76,0,0,1-.09.09A1.44,1.44,0,0,1,28.15,25Z"/><path class="cls-1" d="M26,24.5h-.9a.57.57,0,0,1-.57-.57.58.58,0,0,1,.57-.57H26a.58.58,0,0,1,.57.57A.57.57,0,0,1,26,24.5Z"/><path class="cls-1" d="M28,29.45H2.31A2.31,2.31,0,0,1,0,27.14V10A2.3,2.3,0,0,1,2.31,7.7h9.2a.57.57,0,0,1,.57.57s11.41,0,11.41,0a.58.58,0,0,1,.57-.61h9.2A2.31,2.31,0,0,1,35.57,10v.87a.57.57,0,0,1-.57.57.56.56,0,0,1-.57-.57V10a1.17,1.17,0,0,0-1.17-1.16H24.63a.58.58,0,0,1-.57.61H11.51a.57.57,0,0,1-.57-.57s-8.63,0-8.63,0A1.16,1.16,0,0,0,1.14,10V27.14a1.17,1.17,0,0,0,1.17,1.17H28a.56.56,0,0,1,.57.57A.57.57,0,0,1,28,29.45Z"/><path class="cls-1" d="M24.06,9.45H11.51a.57.57,0,0,1-.57-.57V6.08a.57.57,0,0,1,.57-.58H24.06a.57.57,0,0,1,.57.58v2.8A.57.57,0,0,1,24.06,9.45Zm-12-1.14H23.49V6.65H12.08Z"/><path class="cls-1" d="M21.85,6.65H13.72a.58.58,0,0,1-.57-.57V3.5a.58.58,0,0,1,.57-.57h2.66a.56.56,0,0,1,.44.22,1.22,1.22,0,0,0,1.92,0,.58.58,0,0,1,.45-.22h2.66a.58.58,0,0,1,.57.57V6.08A.58.58,0,0,1,21.85,6.65ZM14.29,5.5h7V4.07H19.44a2.34,2.34,0,0,1-1.66.69,2.37,2.37,0,0,1-1.66-.69H14.29Z"/><path class="cls-1" d="M17.78,4.76a2.38,2.38,0,1,1,2.38-2.38A2.38,2.38,0,0,1,17.78,4.76Zm0-3.62A1.24,1.24,0,1,0,19,2.38,1.24,1.24,0,0,0,17.78,1.14Z"/><path class="cls-1" d="M31.86,8.84h-4a.57.57,0,0,1-.57-.57,2.59,2.59,0,1,1,5.17,0A.58.58,0,0,1,31.86,8.84ZM28.52,7.7h2.65a1.44,1.44,0,0,0-2.65,0Z"/><path class="cls-1" d="M7.74,8.84h-4a.57.57,0,0,1-.57-.57,2.59,2.59,0,1,1,5.17,0A.58.58,0,0,1,7.74,8.84ZM4.4,7.7H7.05a1.44,1.44,0,0,0-2.65,0Z"/><path class="cls-1" d="M14.8,26.56H5.57A.56.56,0,0,1,5,26v-3.1a3.08,3.08,0,0,1,3.07-3.08H12.3a3.08,3.08,0,0,1,3.07,3.08V26A.57.57,0,0,1,14.8,26.56ZM6.14,25.42h8.09V22.89A1.94,1.94,0,0,0,12.3,21H8.07a1.93,1.93,0,0,0-1.93,1.94Z"/><path class="cls-1" d="M7.51,26.56A.57.57,0,0,1,6.94,26V23.52A.58.58,0,0,1,7.51,23a.57.57,0,0,1,.57.57V26A.56.56,0,0,1,7.51,26.56Z"/><path class="cls-1" d="M12.85,26.56a.57.57,0,0,1-.57-.57V23.52a.58.58,0,0,1,1.15,0V26A.57.57,0,0,1,12.85,26.56Z"/><path class="cls-1" d="M10.18,19a2.69,2.69,0,1,1,2.69-2.69A2.69,2.69,0,0,1,10.18,19Zm0-4.24a1.55,1.55,0,1,0,1.55,1.55A1.55,1.55,0,0,0,10.18,14.73Z"/></g></g></svg>