<svg xmlns="http://www.w3.org/2000/svg" viewBox="0 0 70.87 70.87"><defs><style>.cls-1{fill:none;}</style></defs><g id="Layer_2" data-name="Layer 2"><g id="Слой_1" data-name="Слой 1"><rect x="25.51" width="2.83" height="2.83"/><rect x="34.02" width="2.83" height="2.83"/><rect x="36.85" width="2.83" height="2.83"/><rect x="39.69" width="2.83" height="2.83"/><rect x="22.68" y="2.83" width="2.83" height="2.83"/><rect x="45.35" y="2.83" width="2.83" height="2.83"/><rect x="22.68" y="5.67" width="2.83" height="2.83"/><rect x="25.51" y="5.67" width="2.83" height="2.83"/><rect x="31.18" y="5.67" width="2.83" height="2.83"/><rect x="39.69" y="5.67" width="2.83" height="2.83"/><rect x="42.52" y="5.67" width="2.83" height="2.83"/><rect x="45.35" y="5.67" width="2.83" height="2.83"/><rect x="22.68" y="8.5" width="2.83" height="2.83"/><rect x="28.35" y="8.5" width="2.83" height="2.83"/><rect x="36.85" y="8.5" width="2.83" height="2.83"/><rect x="39.69" y="8.5" width="2.83" height="2.83"/><rect x="31.18" y="11.34" width="2.83" height="2.83"/><rect x="34.02" y="11.34" width="2.83" height="2.83"/><rect x="36.85" y="11.34" width="2.83" height="2.83"/><rect x="45.35" y="11.34" width="2.83" height="2.83"/><rect x="28.35" y="14.17" width="2.83" height="2.83"/><rect x="36.85" y="14.17" width="2.83" height="2.83"/><rect x="39.69" y="14.17" width="2.83" height="2.83"/><rect x="22.68" y="17.01" width="2.83" height="2.83"/><rect x="28.35" y="17.01" width="2.83" height="2.83"/><rect x="34.02" y="17.01" width="2.83" height="2.83"/><rect x="39.69" y="17.01" width="2.83" height="2.83"/><rect x="45.35" y="17.01" width="2.83" height="2.83"/><rect x="22.68" y="19.84" width="2.83" height="2.83"/><rect x="28.35" y="19.84" width="2.83" height="2.83"/><rect x="39.69" y="19.84" width="2.83" height="2.83"/><rect x="42.52" y="19.84" width="2.83" height="2.83"/><rect x="45.35" y="19.84" width="2.83" height="2.83"/><rect y="22.68" width="2.83" height="2.83"/><rect x="17.01" y="22.68" width="2.83" height="2.83"/><rect x="22.68" y="22.68" width="2.83" height="2.83"/><rect x="25.51" y="22.68" width="2.83" height="2.83"/><rect x="48.19" y="22.68" width="2.83" height="2.83"/><rect x="51.02" y="22.68" width="2.83" height="2.83"/><rect x="59.53" y="22.68" width="2.83" height="2.83"/><rect x="62.36" y="22.68" width="2.83" height="2.83"/><rect x="65.2" y="22.68" width="2.83" height="2.83"/><rect x="5.67" y="25.51" width="2.83" height="2.83"/><rect x="11.34" y="25.51" width="2.83" height="2.83"/><rect x="36.85" y="25.51" width="2.83" height="2.83"/><rect x="39.69" y="25.51" width="2.83" height="2.83"/><rect x="42.52" y="25.51" width="2.83" height="2.83"/><rect x="45.35" y="25.51" width="2.83" height="2.83"/><rect x="48.19" y="25.51" width="2.83" height="2.83"/><rect x="53.86" y="25.51" width="2.83" height="2.83"/><rect x="56.69" y="25.51" width="2.83" height="2.83"/><rect x="59.53" y="25.51" width="2.83" height="2.83"/><rect x="62.36" y="25.51" width="2.83" height="2.83"/><rect x="65.2" y="25.51" width="2.83" height="2.83"/><rect x="2.83" y="28.35" width="2.83" height="2.83"/><rect x="5.67" y="28.35" width="2.83" height="2.83"/><rect x="8.5" y="28.35" width="2.83" height="2.83"/><rect x="17.01" y="28.35" width="2.83" height="2.83"/><rect x="19.84" y="28.35" width="2.83" height="2.83"/><rect x="22.68" y="28.35" width="2.83" height="2.83"/><rect x="25.51" y="28.35" width="2.83" height="2.83"/><rect x="28.35" y="28.35" width="2.83" height="2.83"/><rect x="31.18" y="28.35" width="2.83" height="2.83"/><rect x="34.02" y="28.35" width="2.83" height="2.83"/><rect x="36.85" y="28.35" width="2.83" height="2.83"/><rect x="39.69" y="28.35" width="2.83" height="2.83"/><rect x="42.52" y="28.35" width="2.83" height="2.83"/><rect x="45.35" y="28.35" width="2.83" height="2.83"/><rect x="51.02" y="28.35" width="2.83" height="2.83"/><rect x="53.86" y="28.35" width="2.83" height="2.83"/><rect x="59.53" y="28.35" width="2.83" height="2.83"/><rect x="65.2" y="28.35" width="2.83" height="2.83"/><rect x="68.03" y="28.35" width="2.83" height="2.83"/><rect y="31.18" width="2.83" height="2.83"/><rect x="2.83" y="31.18" width="2.83" height="2.83"/><rect x="11.34" y="31.18" width="2.83" height="2.83"/><rect x="14.17" y="31.18" width="2.83" height="2.83"/><rect x="28.35" y="31.18" width="2.83" height="2.83"/><rect x="31.18" y="31.18" width="2.83" height="2.83"/><rect x="36.85" y="31.18" width="2.83" height="2.83"/><rect x="42.52" y="31.18" width="2.83" height="2.83"/><rect x="59.53" y="31.18" width="2.83" height="2.83"/><rect x="68.03" y="31.18" width="2.83" height="2.83"/><rect x="2.83" y="34.02" width="2.83" height="2.83"/><rect x="5.67" y="34.02" width="2.83" height="2.83"/><rect x="8.5" y="34.02" width="2.83" height="2.83"/><rect x="14.17" y="34.02" width="2.83" height="2.83"/><rect x="17.01" y="34.02" width="2.83" height="2.83"/><rect x="19.84" y="34.02" width="2.83" height="2.83"/><rect x="28.35" y="34.02" width="2.83" height="2.83"/><rect x="34.02" y="34.02" width="2.83" height="2.83"/><rect x="36.85" y="34.02" width="2.83" height="2.83"/><rect x="42.52" y="34.02" width="2.83" height="2.83"/><rect x="51.02" y="34.02" width="2.83" height="2.83"/><rect x="53.86" y="34.02" width="2.83" height="2.83"/><rect x="68.03" y="34.02" width="2.83" height="2.83"/><rect y="36.85" width="2.83" height="2.83"/><rect x="2.83" y="36.85" width="2.83" height="2.83"/><rect x="8.5" y="36.85" width="2.83" height="2.83"/><rect x="11.34" y="36.85" width="2.83" height="2.83"/><rect x="14.17" y="36.85" width="2.83" height="2.83"/><rect x="22.68" y="36.85" width="2.83" height="2.83"/><rect x="28.35" y="36.85" width="2.83" height="2.83"/><rect x="42.52" y="36.85" width="2.83" height="2.83"/><rect x="45.35" y="36.85" width="2.83" height="2.83"/><rect x="53.86" y="36.85" width="2.83" height="2.83"/><rect x="65.2" y="36.85" width="2.83" height="2.83"/><rect y="39.69" width="2.83" height="2.83"/><rect x="5.67" y="39.69" width="2.83" height="2.83"/><rect x="11.34" y="39.69" width="2.83" height="2.83"/><rect x="17.01" y="39.69" width="2.83" height="2.83"/><rect x="19.84" y="39.69" width="2.83" height="2.83"/><rect x="25.51" y="39.69" width="2.83" height="2.83"/><rect x="28.35" y="39.69" width="2.83" height="2.83"/><rect x="31.18" y="39.69" width="2.83" height="2.83"/><rect x="34.02" y="39.69" width="2.83" height="2.83"/><rect x="42.52" y="39.69" width="2.83" height="2.83"/><rect x="45.35" y="39.69" width="2.83" height="2.83"/><rect x="48.19" y="39.69" width="2.83" height="2.83"/><rect x="53.86" y="39.69" width="2.83" height="2.83"/><rect x="56.69" y="39.69" width="2.83" height="2.83"/><rect x="59.53" y="39.69" width="2.83" height="2.83"/><rect x="65.2" y="39.69" width="2.83" height="2.83"/><rect x="68.03" y="39.69" width="2.83" height="2.83"/><rect y="42.52" width="2.83" height="2.83"/><rect x="22.68" y="42.52" width="2.83" height="2.83"/><rect x="28.35" y="42.52" width="2.83" height="2.83"/><rect x="31.18" y="42.52" width="2.83" height="2.83"/><rect x="42.52" y="42.52" width="2.83" height="2.83"/><rect x="45.35" y="42.52" width="2.83" height="2.83"/><rect x="48.19" y="42.52" width="2.83" height="2.83"/><rect x="51.02" y="42.52" width="2.83" height="2.83"/><rect x="53.86" y="42.52" width="2.83" height="2.83"/><rect x="59.53" y="42.52" width="2.83" height="2.83"/><rect x="62.36" y="42.52" width="2.83" height="2.83"/><rect x="68.03" y="42.52" width="2.83" height="2.83"/><rect y="45.35" width="2.83" height="2.83"/><rect x="8.5" y="45.35" width="2.83" height="2.83"/><rect x="14.17" y="45.35" width="2.83" height="2.83"/><rect x="17.01" y="45.35" width="2.83" height="2.83"/><rect x="19.84" y="45.35" width="2.83" height="2.83"/><rect x="28.35" y="45.35" width="2.83" height="2.83"/><rect x="31.18" y="45.35" width="2.83" height="2.83"/><rect x="45.35" y="45.35" width="2.83" height="2.83"/><rect x="48.19" y="45.35" width="2.83" height="2.83"/><rect x="51.02" y="45.35" width="2.83" height="2.83"/><rect x="53.86" y="45.35" width="2.83" height="2.83"/><rect x="56.69" y="45.35" width="2.83" height="2.83"/><rect x="62.36" y="45.35" width="2.83" height="2.83"/><rect x="22.68" y="48.19" width="2.83" height="2.83"/><rect x="25.51" y="48.19" width="2.83" height="2.83"/><rect x="34.02" y="48.19" width="2.83" height="2.83"/><rect x="36.85" y="48.19" width="2.83" height="2.83"/><rect x="39.69" y="48.19" width="2.83" height="2.83"/><rect x="45.35" y="48.19" width="2.83" height="2.83"/><rect x="56.69" y="48.19" width="2.83" height="2.83"/><rect x="31.18" y="51.02" width="2.83" height="2.83"/><rect x="45.35" y="51.02" width="2.83" height="2.83"/><rect x="51.02" y="51.02" width="2.83" height="2.83"/><rect x="56.69" y="51.02" width="2.83" height="2.83"/><rect x="68.03" y="51.02" width="2.83" height="2.83"/><rect x="34.02" y="53.86" width="2.83" height="2.83"/><rect x="36.85" y="53.86" width="2.83" height="2.83"/><rect x="42.52" y="53.86" width="2.83" height="2.83"/><rect x="45.35" y="53.86" width="2.83" height="2.83"/><rect x="56.69" y="53.86" width="2.83" height="2.83"/><rect x="65.2" y="53.86" width="2.83" height="2.83"/><rect x="25.51" y="56.69" width="2.83" height="2.83"/><rect x="28.35" y="56.69" width="2.83" height="2.83"/><rect x="34.02" y="56.69" width="2.83" height="2.83"/><rect x="39.69" y="56.69" width="2.83" height="2.83"/><rect x="42.52" y="56.69" width="2.83" height="2.83"/><rect x="45.35" y="56.69" width="2.83" height="2.83"/><rect x="48.19" y="56.69" width="2.83" height="2.83"/><rect x="51.02" y="56.69" width="2.83" height="2.83"/><rect x="53.86" y="56.69" width="2.83" height="2.83"/><rect x="56.69" y="56.69" width="2.83" height="2.83"/><rect x="62.36" y="56.69" width="2.83" height="2.83"/><rect x="68.03" y="56.69" width="2.83" height="2.83"/><rect x="25.51" y="59.53" width="2.83" height="2.83"/><rect x="28.35" y="59.53" width="2.83" height="2.83"/><rect x="39.69" y="59.53" width="2.83" height="2.83"/><rect x="48.19" y="59.53" width="2.83" height="2.83"/><rect x="51.02" y="59.53" width="2.83" height="2.83"/><rect x="65.2" y="59.53" width="2.83" height="2.83"/><rect x="68.03" y="59.53" width="2.83" height="2.83"/><rect x="31.18" y="62.36" width="2.83" height="2.83"/><rect x="34.02" y="62.36" width="2.83" height="2.83"/><rect x="45.35" y="62.36" width="2.83" height="2.83"/><rect x="59.53" y="62.36" width="2.83" height="2.83"/><rect x="62.36" y="62.36" width="2.83" height="2.83"/><rect x="68.03" y="62.36" width="2.83" height="2.83"/><rect x="25.51" y="65.2" width="2.83" height="2.83"/><rect x="28.35" y="65.2" width="2.83" height="2.83"/><rect x="31.18" y="65.2" width="2.83" height="2.83"/><rect x="39.69" y="65.2" width="2.83" height="2.83"/><rect x="45.35" y="65.2" width="2.83" height="2.83"/><rect x="51.02" y="65.2" width="2.83" height="2.83"/><rect x="53.86" y="65.2" width="2.83" height="2.83"/><rect x="56.69" y="65.2" width="2.83" height="2.83"/><rect x="68.03" y="65.2" width="2.83" height="2.83"/><rect x="22.68" y="68.03" width="2.83" height="2.83"/><rect x="28.35" y="68.03" width="2.83" height="2.83"/><rect x="36.85" y="68.03" width="2.83" height="2.83"/><rect x="39.69" y="68.03" width="2.83" height="2.83"/><rect x="42.52" y="68.03" width="2.83" height="2.83"/><rect x="45.35" y="68.03" width="2.83" height="2.83"/><rect x="51.02" y="68.03" width="2.83" height="2.83"/><rect x="59.53" y="68.03" width="2.83" height="2.83"/><rect x="68.03" y="68.03" width="2.83" height="2.83"/><rect class="cls-1" x="2.98" y="2.98" width="13.89" height="13.89"/><path d="M16.87,0H0V19.84H19.84V0Zm0,16.87H3V3H16.87Z"/><rect class="cls-1" x="54" y="2.98" width="13.89" height="13.89"/><path d="M67.89,0H51V19.84H70.87V0Zm0,16.87H54V3H67.89Z"/><rect class="cls-1" x="2.98" y="54" width="13.89" height="13.89"/><path d="M16.87,51H0V70.87H19.84V51Zm0,16.87H3V54H16.87Z"/><rect x="5.67" y="5.67" width="8.5" height="8.5"/><rect x="56.69" y="5.67" width="8.5" height="8.5"/><rect x="5.67" y="56.69" width="8.5" height="8.5"/></g></g></svg>