<svg xmlns="http://www.w3.org/2000/svg" viewBox="0 0 34.31 24.31"><defs><style>.cls-1{fill:#ff9300;}</style></defs><g id="Layer_2" data-name="Layer 2"><g id="Слой_1" data-name="Слой 1"><path class="cls-1" d="M34.3,13.43c-.51-2.57-5.18-2.83-7.89-3-.47-2.79,1.7-9.07-2.87-9.68-4.87-1-16-2.28-14,5.7C-6.53,5-.25,29.83,13.21,20.92a20.3,20.3,0,0,0,4.4.48c1.27,3.49,15,4.34,16.7-.29C34.27,20.92,34.34,13.62,34.3,13.43ZM25,6.91C21.8,9.34,14.46,9.18,11,6.85l-.05-1.94A19.59,19.59,0,0,0,25,4.83v1.8A.36.36,0,0,0,25,6.91ZM12.62,2.09c3.11-.91,10-1.19,12.34,1-2.71,2.3-11.39,2.35-14.11,0C10.86,3,11.17,2.53,12.62,2.09Zm0,17.52C6.15,25.69-3.24,15.36,3.42,9.47,9.9,3.4,19.32,13.73,12.64,19.61Zm1.75.15a8.27,8.27,0,0,0,1.32-2.26c.58.05,1.19.08,1.82.09,0,.11,0,2.33,0,2.45A21.23,21.23,0,0,1,14.39,19.76Zm1.84-6c.39,0,.81,0,1.24,0l0,2.43q-.72,0-1.41-.06A8.91,8.91,0,0,0,16.23,13.72Zm1.69-1.32c-.68,0-1.35,0-2-.07a8.25,8.25,0,0,0-1.23-2.55c3.45.39,7.37.28,10.3-1.12v1.8C22.08,10.55,19,11.17,17.92,12.4Zm.9,1.1c2.77-2.35,11.37-2.27,14.11,0C30.22,15.8,21.53,15.87,18.82,13.5Zm12.35,8.64c-2.8.79-13.53,1.89-12.24-3a19.48,19.48,0,0,0,14-.09v2.06h0C32.94,21.21,32.62,21.68,31.17,22.14ZM33,17.08h0c-1.61,2.92-12.92,2-14,.38,0-.39,0-1.76,0-2.16A19.59,19.59,0,0,0,33,15.25Z"/><path class="cls-1" d="M9.69,14.18h1.48v-1h-.88c1-3-3.3-4.06-4.84-1.94l.92,1c.91-1.29,3.13-.42,1.76.9-.67,0-2.62,0-3.26.08v.89h1.9a4.18,4.18,0,0,0-.67.66c-.17,0-1,.07-1.23.08v.9h.78c-.71,2.92,3.37,3.9,5.31,2l-.79-1.24c-1,1.15-3.5,1-2.49-.72h3.49v-1H8.89A6.09,6.09,0,0,0,9.69,14.18Z"/></g></g></svg>