<svg xmlns="http://www.w3.org/2000/svg" viewBox="0 0 9.04 12.16"><g id="Layer_2" data-name="Layer 2"><g id="Слой_1" data-name="Слой 1"><path d="M4.54,0h0A4.53,4.53,0,0,0,0,4.52,5.92,5.92,0,0,0,1.48,8l3,4.14L7.57,8A6,6,0,0,0,9,4.52,4.52,4.52,0,0,0,4.54,0ZM7,7.59c-.18.25-2.06,2.83-2.47,3.38L2.05,7.59A5.23,5.23,0,0,1,.71,4.52,3.82,3.82,0,0,1,4.5.71h0A3.82,3.82,0,0,1,8.33,4.52,5.23,5.23,0,0,1,7,7.59Z"/><path d="M4.52,1.91A2.61,2.61,0,1,0,7.13,4.52,2.61,2.61,0,0,0,4.52,1.91Zm0,4.51a1.9,1.9,0,1,1,1.9-1.9A1.91,1.91,0,0,1,4.52,6.42Z"/></g></g></svg>