<svg xmlns="http://www.w3.org/2000/svg" viewBox="0 0 12.14 12.14"><g id="Layer_2" data-name="Layer 2"><g id="Слой_1" data-name="Слой 1"><path d="M9,5.16a2,2,0,0,0-.54-1.9,2,2,0,0,0-1.9-.54l.16.69A1.32,1.32,0,0,1,8.3,5Z"/><path d="M9.05,2.66A2.92,2.92,0,0,1,9.83,5.4l.69.16A3.65,3.65,0,0,0,8,1.22a3.66,3.66,0,0,0-1.8,0l.16.69A2.92,2.92,0,0,1,9.05,2.66Z"/><path d="M8.88,6.7,7.55,8A12.13,12.13,0,0,1,5.68,6.49,12,12,0,0,1,4.11,4.58L5.44,3.25,2.19,0,.52,1.67h0c-.63.68-.68,1.84-.13,3.25A12.47,12.47,0,0,0,3.17,9a12.09,12.09,0,0,0,4.08,2.8A5,5,0,0,0,9,12.14a2.08,2.08,0,0,0,1.52-.56L12.14,10ZM11.13,10l-.73.73L8.15,8.44l.73-.74Zm-6.7-6.7L3.71,4,1.46,1.73,2.19,1ZM7.5,11.11A11.79,11.79,0,0,1,3.67,8.47,11.71,11.71,0,0,1,1,4.67,2.65,2.65,0,0,1,1,2.24L3.21,4.48h0l.15.24A13.13,13.13,0,0,0,5.17,7a12.82,12.82,0,0,0,2.24,1.8l.24.15h0l2.23,2.24A2.67,2.67,0,0,1,7.5,11.11Z"/></g></g></svg>