<svg xmlns="http://www.w3.org/2000/svg" viewBox="0 0 12.16 12.16"><g id="Layer_2" data-name="Layer 2"><g id="Слой_1" data-name="Слой 1"><path d="M10.38,1.78a6.08,6.08,0,0,0-8.6,8.6,6.08,6.08,0,0,0,8.6-8.6Zm-8.31.74a5.42,5.42,0,0,0,1.11.77,10.4,10.4,0,0,0-.34,2.43H.72A5.39,5.39,0,0,1,2.07,2.52Zm6.69.08a7,7,0,0,0-.32-.73A5.12,5.12,0,0,0,7.92,1,5.24,5.24,0,0,1,9.58,2a4.29,4.29,0,0,1-.69.5Zm-3,.65A5.4,5.4,0,0,1,4.05,2.9a6.58,6.58,0,0,1,.3-.71A2.67,2.67,0,0,1,5.72.77Zm0,.72V5.72H3.55a9.7,9.7,0,0,1,.29-2.14A6.31,6.31,0,0,0,5.72,4Zm0,2.47V8.19a6.65,6.65,0,0,0-1.88.38,9.52,9.52,0,0,1-.29-2.13Zm0,2.47v2.48A2.67,2.67,0,0,1,4.35,10a6.58,6.58,0,0,1-.3-.71A5.3,5.3,0,0,1,5.72,8.91Zm.72,0a5.4,5.4,0,0,1,1.67.35,6.58,6.58,0,0,1-.3.71,2.67,2.67,0,0,1-1.37,1.42Zm0-.72V6.44H8.61a9.52,9.52,0,0,1-.29,2.13A6.65,6.65,0,0,0,6.44,8.19Zm0-2.47V4a6.31,6.31,0,0,0,1.88-.39,9.7,9.7,0,0,1,.29,2.14Zm0-2.47V.77A2.67,2.67,0,0,1,7.81,2.19a6.58,6.58,0,0,1,.3.71A5.4,5.4,0,0,1,6.44,3.25ZM3.72,1.87a7,7,0,0,0-.32.73l-.13-.08A3.88,3.88,0,0,1,2.58,2,5.24,5.24,0,0,1,4.24,1,5.12,5.12,0,0,0,3.72,1.87ZM2.84,6.44a10.48,10.48,0,0,0,.34,2.43,5.42,5.42,0,0,0-1.11.77A5.39,5.39,0,0,1,.72,6.44ZM3.4,9.56a7,7,0,0,0,.32.73,5.12,5.12,0,0,0,.52.83,5.24,5.24,0,0,1-1.66-1A4.8,4.8,0,0,1,3.4,9.56Zm5,.73a7,7,0,0,0,.32-.73l.13.08a4.29,4.29,0,0,1,.69.5,5.24,5.24,0,0,1-1.66,1A5.12,5.12,0,0,0,8.44,10.29Zm1.65-.65A5.42,5.42,0,0,0,9,8.87a10.48,10.48,0,0,0,.34-2.43h2.11A5.32,5.32,0,0,1,10.09,9.64ZM9.32,5.72A10.4,10.4,0,0,0,9,3.29a5.42,5.42,0,0,0,1.11-.77,5.32,5.32,0,0,1,1.34,3.2Z"/></g></g></svg>